<svg width="1216" height="313" viewBox="0 0 1216 313" fill="none" xmlns="http://www.w3.org/2000/svg">
<g filter="url(#filter0_d_201_68)">
<g clip-path="url(#clip0_201_68)">
<rect x="102" y="53" width="200" height="200" rx="30" fill="#0A47A2"/>
<path d="M212.077 48.6356C211.798 51.8375 211.565 54.4391 211.378 56.4403C211.19 58.3416 211.103 60.3422 211.117 62.4422C211.126 63.7422 211.139 65.7421 211.156 68.442C211.174 71.142 211.192 73.9419 211.211 76.8419C211.23 79.7418 211.246 82.1418 211.259 84.0417L190.409 84.1784C190.395 82.0785 190.379 79.5785 190.36 76.6786C190.341 73.7787 190.323 71.0287 190.306 68.4288C190.289 65.8288 190.276 63.8789 190.267 62.5789C190.254 60.4789 190.141 58.4796 189.928 56.581C189.815 54.5817 189.498 51.9837 188.977 48.7871L212.077 48.6356ZM262.833 79.9534C262.243 81.5573 261.657 83.6112 261.073 86.1151C260.589 88.5183 260.202 90.4709 259.912 91.9728C259.335 95.4767 258.608 99.0315 257.732 102.637C256.955 106.243 255.979 109.849 254.803 113.457C253.726 117.064 252.449 120.622 250.972 124.132C249.595 127.641 248.018 131.102 246.24 134.513C242.288 141.839 237.232 148.523 231.072 154.563C225.011 160.603 218.095 165.749 210.322 170C202.549 174.151 194.221 177.455 185.337 179.914L169.619 162.016C173.015 161.394 176.61 160.571 180.403 159.546C184.196 158.421 187.638 157.248 190.73 156.028C194.92 154.4 199.057 152.373 203.141 149.946C207.324 147.419 211.255 144.493 214.933 141.169C218.612 137.845 221.838 134.173 224.611 130.155C227.087 126.439 229.211 122.475 230.984 118.263C232.755 113.951 234.176 109.542 235.247 105.035C236.317 100.428 237.137 95.9223 237.708 91.5184L163.31 92.0063C163.318 93.3063 163.329 94.9563 163.342 96.9562C163.355 98.8562 163.369 100.956 163.384 103.256C163.398 105.456 163.412 107.506 163.424 109.406C163.436 111.206 163.446 112.706 163.453 113.906C163.465 115.606 163.527 117.505 163.641 119.605C163.755 121.704 163.866 123.503 163.976 125.003L143.277 125.138C143.464 123.237 143.601 121.186 143.686 118.986C143.871 116.684 143.957 114.534 143.944 112.534C143.936 111.334 143.925 109.584 143.91 107.284C143.895 104.984 143.878 102.534 143.861 99.934C143.844 97.2341 143.827 94.6841 143.811 92.2842C143.796 89.8842 143.783 87.9843 143.774 86.5843C143.763 84.8843 143.699 82.7847 143.583 80.2854C143.466 77.6861 143.251 75.4875 142.939 73.6895C145.541 73.9724 148.042 74.156 150.443 74.2403C152.844 74.3246 155.444 74.3575 158.244 74.3392L237.292 73.8208C240.392 73.8005 242.891 73.6341 244.789 73.3216C246.786 72.9085 248.434 72.4977 249.731 72.0892L262.833 79.9534Z" fill="white"/>
<path d="M221.077 57.7413C220.798 60.9432 220.565 63.5448 220.378 65.5461C220.19 67.4473 220.103 69.4479 220.117 71.5479C220.126 72.8479 220.139 74.8478 220.156 77.5478C220.174 80.2477 220.192 83.0476 220.211 85.9476C220.23 88.8475 220.246 91.2475 220.259 93.1474L199.409 93.2842C199.395 91.1842 199.379 88.6842 199.36 85.7843C199.341 82.8844 199.323 80.1344 199.306 77.5345C199.289 74.9345 199.276 72.9846 199.267 71.6846C199.254 69.5847 199.141 67.5854 198.928 65.6867C198.815 63.6874 198.498 61.0894 197.977 57.8928L221.077 57.7413ZM271.833 89.0591C271.243 90.663 270.657 92.7169 270.073 95.2208C269.589 97.624 269.202 99.5766 268.912 101.079C268.335 104.582 267.608 108.137 266.732 111.743C265.955 115.348 264.979 118.955 263.803 122.563C262.726 126.17 261.449 129.728 259.972 133.238C258.595 136.747 257.018 140.207 255.24 143.619C251.288 150.945 246.232 157.628 240.072 163.669C234.011 169.709 227.095 174.854 219.322 179.105C211.549 183.256 203.221 186.561 194.337 189.019L178.619 171.122C182.015 170.5 185.61 169.676 189.403 168.651C193.196 167.526 196.638 166.354 199.73 165.134C203.92 163.506 208.057 161.479 212.141 159.052C216.324 156.525 220.255 153.599 223.933 150.275C227.612 146.95 230.838 143.279 233.611 139.261C236.087 135.545 238.211 131.581 239.984 127.369C241.755 123.057 243.176 118.648 244.247 114.141C245.317 109.533 246.137 105.028 246.708 100.624L172.31 101.112C172.318 102.412 172.329 104.062 172.342 106.062C172.355 107.962 172.369 110.062 172.384 112.362C172.398 114.562 172.412 116.612 172.424 118.512C172.436 120.312 172.446 121.812 172.453 123.012C172.465 124.712 172.527 126.611 172.641 128.71C172.755 130.81 172.866 132.609 172.976 134.108L152.277 134.244C152.464 132.343 152.601 130.292 152.686 128.091C152.871 125.79 152.957 123.639 152.944 121.639C152.936 120.439 152.925 118.69 152.91 116.39C152.895 114.09 152.878 111.64 152.861 109.04C152.844 106.34 152.827 103.79 152.811 101.39C152.796 98.9899 152.783 97.09 152.774 95.69C152.763 93.9901 152.699 91.8904 152.583 89.3911C152.466 86.7918 152.251 84.5932 151.939 82.7952C154.541 83.0782 157.042 83.2618 159.443 83.346C161.844 83.4303 164.444 83.4632 167.244 83.4449L246.292 82.9265C249.392 82.9062 251.891 82.7398 253.789 82.4273C255.786 82.0142 257.434 81.6034 258.731 81.1949L271.833 89.0591Z" fill="white" fill-opacity="0.19"/>
<rect x="189" y="83" width="22" height="196" fill="white"/>
<rect x="199" y="83" width="22" height="196" fill="white" fill-opacity="0.15"/>
<rect x="201" y="180.92" width="22" height="135" transform="rotate(-46.1678 201 180.92)" fill="white"/>
</g>
<path d="M377.072 89.3438H392.57C395.812 89.3438 398.596 89.832 400.92 90.8086C403.244 91.7852 405.031 93.2305 406.281 95.1445C407.531 97.0586 408.156 99.4121 408.156 102.205C408.156 104.412 407.766 106.326 406.984 107.947C406.203 109.568 405.1 110.926 403.674 112.02C402.268 113.113 400.607 113.973 398.693 114.598L396.174 115.887H382.492L382.434 109.529H392.658C394.318 109.529 395.695 109.236 396.789 108.65C397.883 108.064 398.703 107.254 399.25 106.219C399.816 105.184 400.1 104.002 400.1 102.674C400.1 101.248 399.826 100.018 399.279 98.9824C398.732 97.9277 397.902 97.1172 396.789 96.5508C395.676 95.9844 394.27 95.7012 392.57 95.7012H385.129V132H377.072V89.3438ZM401.154 132L391.281 112.898L399.807 112.869L409.797 131.59V132H401.154ZM423.918 128.484L432.414 100.301H440.705L427.99 136.805C427.697 137.586 427.316 138.436 426.848 139.354C426.398 140.271 425.793 141.141 425.031 141.961C424.27 142.801 423.312 143.484 422.16 144.012C421.027 144.539 419.65 144.803 418.029 144.803C417.326 144.803 416.701 144.754 416.154 144.656C415.607 144.559 415.031 144.432 414.426 144.275V138.475C414.621 138.494 414.846 138.504 415.1 138.504C415.373 138.523 415.607 138.533 415.803 138.533C416.936 138.533 417.873 138.396 418.615 138.123C419.357 137.869 419.953 137.449 420.402 136.863C420.871 136.297 421.262 135.555 421.574 134.637L423.918 128.484ZM419.729 100.301L426.906 123.65L428.166 131.824L422.834 132.791L411.379 100.301H419.729ZM442.609 116.473V115.857C442.609 113.533 442.941 111.395 443.605 109.441C444.27 107.469 445.236 105.76 446.506 104.314C447.775 102.869 449.328 101.746 451.164 100.945C453 100.125 455.09 99.7148 457.434 99.7148C459.816 99.7148 461.926 100.125 463.762 100.945C465.617 101.746 467.18 102.869 468.449 104.314C469.719 105.76 470.686 107.469 471.35 109.441C472.014 111.395 472.346 113.533 472.346 115.857V116.473C472.346 118.777 472.014 120.916 471.35 122.889C470.686 124.842 469.719 126.551 468.449 128.016C467.18 129.461 465.627 130.584 463.791 131.385C461.955 132.186 459.855 132.586 457.492 132.586C455.148 132.586 453.049 132.186 451.193 131.385C449.338 130.584 447.775 129.461 446.506 128.016C445.236 126.551 444.27 124.842 443.605 122.889C442.941 120.916 442.609 118.777 442.609 116.473ZM450.344 115.857V116.473C450.344 117.859 450.48 119.158 450.754 120.369C451.027 121.58 451.447 122.645 452.014 123.562C452.58 124.48 453.312 125.203 454.211 125.73C455.129 126.238 456.223 126.492 457.492 126.492C458.742 126.492 459.816 126.238 460.715 125.73C461.613 125.203 462.346 124.48 462.912 123.562C463.498 122.645 463.928 121.58 464.201 120.369C464.475 119.158 464.611 117.859 464.611 116.473V115.857C464.611 114.49 464.475 113.211 464.201 112.02C463.928 110.809 463.498 109.744 462.912 108.826C462.346 107.889 461.604 107.156 460.686 106.629C459.787 106.082 458.703 105.809 457.434 105.809C456.184 105.809 455.109 106.082 454.211 106.629C453.312 107.156 452.58 107.889 452.014 108.826C451.447 109.744 451.027 110.809 450.754 112.02C450.48 113.211 450.344 114.49 450.344 115.857ZM476.594 116.473V115.857C476.594 113.533 476.926 111.395 477.59 109.441C478.254 107.469 479.221 105.76 480.49 104.314C481.76 102.869 483.312 101.746 485.148 100.945C486.984 100.125 489.074 99.7148 491.418 99.7148C493.801 99.7148 495.91 100.125 497.746 100.945C499.602 101.746 501.164 102.869 502.434 104.314C503.703 105.76 504.67 107.469 505.334 109.441C505.998 111.395 506.33 113.533 506.33 115.857V116.473C506.33 118.777 505.998 120.916 505.334 122.889C504.67 124.842 503.703 126.551 502.434 128.016C501.164 129.461 499.611 130.584 497.775 131.385C495.939 132.186 493.84 132.586 491.477 132.586C489.133 132.586 487.033 132.186 485.178 131.385C483.322 130.584 481.76 129.461 480.49 128.016C479.221 126.551 478.254 124.842 477.59 122.889C476.926 120.916 476.594 118.777 476.594 116.473ZM484.328 115.857V116.473C484.328 117.859 484.465 119.158 484.738 120.369C485.012 121.58 485.432 122.645 485.998 123.562C486.564 124.48 487.297 125.203 488.195 125.73C489.113 126.238 490.207 126.492 491.477 126.492C492.727 126.492 493.801 126.238 494.699 125.73C495.598 125.203 496.33 124.48 496.896 123.562C497.482 122.645 497.912 121.58 498.186 120.369C498.459 119.158 498.596 117.859 498.596 116.473V115.857C498.596 114.49 498.459 113.211 498.186 112.02C497.912 110.809 497.482 109.744 496.896 108.826C496.33 107.889 495.588 107.156 494.67 106.629C493.771 106.082 492.688 105.809 491.418 105.809C490.168 105.809 489.094 106.082 488.195 106.629C487.297 107.156 486.564 107.889 485.998 108.826C485.432 109.744 485.012 110.809 484.738 112.02C484.465 113.211 484.328 114.49 484.328 115.857ZM532.111 100.301H539.143V131.033C539.143 133.904 538.518 136.336 537.268 138.328C536.037 140.34 534.309 141.863 532.082 142.898C529.855 143.953 527.268 144.48 524.318 144.48C523.049 144.48 521.672 144.305 520.188 143.953C518.723 143.602 517.307 143.045 515.939 142.283C514.592 141.541 513.469 140.574 512.57 139.383L516.057 134.812C517.111 136.043 518.303 136.971 519.631 137.596C520.959 138.24 522.395 138.562 523.938 138.562C525.5 138.562 526.828 138.27 527.922 137.684C529.035 137.117 529.885 136.277 530.471 135.164C531.076 134.07 531.379 132.723 531.379 131.121V107.537L532.111 100.301ZM510.695 116.531V115.916C510.695 113.494 510.988 111.297 511.574 109.324C512.16 107.332 513 105.623 514.094 104.197C515.207 102.771 516.545 101.668 518.107 100.887C519.689 100.105 521.467 99.7148 523.439 99.7148C525.529 99.7148 527.287 100.096 528.713 100.857C530.158 101.619 531.35 102.703 532.287 104.109C533.244 105.516 533.986 107.186 534.514 109.119C535.061 111.033 535.48 113.143 535.773 115.447V117.117C535.5 119.363 535.061 121.424 534.455 123.299C533.869 125.174 533.088 126.814 532.111 128.221C531.135 129.607 529.924 130.682 528.479 131.443C527.033 132.205 525.334 132.586 523.381 132.586C521.428 132.586 519.67 132.186 518.107 131.385C516.545 130.584 515.207 129.461 514.094 128.016C513 126.57 512.16 124.871 511.574 122.918C510.988 120.965 510.695 118.836 510.695 116.531ZM518.43 115.916V116.531C518.43 117.898 518.566 119.178 518.84 120.369C519.113 121.561 519.533 122.615 520.1 123.533C520.666 124.432 521.379 125.135 522.238 125.643C523.098 126.15 524.123 126.404 525.314 126.404C526.916 126.404 528.225 126.072 529.24 125.408C530.275 124.725 531.057 123.797 531.584 122.625C532.131 121.434 532.482 120.096 532.639 118.611V114.012C532.541 112.84 532.326 111.756 531.994 110.76C531.682 109.764 531.242 108.904 530.676 108.182C530.109 107.459 529.387 106.893 528.508 106.482C527.629 106.072 526.584 105.867 525.373 105.867C524.201 105.867 523.176 106.131 522.297 106.658C521.418 107.166 520.695 107.879 520.129 108.797C519.562 109.715 519.133 110.779 518.84 111.99C518.566 113.201 518.43 114.51 518.43 115.916ZM560.354 132.586C557.951 132.586 555.793 132.195 553.879 131.414C551.965 130.633 550.334 129.549 548.986 128.162C547.658 126.756 546.633 125.125 545.91 123.27C545.207 121.395 544.855 119.383 544.855 117.234V116.062C544.855 113.621 545.207 111.404 545.91 109.412C546.613 107.4 547.609 105.672 548.898 104.227C550.188 102.781 551.73 101.668 553.527 100.887C555.324 100.105 557.307 99.7148 559.475 99.7148C561.721 99.7148 563.703 100.096 565.422 100.857C567.141 101.6 568.576 102.654 569.729 104.021C570.881 105.389 571.75 107.029 572.336 108.943C572.922 110.838 573.215 112.938 573.215 115.242V118.494H548.371V113.162H565.598V112.576C565.559 111.346 565.324 110.223 564.895 109.207C564.465 108.172 563.801 107.352 562.902 106.746C562.004 106.121 560.842 105.809 559.416 105.809C558.264 105.809 557.258 106.062 556.398 106.57C555.559 107.059 554.855 107.762 554.289 108.68C553.742 109.578 553.332 110.652 553.059 111.902C552.785 113.152 552.648 114.539 552.648 116.062V117.234C552.648 118.562 552.824 119.793 553.176 120.926C553.547 122.059 554.084 123.045 554.787 123.885C555.51 124.705 556.369 125.35 557.365 125.818C558.381 126.268 559.533 126.492 560.822 126.492C562.443 126.492 563.908 126.18 565.217 125.555C566.545 124.91 567.697 123.963 568.674 122.713L572.57 126.756C571.906 127.732 571.008 128.67 569.875 129.568C568.762 130.467 567.414 131.199 565.832 131.766C564.25 132.312 562.424 132.586 560.354 132.586ZM585.988 107.068V132H578.254V100.301H585.52L585.988 107.068ZM584.758 115.008H582.473C582.492 112.703 582.805 110.613 583.41 108.738C584.016 106.863 584.865 105.252 585.959 103.904C587.072 102.557 588.391 101.521 589.914 100.799C591.438 100.076 593.137 99.7148 595.012 99.7148C596.535 99.7148 597.912 99.9297 599.143 100.359C600.373 100.789 601.428 101.473 602.307 102.41C603.205 103.348 603.889 104.578 604.357 106.102C604.846 107.605 605.09 109.461 605.09 111.668V132H597.297V111.609C597.297 110.164 597.082 109.021 596.652 108.182C596.242 107.342 595.637 106.746 594.836 106.395C594.055 106.043 593.088 105.867 591.936 105.867C590.744 105.867 589.699 106.111 588.801 106.6C587.922 107.068 587.18 107.723 586.574 108.562C585.988 109.402 585.539 110.369 585.227 111.463C584.914 112.557 584.758 113.738 584.758 115.008ZM643.85 116.443H632.863V110.115H643.85C645.646 110.115 647.102 109.822 648.215 109.236C649.348 108.631 650.178 107.811 650.705 106.775C651.232 105.721 651.496 104.52 651.496 103.172C651.496 101.863 651.232 100.643 650.705 99.5098C650.178 98.377 649.348 97.459 648.215 96.7559C647.102 96.0527 645.646 95.7012 643.85 95.7012H635.5V132H627.443V89.3438H643.85C647.17 89.3438 650.002 89.9395 652.346 91.1309C654.709 92.3027 656.506 93.9336 657.736 96.0234C658.986 98.0938 659.611 100.457 659.611 103.113C659.611 105.867 658.986 108.24 657.736 110.232C656.506 112.225 654.709 113.758 652.346 114.832C650.002 115.906 647.17 116.443 643.85 116.443ZM684.221 124.471V100.301H692.014V132H684.689L684.221 124.471ZM685.217 117.908L687.619 117.85C687.619 119.979 687.385 121.941 686.916 123.738C686.447 125.535 685.715 127.098 684.719 128.426C683.742 129.734 682.502 130.76 680.998 131.502C679.494 132.225 677.717 132.586 675.666 132.586C674.104 132.586 672.678 132.371 671.389 131.941C670.1 131.492 668.986 130.799 668.049 129.861C667.131 128.904 666.418 127.684 665.91 126.199C665.402 124.695 665.148 122.889 665.148 120.779V100.301H672.883V120.838C672.883 121.893 673 122.771 673.234 123.475C673.488 124.178 673.83 124.754 674.26 125.203C674.709 125.633 675.227 125.945 675.812 126.141C676.418 126.316 677.062 126.404 677.746 126.404C679.621 126.404 681.096 126.033 682.17 125.291C683.264 124.529 684.045 123.514 684.514 122.244C684.982 120.955 685.217 119.51 685.217 117.908ZM706.457 107.068V132H698.723V100.301H705.988L706.457 107.068ZM705.227 115.008H702.941C702.961 112.703 703.273 110.613 703.879 108.738C704.484 106.863 705.334 105.252 706.428 103.904C707.541 102.557 708.859 101.521 710.383 100.799C711.906 100.076 713.605 99.7148 715.48 99.7148C717.004 99.7148 718.381 99.9297 719.611 100.359C720.842 100.789 721.896 101.473 722.775 102.41C723.674 103.348 724.357 104.578 724.826 106.102C725.314 107.605 725.559 109.461 725.559 111.668V132H717.766V111.609C717.766 110.164 717.551 109.021 717.121 108.182C716.711 107.342 716.105 106.746 715.305 106.395C714.523 106.043 713.557 105.867 712.404 105.867C711.213 105.867 710.168 106.111 709.27 106.6C708.391 107.068 707.648 107.723 707.043 108.562C706.457 109.402 706.008 110.369 705.695 111.463C705.383 112.557 705.227 113.738 705.227 115.008ZM752.541 100.301H759.572V131.033C759.572 133.904 758.947 136.336 757.697 138.328C756.467 140.34 754.738 141.863 752.512 142.898C750.285 143.953 747.697 144.48 744.748 144.48C743.479 144.48 742.102 144.305 740.617 143.953C739.152 143.602 737.736 143.045 736.369 142.283C735.021 141.541 733.898 140.574 733 139.383L736.486 134.812C737.541 136.043 738.732 136.971 740.061 137.596C741.389 138.24 742.824 138.562 744.367 138.562C745.93 138.562 747.258 138.27 748.352 137.684C749.465 137.117 750.314 136.277 750.9 135.164C751.506 134.07 751.809 132.723 751.809 131.121V107.537L752.541 100.301ZM731.125 116.531V115.916C731.125 113.494 731.418 111.297 732.004 109.324C732.59 107.332 733.43 105.623 734.523 104.197C735.637 102.771 736.975 101.668 738.537 100.887C740.119 100.105 741.896 99.7148 743.869 99.7148C745.959 99.7148 747.717 100.096 749.143 100.857C750.588 101.619 751.779 102.703 752.717 104.109C753.674 105.516 754.416 107.186 754.943 109.119C755.49 111.033 755.91 113.143 756.203 115.447V117.117C755.93 119.363 755.49 121.424 754.885 123.299C754.299 125.174 753.518 126.814 752.541 128.221C751.564 129.607 750.354 130.682 748.908 131.443C747.463 132.205 745.764 132.586 743.811 132.586C741.857 132.586 740.1 132.186 738.537 131.385C736.975 130.584 735.637 129.461 734.523 128.016C733.43 126.57 732.59 124.871 732.004 122.918C731.418 120.965 731.125 118.836 731.125 116.531ZM738.859 115.916V116.531C738.859 117.898 738.996 119.178 739.27 120.369C739.543 121.561 739.963 122.615 740.529 123.533C741.096 124.432 741.809 125.135 742.668 125.643C743.527 126.15 744.553 126.404 745.744 126.404C747.346 126.404 748.654 126.072 749.67 125.408C750.705 124.725 751.486 123.797 752.014 122.625C752.561 121.434 752.912 120.096 753.068 118.611V114.012C752.971 112.84 752.756 111.756 752.424 110.76C752.111 109.764 751.672 108.904 751.105 108.182C750.539 107.459 749.816 106.893 748.938 106.482C748.059 106.072 747.014 105.867 745.803 105.867C744.631 105.867 743.605 106.131 742.727 106.658C741.848 107.166 741.125 107.879 740.559 108.797C739.992 109.715 739.562 110.779 739.27 111.99C738.996 113.201 738.859 114.51 738.859 115.916ZM784.006 125.262V110.643C784.006 109.568 783.82 108.641 783.449 107.859C783.078 107.078 782.512 106.473 781.75 106.043C780.988 105.613 780.021 105.398 778.85 105.398C777.814 105.398 776.906 105.574 776.125 105.926C775.363 106.277 774.777 106.775 774.367 107.42C773.957 108.045 773.752 108.768 773.752 109.588H765.988C765.988 108.279 766.301 107.039 766.926 105.867C767.551 104.676 768.439 103.621 769.592 102.703C770.764 101.766 772.16 101.033 773.781 100.506C775.422 99.9785 777.258 99.7148 779.289 99.7148C781.691 99.7148 783.83 100.125 785.705 100.945C787.6 101.746 789.084 102.957 790.158 104.578C791.252 106.199 791.799 108.24 791.799 110.701V124.529C791.799 126.111 791.896 127.469 792.092 128.602C792.307 129.715 792.619 130.682 793.029 131.502V132H785.148C784.777 131.199 784.494 130.184 784.299 128.953C784.104 127.703 784.006 126.473 784.006 125.262ZM785.09 112.693L785.148 117.293H780.256C779.045 117.293 777.98 117.42 777.062 117.674C776.145 117.908 775.393 118.26 774.807 118.729C774.221 119.178 773.781 119.725 773.488 120.369C773.195 120.994 773.049 121.707 773.049 122.508C773.049 123.289 773.225 123.992 773.576 124.617C773.947 125.242 774.475 125.74 775.158 126.111C775.861 126.463 776.682 126.639 777.619 126.639C778.986 126.639 780.178 126.365 781.193 125.818C782.209 125.252 783 124.568 783.566 123.768C784.133 122.967 784.436 122.205 784.475 121.482L786.701 124.822C786.428 125.623 786.018 126.473 785.471 127.371C784.924 128.27 784.221 129.109 783.361 129.891C782.502 130.672 781.467 131.316 780.256 131.824C779.045 132.332 777.639 132.586 776.037 132.586C773.986 132.586 772.15 132.176 770.529 131.355C768.908 130.535 767.629 129.412 766.691 127.986C765.754 126.561 765.285 124.939 765.285 123.123C765.285 121.443 765.598 119.959 766.223 118.67C766.848 117.381 767.775 116.297 769.006 115.418C770.236 114.52 771.76 113.846 773.576 113.396C775.412 112.928 777.512 112.693 779.875 112.693H785.09ZM807.59 124.383L814.533 100.301H819.455L817.99 108.621L810.988 132H806.74L807.59 124.383ZM803.752 100.301L808.967 124.441L809.436 132H804.543L796.223 100.301H803.752ZM825.9 124.09L830.998 100.301H838.498L830.236 132H825.344L825.9 124.09ZM820.217 100.301L827.102 124.148L828.01 132H823.762L816.701 108.621L815.266 100.301H820.217ZM860.529 125.262V110.643C860.529 109.568 860.344 108.641 859.973 107.859C859.602 107.078 859.035 106.473 858.273 106.043C857.512 105.613 856.545 105.398 855.373 105.398C854.338 105.398 853.43 105.574 852.648 105.926C851.887 106.277 851.301 106.775 850.891 107.42C850.48 108.045 850.275 108.768 850.275 109.588H842.512C842.512 108.279 842.824 107.039 843.449 105.867C844.074 104.676 844.963 103.621 846.115 102.703C847.287 101.766 848.684 101.033 850.305 100.506C851.945 99.9785 853.781 99.7148 855.812 99.7148C858.215 99.7148 860.354 100.125 862.229 100.945C864.123 101.746 865.607 102.957 866.682 104.578C867.775 106.199 868.322 108.24 868.322 110.701V124.529C868.322 126.111 868.42 127.469 868.615 128.602C868.83 129.715 869.143 130.682 869.553 131.502V132H861.672C861.301 131.199 861.018 130.184 860.822 128.953C860.627 127.703 860.529 126.473 860.529 125.262ZM861.613 112.693L861.672 117.293H856.779C855.568 117.293 854.504 117.42 853.586 117.674C852.668 117.908 851.916 118.26 851.33 118.729C850.744 119.178 850.305 119.725 850.012 120.369C849.719 120.994 849.572 121.707 849.572 122.508C849.572 123.289 849.748 123.992 850.1 124.617C850.471 125.242 850.998 125.74 851.682 126.111C852.385 126.463 853.205 126.639 854.143 126.639C855.51 126.639 856.701 126.365 857.717 125.818C858.732 125.252 859.523 124.568 860.09 123.768C860.656 122.967 860.959 122.205 860.998 121.482L863.225 124.822C862.951 125.623 862.541 126.473 861.994 127.371C861.447 128.27 860.744 129.109 859.885 129.891C859.025 130.672 857.99 131.316 856.779 131.824C855.568 132.332 854.162 132.586 852.561 132.586C850.51 132.586 848.674 132.176 847.053 131.355C845.432 130.535 844.152 129.412 843.215 127.986C842.277 126.561 841.809 124.939 841.809 123.123C841.809 121.443 842.121 119.959 842.746 118.67C843.371 117.381 844.299 116.297 845.529 115.418C846.76 114.52 848.283 113.846 850.1 113.396C851.936 112.928 854.035 112.693 856.398 112.693H861.613ZM894.338 89.3438H901.311L912.971 121.453L924.602 89.3438H931.604L915.754 132H910.158L894.338 89.3438ZM890.822 89.3438H897.648L898.879 118.846V132H890.822V89.3438ZM928.264 89.3438H935.119V132H927.062V118.846L928.264 89.3438ZM956.975 132.586C954.572 132.586 952.414 132.195 950.5 131.414C948.586 130.633 946.955 129.549 945.607 128.162C944.279 126.756 943.254 125.125 942.531 123.27C941.828 121.395 941.477 119.383 941.477 117.234V116.062C941.477 113.621 941.828 111.404 942.531 109.412C943.234 107.4 944.23 105.672 945.52 104.227C946.809 102.781 948.352 101.668 950.148 100.887C951.945 100.105 953.928 99.7148 956.096 99.7148C958.342 99.7148 960.324 100.096 962.043 100.857C963.762 101.6 965.197 102.654 966.35 104.021C967.502 105.389 968.371 107.029 968.957 108.943C969.543 110.838 969.836 112.938 969.836 115.242V118.494H944.992V113.162H962.219V112.576C962.18 111.346 961.945 110.223 961.516 109.207C961.086 108.172 960.422 107.352 959.523 106.746C958.625 106.121 957.463 105.809 956.037 105.809C954.885 105.809 953.879 106.062 953.02 106.57C952.18 107.059 951.477 107.762 950.91 108.68C950.363 109.578 949.953 110.652 949.68 111.902C949.406 113.152 949.27 114.539 949.27 116.062V117.234C949.27 118.562 949.445 119.793 949.797 120.926C950.168 122.059 950.705 123.045 951.408 123.885C952.131 124.705 952.99 125.35 953.986 125.818C955.002 126.268 956.154 126.492 957.443 126.492C959.064 126.492 960.529 126.18 961.838 125.555C963.166 124.91 964.318 123.963 965.295 122.713L969.191 126.756C968.527 127.732 967.629 128.67 966.496 129.568C965.383 130.467 964.035 131.199 962.453 131.766C960.871 132.312 959.045 132.586 956.975 132.586ZM994.035 125.262V87H1001.83V132H994.797L994.035 125.262ZM973.674 116.531V115.916C973.674 113.494 973.947 111.297 974.494 109.324C975.061 107.332 975.881 105.623 976.955 104.197C978.029 102.771 979.328 101.668 980.852 100.887C982.395 100.105 984.143 99.7148 986.096 99.7148C987.99 99.7148 989.641 100.096 991.047 100.857C992.473 101.619 993.684 102.703 994.68 104.109C995.695 105.516 996.506 107.186 997.111 109.119C997.717 111.033 998.156 113.143 998.43 115.447V117.117C998.156 119.363 997.717 121.424 997.111 123.299C996.506 125.174 995.695 126.814 994.68 128.221C993.684 129.607 992.473 130.682 991.047 131.443C989.621 132.205 987.951 132.586 986.037 132.586C984.104 132.586 982.365 132.186 980.822 131.385C979.299 130.584 978 129.461 976.926 128.016C975.871 126.57 975.061 124.871 974.494 122.918C973.947 120.965 973.674 118.836 973.674 116.531ZM981.438 115.916V116.531C981.438 117.898 981.555 119.178 981.789 120.369C982.023 121.561 982.404 122.615 982.932 123.533C983.459 124.432 984.133 125.135 984.953 125.643C985.793 126.15 986.809 126.404 988 126.404C989.523 126.404 990.773 126.072 991.75 125.408C992.746 124.725 993.518 123.797 994.064 122.625C994.611 121.434 994.963 120.096 995.119 118.611V114.012C995.041 112.84 994.836 111.756 994.504 110.76C994.191 109.764 993.742 108.904 993.156 108.182C992.59 107.459 991.887 106.893 991.047 106.482C990.207 106.072 989.211 105.867 988.059 105.867C986.867 105.867 985.852 106.131 985.012 106.658C984.172 107.166 983.488 107.879 982.961 108.797C982.434 109.715 982.043 110.779 981.789 111.99C981.555 113.201 981.438 114.51 981.438 115.916ZM1017.03 100.301V132H1009.27V100.301H1017.03ZM1008.74 92.0098C1008.74 90.8574 1009.13 89.9004 1009.91 89.1387C1010.71 88.377 1011.79 87.9961 1013.14 87.9961C1014.48 87.9961 1015.55 88.377 1016.33 89.1387C1017.13 89.9004 1017.53 90.8574 1017.53 92.0098C1017.53 93.1426 1017.13 94.0898 1016.33 94.8516C1015.55 95.6133 1014.48 95.9941 1013.14 95.9941C1011.79 95.9941 1010.71 95.6133 1009.91 94.8516C1009.13 94.0898 1008.74 93.1426 1008.74 92.0098ZM1041.88 125.262V110.643C1041.88 109.568 1041.69 108.641 1041.32 107.859C1040.95 107.078 1040.38 106.473 1039.62 106.043C1038.86 105.613 1037.89 105.398 1036.72 105.398C1035.69 105.398 1034.78 105.574 1034 105.926C1033.23 106.277 1032.65 106.775 1032.24 107.42C1031.83 108.045 1031.62 108.768 1031.62 109.588H1023.86C1023.86 108.279 1024.17 107.039 1024.8 105.867C1025.42 104.676 1026.31 103.621 1027.46 102.703C1028.63 101.766 1030.03 101.033 1031.65 100.506C1033.29 99.9785 1035.13 99.7148 1037.16 99.7148C1039.56 99.7148 1041.7 100.125 1043.58 100.945C1045.47 101.746 1046.96 102.957 1048.03 104.578C1049.12 106.199 1049.67 108.24 1049.67 110.701V124.529C1049.67 126.111 1049.77 127.469 1049.96 128.602C1050.18 129.715 1050.49 130.682 1050.9 131.502V132H1043.02C1042.65 131.199 1042.37 130.184 1042.17 128.953C1041.97 127.703 1041.88 126.473 1041.88 125.262ZM1042.96 112.693L1043.02 117.293H1038.13C1036.92 117.293 1035.85 117.42 1034.93 117.674C1034.02 117.908 1033.26 118.26 1032.68 118.729C1032.09 119.178 1031.65 119.725 1031.36 120.369C1031.07 120.994 1030.92 121.707 1030.92 122.508C1030.92 123.289 1031.1 123.992 1031.45 124.617C1031.82 125.242 1032.35 125.74 1033.03 126.111C1033.73 126.463 1034.55 126.639 1035.49 126.639C1036.86 126.639 1038.05 126.365 1039.06 125.818C1040.08 125.252 1040.87 124.568 1041.44 123.768C1042 122.967 1042.31 122.205 1042.35 121.482L1044.57 124.822C1044.3 125.623 1043.89 126.473 1043.34 127.371C1042.79 128.27 1042.09 129.109 1041.23 129.891C1040.37 130.672 1039.34 131.316 1038.13 131.824C1036.92 132.332 1035.51 132.586 1033.91 132.586C1031.86 132.586 1030.02 132.176 1028.4 131.355C1026.78 130.535 1025.5 129.412 1024.56 127.986C1023.62 126.561 1023.16 124.939 1023.16 123.123C1023.16 121.443 1023.47 119.959 1024.09 118.67C1024.72 117.381 1025.65 116.297 1026.88 115.418C1028.11 114.52 1029.63 113.846 1031.45 113.396C1033.28 112.928 1035.38 112.693 1037.75 112.693H1042.96Z" fill="white"/>
<path d="M376.418 162.094H379.48L385.236 177.447L390.979 162.094H394.041L386.439 182H384.006L376.418 162.094ZM375.023 162.094H377.936L378.441 175.383V182H375.023V162.094ZM392.523 162.094H395.449V182H392.018V175.383L392.523 162.094ZM405.717 182.273C404.623 182.273 403.634 182.096 402.75 181.74C401.875 181.376 401.128 180.87 400.508 180.223C399.897 179.576 399.428 178.814 399.1 177.939C398.771 177.064 398.607 176.121 398.607 175.109V174.562C398.607 173.405 398.776 172.357 399.113 171.418C399.451 170.479 399.92 169.677 400.521 169.012C401.123 168.337 401.834 167.822 402.654 167.467C403.475 167.111 404.363 166.934 405.32 166.934C406.378 166.934 407.303 167.111 408.096 167.467C408.889 167.822 409.545 168.324 410.064 168.971C410.593 169.609 410.985 170.37 411.24 171.254C411.505 172.138 411.637 173.113 411.637 174.18V175.588H400.207V173.223H408.383V172.963C408.365 172.37 408.246 171.814 408.027 171.295C407.818 170.775 407.494 170.356 407.057 170.037C406.619 169.718 406.036 169.559 405.307 169.559C404.76 169.559 404.272 169.677 403.844 169.914C403.424 170.142 403.074 170.475 402.791 170.912C402.508 171.35 402.29 171.878 402.135 172.498C401.989 173.109 401.916 173.797 401.916 174.562V175.109C401.916 175.757 402.003 176.358 402.176 176.914C402.358 177.461 402.622 177.939 402.969 178.35C403.315 178.76 403.734 179.083 404.227 179.32C404.719 179.548 405.279 179.662 405.908 179.662C406.701 179.662 407.408 179.503 408.027 179.184C408.647 178.865 409.185 178.413 409.641 177.83L411.377 179.512C411.058 179.977 410.643 180.423 410.133 180.852C409.622 181.271 408.998 181.613 408.26 181.877C407.531 182.141 406.683 182.273 405.717 182.273ZM417.502 170.215V182H414.207V167.207H417.311L417.502 170.215ZM416.969 174.057L415.848 174.043C415.848 173.022 415.975 172.079 416.23 171.213C416.486 170.347 416.859 169.595 417.352 168.957C417.844 168.31 418.454 167.813 419.184 167.467C419.922 167.111 420.774 166.934 421.74 166.934C422.415 166.934 423.03 167.034 423.586 167.234C424.151 167.426 424.639 167.731 425.049 168.15C425.468 168.57 425.787 169.107 426.006 169.764C426.234 170.42 426.348 171.213 426.348 172.143V182H423.053V172.43C423.053 171.71 422.943 171.145 422.725 170.734C422.515 170.324 422.21 170.033 421.809 169.859C421.417 169.677 420.947 169.586 420.4 169.586C419.781 169.586 419.252 169.704 418.814 169.941C418.386 170.178 418.035 170.502 417.762 170.912C417.488 171.322 417.288 171.796 417.16 172.334C417.033 172.872 416.969 173.446 416.969 174.057ZM426.143 173.182L424.598 173.523C424.598 172.63 424.721 171.787 424.967 170.994C425.222 170.192 425.591 169.49 426.074 168.889C426.566 168.278 427.173 167.799 427.893 167.453C428.613 167.107 429.438 166.934 430.367 166.934C431.124 166.934 431.798 167.038 432.391 167.248C432.992 167.449 433.503 167.768 433.922 168.205C434.341 168.643 434.66 169.212 434.879 169.914C435.098 170.607 435.207 171.445 435.207 172.43V182H431.898V172.416C431.898 171.669 431.789 171.09 431.57 170.68C431.361 170.27 431.06 169.987 430.668 169.832C430.276 169.668 429.807 169.586 429.26 169.586C428.749 169.586 428.298 169.682 427.906 169.873C427.523 170.055 427.2 170.315 426.936 170.652C426.671 170.98 426.471 171.359 426.334 171.787C426.206 172.215 426.143 172.68 426.143 173.182ZM438.611 161H441.906V178.842L441.592 182H438.611V161ZM451.559 174.467V174.754C451.559 175.848 451.436 176.855 451.189 177.775C450.952 178.687 450.588 179.48 450.096 180.154C449.613 180.829 449.011 181.353 448.291 181.727C447.58 182.091 446.755 182.273 445.816 182.273C444.896 182.273 444.094 182.1 443.41 181.754C442.727 181.408 442.152 180.915 441.688 180.277C441.232 179.639 440.863 178.878 440.58 177.994C440.298 177.11 440.097 176.135 439.979 175.068V174.152C440.097 173.077 440.298 172.102 440.58 171.227C440.863 170.342 441.232 169.581 441.688 168.943C442.152 168.296 442.722 167.799 443.396 167.453C444.08 167.107 444.878 166.934 445.789 166.934C446.737 166.934 447.571 167.116 448.291 167.48C449.02 167.845 449.626 168.365 450.109 169.039C450.592 169.704 450.952 170.497 451.189 171.418C451.436 172.339 451.559 173.355 451.559 174.467ZM448.264 174.754V174.467C448.264 173.801 448.209 173.177 448.1 172.594C447.99 172.001 447.808 171.482 447.553 171.035C447.307 170.589 446.969 170.238 446.541 169.982C446.122 169.718 445.598 169.586 444.969 169.586C444.385 169.586 443.884 169.686 443.465 169.887C443.046 170.087 442.695 170.361 442.412 170.707C442.13 171.053 441.906 171.454 441.742 171.91C441.587 172.366 441.482 172.858 441.428 173.387V175.861C441.51 176.545 441.683 177.174 441.947 177.748C442.221 178.313 442.604 178.769 443.096 179.115C443.588 179.452 444.221 179.621 444.996 179.621C445.607 179.621 446.122 179.498 446.541 179.252C446.96 179.006 447.293 178.664 447.539 178.227C447.794 177.78 447.977 177.26 448.086 176.668C448.204 176.076 448.264 175.438 448.264 174.754ZM462.688 179.033V171.979C462.688 171.45 462.592 170.994 462.4 170.611C462.209 170.229 461.917 169.932 461.525 169.723C461.143 169.513 460.66 169.408 460.076 169.408C459.538 169.408 459.074 169.499 458.682 169.682C458.29 169.864 457.984 170.11 457.766 170.42C457.547 170.73 457.438 171.081 457.438 171.473H454.156C454.156 170.889 454.298 170.324 454.58 169.777C454.863 169.23 455.273 168.743 455.811 168.314C456.348 167.886 456.991 167.549 457.738 167.303C458.486 167.057 459.324 166.934 460.254 166.934C461.366 166.934 462.35 167.12 463.207 167.494C464.073 167.868 464.752 168.433 465.244 169.189C465.745 169.937 465.996 170.876 465.996 172.006V178.582C465.996 179.257 466.042 179.863 466.133 180.4C466.233 180.929 466.374 181.389 466.557 181.781V182H463.18C463.025 181.645 462.902 181.193 462.811 180.646C462.729 180.09 462.688 179.553 462.688 179.033ZM463.166 173.004L463.193 175.041H460.828C460.217 175.041 459.68 175.1 459.215 175.219C458.75 175.328 458.363 175.492 458.053 175.711C457.743 175.93 457.51 176.194 457.355 176.504C457.201 176.814 457.123 177.165 457.123 177.557C457.123 177.949 457.214 178.309 457.396 178.637C457.579 178.956 457.843 179.206 458.189 179.389C458.545 179.571 458.973 179.662 459.475 179.662C460.149 179.662 460.737 179.525 461.238 179.252C461.749 178.969 462.15 178.628 462.441 178.227C462.733 177.816 462.888 177.429 462.906 177.064L463.973 178.527C463.863 178.901 463.676 179.302 463.412 179.73C463.148 180.159 462.801 180.569 462.373 180.961C461.954 181.344 461.448 181.658 460.855 181.904C460.272 182.15 459.598 182.273 458.832 182.273C457.866 182.273 457.005 182.082 456.248 181.699C455.492 181.307 454.899 180.783 454.471 180.127C454.042 179.462 453.828 178.71 453.828 177.871C453.828 177.087 453.974 176.395 454.266 175.793C454.566 175.182 455.004 174.672 455.578 174.262C456.161 173.852 456.872 173.542 457.711 173.332C458.549 173.113 459.507 173.004 460.582 173.004H463.166ZM472.709 170.365V182H469.414V167.207H472.518L472.709 170.365ZM472.121 174.057L471.055 174.043C471.064 172.995 471.21 172.033 471.492 171.158C471.784 170.283 472.185 169.531 472.695 168.902C473.215 168.273 473.835 167.79 474.555 167.453C475.275 167.107 476.077 166.934 476.961 166.934C477.672 166.934 478.314 167.034 478.889 167.234C479.472 167.426 479.969 167.74 480.379 168.178C480.798 168.615 481.117 169.185 481.336 169.887C481.555 170.579 481.664 171.432 481.664 172.443V182H478.355V172.43C478.355 171.719 478.251 171.158 478.041 170.748C477.84 170.329 477.544 170.033 477.152 169.859C476.77 169.677 476.291 169.586 475.717 169.586C475.152 169.586 474.646 169.704 474.199 169.941C473.753 170.178 473.374 170.502 473.064 170.912C472.764 171.322 472.531 171.796 472.367 172.334C472.203 172.872 472.121 173.446 472.121 174.057ZM494.502 167.207H497.496V181.59C497.496 182.921 497.214 184.051 496.648 184.98C496.083 185.91 495.295 186.617 494.283 187.1C493.271 187.592 492.1 187.838 490.77 187.838C490.204 187.838 489.576 187.756 488.883 187.592C488.199 187.428 487.534 187.163 486.887 186.799C486.249 186.443 485.715 185.974 485.287 185.391L486.832 183.449C487.361 184.078 487.944 184.538 488.582 184.83C489.22 185.122 489.89 185.268 490.592 185.268C491.348 185.268 491.991 185.126 492.52 184.844C493.057 184.57 493.472 184.165 493.764 183.627C494.055 183.089 494.201 182.433 494.201 181.658V170.557L494.502 167.207ZM484.453 174.768V174.48C484.453 173.359 484.59 172.339 484.863 171.418C485.137 170.488 485.529 169.691 486.039 169.025C486.549 168.351 487.169 167.836 487.898 167.48C488.628 167.116 489.452 166.934 490.373 166.934C491.33 166.934 492.146 167.107 492.82 167.453C493.504 167.799 494.074 168.296 494.529 168.943C494.985 169.581 495.34 170.347 495.596 171.24C495.86 172.124 496.056 173.109 496.184 174.193V175.109C496.065 176.167 495.865 177.133 495.582 178.008C495.299 178.883 494.926 179.639 494.461 180.277C493.996 180.915 493.422 181.408 492.738 181.754C492.064 182.1 491.266 182.273 490.346 182.273C489.443 182.273 488.628 182.087 487.898 181.713C487.178 181.339 486.559 180.815 486.039 180.141C485.529 179.466 485.137 178.673 484.863 177.762C484.59 176.841 484.453 175.843 484.453 174.768ZM487.748 174.48V174.768C487.748 175.442 487.812 176.071 487.939 176.654C488.076 177.238 488.281 177.753 488.555 178.199C488.837 178.637 489.193 178.983 489.621 179.238C490.059 179.484 490.574 179.607 491.166 179.607C491.941 179.607 492.574 179.443 493.066 179.115C493.568 178.787 493.951 178.345 494.215 177.789C494.488 177.224 494.68 176.595 494.789 175.902V173.428C494.734 172.89 494.62 172.389 494.447 171.924C494.283 171.459 494.06 171.053 493.777 170.707C493.495 170.352 493.139 170.078 492.711 169.887C492.283 169.686 491.777 169.586 491.193 169.586C490.601 169.586 490.086 169.714 489.648 169.969C489.211 170.224 488.851 170.575 488.568 171.021C488.295 171.468 488.09 171.988 487.953 172.58C487.816 173.173 487.748 173.806 487.748 174.48ZM509.814 178.514V167.207H513.123V182H510.006L509.814 178.514ZM510.279 175.438L511.387 175.41C511.387 176.404 511.277 177.32 511.059 178.158C510.84 178.988 510.503 179.712 510.047 180.332C509.591 180.943 509.008 181.421 508.297 181.768C507.586 182.105 506.734 182.273 505.74 182.273C505.02 182.273 504.359 182.169 503.758 181.959C503.156 181.749 502.637 181.426 502.199 180.988C501.771 180.551 501.438 179.981 501.201 179.279C500.964 178.577 500.846 177.739 500.846 176.764V167.207H504.141V176.791C504.141 177.329 504.204 177.78 504.332 178.145C504.46 178.5 504.633 178.787 504.852 179.006C505.07 179.225 505.326 179.38 505.617 179.471C505.909 179.562 506.219 179.607 506.547 179.607C507.486 179.607 508.224 179.425 508.762 179.061C509.309 178.687 509.696 178.186 509.924 177.557C510.161 176.928 510.279 176.221 510.279 175.438ZM519.768 170.365V182H516.473V167.207H519.576L519.768 170.365ZM519.18 174.057L518.113 174.043C518.122 172.995 518.268 172.033 518.551 171.158C518.842 170.283 519.243 169.531 519.754 168.902C520.273 168.273 520.893 167.79 521.613 167.453C522.333 167.107 523.135 166.934 524.02 166.934C524.73 166.934 525.373 167.034 525.947 167.234C526.531 167.426 527.027 167.74 527.438 168.178C527.857 168.615 528.176 169.185 528.395 169.887C528.613 170.579 528.723 171.432 528.723 172.443V182H525.414V172.43C525.414 171.719 525.309 171.158 525.1 170.748C524.899 170.329 524.603 170.033 524.211 169.859C523.828 169.677 523.35 169.586 522.775 169.586C522.21 169.586 521.704 169.704 521.258 169.941C520.811 170.178 520.433 170.502 520.123 170.912C519.822 171.322 519.59 171.796 519.426 172.334C519.262 172.872 519.18 173.446 519.18 174.057ZM547.357 177.994C547.357 177.666 547.275 177.37 547.111 177.105C546.947 176.832 546.633 176.586 546.168 176.367C545.712 176.148 545.038 175.948 544.145 175.766C543.361 175.592 542.641 175.387 541.984 175.15C541.337 174.904 540.781 174.608 540.316 174.262C539.852 173.915 539.492 173.505 539.236 173.031C538.981 172.557 538.854 172.01 538.854 171.391C538.854 170.789 538.986 170.219 539.25 169.682C539.514 169.144 539.893 168.67 540.385 168.26C540.877 167.85 541.474 167.526 542.176 167.289C542.887 167.052 543.68 166.934 544.555 166.934C545.794 166.934 546.856 167.143 547.74 167.562C548.633 167.973 549.317 168.533 549.791 169.244C550.265 169.946 550.502 170.739 550.502 171.623H547.207C547.207 171.231 547.107 170.867 546.906 170.529C546.715 170.183 546.423 169.905 546.031 169.695C545.639 169.477 545.147 169.367 544.555 169.367C543.99 169.367 543.52 169.458 543.146 169.641C542.782 169.814 542.508 170.042 542.326 170.324C542.153 170.607 542.066 170.917 542.066 171.254C542.066 171.5 542.112 171.723 542.203 171.924C542.303 172.115 542.467 172.293 542.695 172.457C542.923 172.612 543.233 172.758 543.625 172.895C544.026 173.031 544.527 173.163 545.129 173.291C546.259 173.528 547.23 173.833 548.041 174.207C548.861 174.572 549.49 175.046 549.928 175.629C550.365 176.203 550.584 176.932 550.584 177.816C550.584 178.473 550.443 179.074 550.16 179.621C549.887 180.159 549.486 180.628 548.957 181.029C548.428 181.421 547.795 181.727 547.057 181.945C546.327 182.164 545.507 182.273 544.596 182.273C543.256 182.273 542.121 182.036 541.191 181.562C540.262 181.079 539.555 180.464 539.072 179.717C538.598 178.96 538.361 178.176 538.361 177.365H541.547C541.583 177.976 541.752 178.464 542.053 178.828C542.363 179.184 542.745 179.443 543.201 179.607C543.666 179.762 544.145 179.84 544.637 179.84C545.229 179.84 545.726 179.762 546.127 179.607C546.528 179.443 546.833 179.225 547.043 178.951C547.253 178.669 547.357 178.35 547.357 177.994ZM552.84 174.768V174.453C552.84 173.387 552.995 172.398 553.305 171.486C553.615 170.566 554.061 169.768 554.645 169.094C555.237 168.41 555.957 167.882 556.805 167.508C557.661 167.125 558.628 166.934 559.703 166.934C560.788 166.934 561.754 167.125 562.602 167.508C563.458 167.882 564.183 168.41 564.775 169.094C565.368 169.768 565.819 170.566 566.129 171.486C566.439 172.398 566.594 173.387 566.594 174.453V174.768C566.594 175.834 566.439 176.823 566.129 177.734C565.819 178.646 565.368 179.443 564.775 180.127C564.183 180.801 563.463 181.33 562.615 181.713C561.768 182.087 560.806 182.273 559.73 182.273C558.646 182.273 557.675 182.087 556.818 181.713C555.971 181.33 555.251 180.801 554.658 180.127C554.066 179.443 553.615 178.646 553.305 177.734C552.995 176.823 552.84 175.834 552.84 174.768ZM556.135 174.453V174.768C556.135 175.433 556.203 176.062 556.34 176.654C556.477 177.247 556.691 177.766 556.982 178.213C557.274 178.66 557.648 179.01 558.104 179.266C558.559 179.521 559.102 179.648 559.73 179.648C560.341 179.648 560.87 179.521 561.316 179.266C561.772 179.01 562.146 178.66 562.438 178.213C562.729 177.766 562.943 177.247 563.08 176.654C563.226 176.062 563.299 175.433 563.299 174.768V174.453C563.299 173.797 563.226 173.177 563.08 172.594C562.943 172.001 562.725 171.477 562.424 171.021C562.132 170.566 561.758 170.21 561.303 169.955C560.856 169.691 560.323 169.559 559.703 169.559C559.083 169.559 558.546 169.691 558.09 169.955C557.643 170.21 557.274 170.566 556.982 171.021C556.691 171.477 556.477 172.001 556.34 172.594C556.203 173.177 556.135 173.797 556.135 174.453ZM572.883 161V182H569.574V161H572.883ZM585.393 178.514V167.207H588.701V182H585.584L585.393 178.514ZM585.857 175.438L586.965 175.41C586.965 176.404 586.855 177.32 586.637 178.158C586.418 178.988 586.081 179.712 585.625 180.332C585.169 180.943 584.586 181.421 583.875 181.768C583.164 182.105 582.312 182.273 581.318 182.273C580.598 182.273 579.938 182.169 579.336 181.959C578.734 181.749 578.215 181.426 577.777 180.988C577.349 180.551 577.016 179.981 576.779 179.279C576.542 178.577 576.424 177.739 576.424 176.764V167.207H579.719V176.791C579.719 177.329 579.783 177.78 579.91 178.145C580.038 178.5 580.211 178.787 580.43 179.006C580.648 179.225 580.904 179.38 581.195 179.471C581.487 179.562 581.797 179.607 582.125 179.607C583.064 179.607 583.802 179.425 584.34 179.061C584.887 178.687 585.274 178.186 585.502 177.557C585.739 176.928 585.857 176.221 585.857 175.438ZM600.377 177.994C600.377 177.666 600.295 177.37 600.131 177.105C599.967 176.832 599.652 176.586 599.188 176.367C598.732 176.148 598.057 175.948 597.164 175.766C596.38 175.592 595.66 175.387 595.004 175.15C594.357 174.904 593.801 174.608 593.336 174.262C592.871 173.915 592.511 173.505 592.256 173.031C592.001 172.557 591.873 172.01 591.873 171.391C591.873 170.789 592.005 170.219 592.27 169.682C592.534 169.144 592.912 168.67 593.404 168.26C593.896 167.85 594.493 167.526 595.195 167.289C595.906 167.052 596.699 166.934 597.574 166.934C598.814 166.934 599.876 167.143 600.76 167.562C601.653 167.973 602.337 168.533 602.811 169.244C603.285 169.946 603.521 170.739 603.521 171.623H600.227C600.227 171.231 600.126 170.867 599.926 170.529C599.734 170.183 599.443 169.905 599.051 169.695C598.659 169.477 598.167 169.367 597.574 169.367C597.009 169.367 596.54 169.458 596.166 169.641C595.801 169.814 595.528 170.042 595.346 170.324C595.173 170.607 595.086 170.917 595.086 171.254C595.086 171.5 595.132 171.723 595.223 171.924C595.323 172.115 595.487 172.293 595.715 172.457C595.943 172.612 596.253 172.758 596.645 172.895C597.046 173.031 597.547 173.163 598.148 173.291C599.279 173.528 600.249 173.833 601.061 174.207C601.881 174.572 602.51 175.046 602.947 175.629C603.385 176.203 603.604 176.932 603.604 177.816C603.604 178.473 603.462 179.074 603.18 179.621C602.906 180.159 602.505 180.628 601.977 181.029C601.448 181.421 600.814 181.727 600.076 181.945C599.347 182.164 598.527 182.273 597.615 182.273C596.275 182.273 595.141 182.036 594.211 181.562C593.281 181.079 592.575 180.464 592.092 179.717C591.618 178.96 591.381 178.176 591.381 177.365H594.566C594.603 177.976 594.771 178.464 595.072 178.828C595.382 179.184 595.765 179.443 596.221 179.607C596.686 179.762 597.164 179.84 597.656 179.84C598.249 179.84 598.745 179.762 599.146 179.607C599.548 179.443 599.853 179.225 600.062 178.951C600.272 178.669 600.377 178.35 600.377 177.994ZM610.016 167.207V182H606.707V167.207H610.016ZM606.488 163.324C606.488 162.823 606.652 162.408 606.98 162.08C607.318 161.743 607.783 161.574 608.375 161.574C608.958 161.574 609.419 161.743 609.756 162.08C610.093 162.408 610.262 162.823 610.262 163.324C610.262 163.816 610.093 164.227 609.756 164.555C609.419 164.883 608.958 165.047 608.375 165.047C607.783 165.047 607.318 164.883 606.98 164.555C606.652 164.227 606.488 163.816 606.488 163.324ZM629.621 178.938V161H632.93V182H629.936L629.621 178.938ZM619.996 174.768V174.48C619.996 173.359 620.128 172.339 620.393 171.418C620.657 170.488 621.04 169.691 621.541 169.025C622.042 168.351 622.653 167.836 623.373 167.48C624.093 167.116 624.904 166.934 625.807 166.934C626.7 166.934 627.484 167.107 628.158 167.453C628.833 167.799 629.407 168.296 629.881 168.943C630.355 169.581 630.733 170.347 631.016 171.24C631.298 172.124 631.499 173.109 631.617 174.193V175.109C631.499 176.167 631.298 177.133 631.016 178.008C630.733 178.883 630.355 179.639 629.881 180.277C629.407 180.915 628.828 181.408 628.145 181.754C627.47 182.1 626.682 182.273 625.779 182.273C624.886 182.273 624.079 182.087 623.359 181.713C622.648 181.339 622.042 180.815 621.541 180.141C621.04 179.466 620.657 178.673 620.393 177.762C620.128 176.841 619.996 175.843 619.996 174.768ZM623.291 174.48V174.768C623.291 175.442 623.35 176.071 623.469 176.654C623.596 177.238 623.792 177.753 624.057 178.199C624.321 178.637 624.663 178.983 625.082 179.238C625.51 179.484 626.021 179.607 626.613 179.607C627.361 179.607 627.976 179.443 628.459 179.115C628.942 178.787 629.32 178.345 629.594 177.789C629.876 177.224 630.068 176.595 630.168 175.902V173.428C630.113 172.89 629.999 172.389 629.826 171.924C629.662 171.459 629.439 171.053 629.156 170.707C628.874 170.352 628.523 170.078 628.104 169.887C627.693 169.686 627.206 169.586 626.641 169.586C626.039 169.586 625.529 169.714 625.109 169.969C624.69 170.224 624.344 170.575 624.07 171.021C623.806 171.468 623.61 171.988 623.482 172.58C623.355 173.173 623.291 173.806 623.291 174.48ZM639.902 167.207V182H636.594V167.207H639.902ZM636.375 163.324C636.375 162.823 636.539 162.408 636.867 162.08C637.204 161.743 637.669 161.574 638.262 161.574C638.845 161.574 639.305 161.743 639.643 162.08C639.98 162.408 640.148 162.823 640.148 163.324C640.148 163.816 639.98 164.227 639.643 164.555C639.305 164.883 638.845 165.047 638.262 165.047C637.669 165.047 637.204 164.883 636.867 164.555C636.539 164.227 636.375 163.816 636.375 163.324ZM652.986 167.207H655.98V181.59C655.98 182.921 655.698 184.051 655.133 184.98C654.568 185.91 653.779 186.617 652.768 187.1C651.756 187.592 650.585 187.838 649.254 187.838C648.689 187.838 648.06 187.756 647.367 187.592C646.684 187.428 646.018 187.163 645.371 186.799C644.733 186.443 644.2 185.974 643.771 185.391L645.316 183.449C645.845 184.078 646.428 184.538 647.066 184.83C647.704 185.122 648.374 185.268 649.076 185.268C649.833 185.268 650.475 185.126 651.004 184.844C651.542 184.57 651.956 184.165 652.248 183.627C652.54 183.089 652.686 182.433 652.686 181.658V170.557L652.986 167.207ZM642.938 174.768V174.48C642.938 173.359 643.074 172.339 643.348 171.418C643.621 170.488 644.013 169.691 644.523 169.025C645.034 168.351 645.654 167.836 646.383 167.48C647.112 167.116 647.937 166.934 648.857 166.934C649.814 166.934 650.63 167.107 651.305 167.453C651.988 167.799 652.558 168.296 653.014 168.943C653.469 169.581 653.825 170.347 654.08 171.24C654.344 172.124 654.54 173.109 654.668 174.193V175.109C654.549 176.167 654.349 177.133 654.066 178.008C653.784 178.883 653.41 179.639 652.945 180.277C652.48 180.915 651.906 181.408 651.223 181.754C650.548 182.1 649.751 182.273 648.83 182.273C647.928 182.273 647.112 182.087 646.383 181.713C645.663 181.339 645.043 180.815 644.523 180.141C644.013 179.466 643.621 178.673 643.348 177.762C643.074 176.841 642.938 175.843 642.938 174.768ZM646.232 174.48V174.768C646.232 175.442 646.296 176.071 646.424 176.654C646.561 177.238 646.766 177.753 647.039 178.199C647.322 178.637 647.677 178.983 648.105 179.238C648.543 179.484 649.058 179.607 649.65 179.607C650.425 179.607 651.059 179.443 651.551 179.115C652.052 178.787 652.435 178.345 652.699 177.789C652.973 177.224 653.164 176.595 653.273 175.902V173.428C653.219 172.89 653.105 172.389 652.932 171.924C652.768 171.459 652.544 171.053 652.262 170.707C651.979 170.352 651.624 170.078 651.195 169.887C650.767 169.686 650.261 169.586 649.678 169.586C649.085 169.586 648.57 169.714 648.133 169.969C647.695 170.224 647.335 170.575 647.053 171.021C646.779 171.468 646.574 171.988 646.438 172.58C646.301 173.173 646.232 173.806 646.232 174.48ZM662.926 167.207V182H659.617V167.207H662.926ZM659.398 163.324C659.398 162.823 659.562 162.408 659.891 162.08C660.228 161.743 660.693 161.574 661.285 161.574C661.868 161.574 662.329 161.743 662.666 162.08C663.003 162.408 663.172 162.823 663.172 163.324C663.172 163.816 663.003 164.227 662.666 164.555C662.329 164.883 661.868 165.047 661.285 165.047C660.693 165.047 660.228 164.883 659.891 164.555C659.562 164.227 659.398 163.816 659.398 163.324ZM673.316 167.207V169.613H664.977V167.207H673.316ZM667.383 163.584H670.678V177.912C670.678 178.368 670.742 178.719 670.869 178.965C671.006 179.202 671.193 179.361 671.43 179.443C671.667 179.525 671.945 179.566 672.264 179.566C672.492 179.566 672.71 179.553 672.92 179.525C673.13 179.498 673.298 179.471 673.426 179.443L673.439 181.959C673.166 182.041 672.847 182.114 672.482 182.178C672.127 182.242 671.717 182.273 671.252 182.273C670.495 182.273 669.826 182.141 669.242 181.877C668.659 181.604 668.203 181.161 667.875 180.551C667.547 179.94 667.383 179.129 667.383 178.117V163.584ZM684.199 179.033V171.979C684.199 171.45 684.104 170.994 683.912 170.611C683.721 170.229 683.429 169.932 683.037 169.723C682.654 169.513 682.171 169.408 681.588 169.408C681.05 169.408 680.585 169.499 680.193 169.682C679.801 169.864 679.496 170.11 679.277 170.42C679.059 170.73 678.949 171.081 678.949 171.473H675.668C675.668 170.889 675.809 170.324 676.092 169.777C676.374 169.23 676.785 168.743 677.322 168.314C677.86 167.886 678.503 167.549 679.25 167.303C679.997 167.057 680.836 166.934 681.766 166.934C682.878 166.934 683.862 167.12 684.719 167.494C685.585 167.868 686.264 168.433 686.756 169.189C687.257 169.937 687.508 170.876 687.508 172.006V178.582C687.508 179.257 687.553 179.863 687.645 180.4C687.745 180.929 687.886 181.389 688.068 181.781V182H684.691C684.536 181.645 684.413 181.193 684.322 180.646C684.24 180.09 684.199 179.553 684.199 179.033ZM684.678 173.004L684.705 175.041H682.34C681.729 175.041 681.191 175.1 680.727 175.219C680.262 175.328 679.874 175.492 679.564 175.711C679.255 175.93 679.022 176.194 678.867 176.504C678.712 176.814 678.635 177.165 678.635 177.557C678.635 177.949 678.726 178.309 678.908 178.637C679.09 178.956 679.355 179.206 679.701 179.389C680.057 179.571 680.485 179.662 680.986 179.662C681.661 179.662 682.249 179.525 682.75 179.252C683.26 178.969 683.661 178.628 683.953 178.227C684.245 177.816 684.4 177.429 684.418 177.064L685.484 178.527C685.375 178.901 685.188 179.302 684.924 179.73C684.66 180.159 684.313 180.569 683.885 180.961C683.465 181.344 682.96 181.658 682.367 181.904C681.784 182.15 681.109 182.273 680.344 182.273C679.378 182.273 678.516 182.082 677.76 181.699C677.003 181.307 676.411 180.783 675.982 180.127C675.554 179.462 675.34 178.71 675.34 177.871C675.34 177.087 675.486 176.395 675.777 175.793C676.078 175.182 676.516 174.672 677.09 174.262C677.673 173.852 678.384 173.542 679.223 173.332C680.061 173.113 681.018 173.004 682.094 173.004H684.678ZM694.48 161V182H691.172V161H694.48ZM700.113 179.416V181.33C700.113 182.169 699.94 182.975 699.594 183.75C699.247 184.534 698.778 185.195 698.186 185.732L697.229 185.021C697.511 184.639 697.748 184.256 697.939 183.873C698.131 183.499 698.272 183.107 698.363 182.697C698.464 182.287 698.514 181.845 698.514 181.371V179.416H700.113ZM713.607 170.215V182H710.312V167.207H713.416L713.607 170.215ZM713.074 174.057L711.953 174.043C711.953 173.022 712.081 172.079 712.336 171.213C712.591 170.347 712.965 169.595 713.457 168.957C713.949 168.31 714.56 167.813 715.289 167.467C716.027 167.111 716.88 166.934 717.846 166.934C718.52 166.934 719.135 167.034 719.691 167.234C720.257 167.426 720.744 167.731 721.154 168.15C721.574 168.57 721.893 169.107 722.111 169.764C722.339 170.42 722.453 171.213 722.453 172.143V182H719.158V172.43C719.158 171.71 719.049 171.145 718.83 170.734C718.62 170.324 718.315 170.033 717.914 169.859C717.522 169.677 717.053 169.586 716.506 169.586C715.886 169.586 715.357 169.704 714.92 169.941C714.492 170.178 714.141 170.502 713.867 170.912C713.594 171.322 713.393 171.796 713.266 172.334C713.138 172.872 713.074 173.446 713.074 174.057ZM722.248 173.182L720.703 173.523C720.703 172.63 720.826 171.787 721.072 170.994C721.327 170.192 721.697 169.49 722.18 168.889C722.672 168.278 723.278 167.799 723.998 167.453C724.718 167.107 725.543 166.934 726.473 166.934C727.229 166.934 727.904 167.038 728.496 167.248C729.098 167.449 729.608 167.768 730.027 168.205C730.447 168.643 730.766 169.212 730.984 169.914C731.203 170.607 731.312 171.445 731.312 172.43V182H728.004V172.416C728.004 171.669 727.895 171.09 727.676 170.68C727.466 170.27 727.165 169.987 726.773 169.832C726.382 169.668 725.912 169.586 725.365 169.586C724.855 169.586 724.404 169.682 724.012 169.873C723.629 170.055 723.305 170.315 723.041 170.652C722.777 170.98 722.576 171.359 722.439 171.787C722.312 172.215 722.248 172.68 722.248 173.182ZM741.225 182.273C740.131 182.273 739.142 182.096 738.258 181.74C737.383 181.376 736.635 180.87 736.016 180.223C735.405 179.576 734.936 178.814 734.607 177.939C734.279 177.064 734.115 176.121 734.115 175.109V174.562C734.115 173.405 734.284 172.357 734.621 171.418C734.958 170.479 735.428 169.677 736.029 169.012C736.631 168.337 737.342 167.822 738.162 167.467C738.982 167.111 739.871 166.934 740.828 166.934C741.885 166.934 742.811 167.111 743.604 167.467C744.396 167.822 745.053 168.324 745.572 168.971C746.101 169.609 746.493 170.37 746.748 171.254C747.012 172.138 747.145 173.113 747.145 174.18V175.588H735.715V173.223H743.891V172.963C743.872 172.37 743.754 171.814 743.535 171.295C743.326 170.775 743.002 170.356 742.564 170.037C742.127 169.718 741.544 169.559 740.814 169.559C740.268 169.559 739.78 169.677 739.352 169.914C738.932 170.142 738.581 170.475 738.299 170.912C738.016 171.35 737.798 171.878 737.643 172.498C737.497 173.109 737.424 173.797 737.424 174.562V175.109C737.424 175.757 737.51 176.358 737.684 176.914C737.866 177.461 738.13 177.939 738.477 178.35C738.823 178.76 739.242 179.083 739.734 179.32C740.227 179.548 740.787 179.662 741.416 179.662C742.209 179.662 742.915 179.503 743.535 179.184C744.155 178.865 744.693 178.413 745.148 177.83L746.885 179.512C746.566 179.977 746.151 180.423 745.641 180.852C745.13 181.271 744.506 181.613 743.768 181.877C743.038 182.141 742.191 182.273 741.225 182.273ZM752.982 170.365V182H749.688V167.207H752.791L752.982 170.365ZM752.395 174.057L751.328 174.043C751.337 172.995 751.483 172.033 751.766 171.158C752.057 170.283 752.458 169.531 752.969 168.902C753.488 168.273 754.108 167.79 754.828 167.453C755.548 167.107 756.35 166.934 757.234 166.934C757.945 166.934 758.588 167.034 759.162 167.234C759.745 167.426 760.242 167.74 760.652 168.178C761.072 168.615 761.391 169.185 761.609 169.887C761.828 170.579 761.938 171.432 761.938 172.443V182H758.629V172.43C758.629 171.719 758.524 171.158 758.314 170.748C758.114 170.329 757.818 170.033 757.426 169.859C757.043 169.677 756.564 169.586 755.99 169.586C755.425 169.586 754.919 169.704 754.473 169.941C754.026 170.178 753.648 170.502 753.338 170.912C753.037 171.322 752.805 171.796 752.641 172.334C752.477 172.872 752.395 173.446 752.395 174.057ZM774.775 167.207H777.77V181.59C777.77 182.921 777.487 184.051 776.922 184.98C776.357 185.91 775.568 186.617 774.557 187.1C773.545 187.592 772.374 187.838 771.043 187.838C770.478 187.838 769.849 187.756 769.156 187.592C768.473 187.428 767.807 187.163 767.16 186.799C766.522 186.443 765.989 185.974 765.561 185.391L767.105 183.449C767.634 184.078 768.217 184.538 768.855 184.83C769.493 185.122 770.163 185.268 770.865 185.268C771.622 185.268 772.264 185.126 772.793 184.844C773.331 184.57 773.745 184.165 774.037 183.627C774.329 183.089 774.475 182.433 774.475 181.658V170.557L774.775 167.207ZM764.727 174.768V174.48C764.727 173.359 764.863 172.339 765.137 171.418C765.41 170.488 765.802 169.691 766.312 169.025C766.823 168.351 767.443 167.836 768.172 167.48C768.901 167.116 769.726 166.934 770.646 166.934C771.604 166.934 772.419 167.107 773.094 167.453C773.777 167.799 774.347 168.296 774.803 168.943C775.258 169.581 775.614 170.347 775.869 171.24C776.133 172.124 776.329 173.109 776.457 174.193V175.109C776.339 176.167 776.138 177.133 775.855 178.008C775.573 178.883 775.199 179.639 774.734 180.277C774.27 180.915 773.695 181.408 773.012 181.754C772.337 182.1 771.54 182.273 770.619 182.273C769.717 182.273 768.901 182.087 768.172 181.713C767.452 181.339 766.832 180.815 766.312 180.141C765.802 179.466 765.41 178.673 765.137 177.762C764.863 176.841 764.727 175.843 764.727 174.768ZM768.021 174.48V174.768C768.021 175.442 768.085 176.071 768.213 176.654C768.35 177.238 768.555 177.753 768.828 178.199C769.111 178.637 769.466 178.983 769.895 179.238C770.332 179.484 770.847 179.607 771.439 179.607C772.214 179.607 772.848 179.443 773.34 179.115C773.841 178.787 774.224 178.345 774.488 177.789C774.762 177.224 774.953 176.595 775.062 175.902V173.428C775.008 172.89 774.894 172.389 774.721 171.924C774.557 171.459 774.333 171.053 774.051 170.707C773.768 170.352 773.413 170.078 772.984 169.887C772.556 169.686 772.05 169.586 771.467 169.586C770.874 169.586 770.359 169.714 769.922 169.969C769.484 170.224 769.124 170.575 768.842 171.021C768.568 171.468 768.363 171.988 768.227 172.58C768.09 173.173 768.021 173.806 768.021 174.48ZM784.441 161V182H781.16V161H784.441ZM783.867 174.057L782.801 174.043C782.81 173.022 782.951 172.079 783.225 171.213C783.507 170.347 783.899 169.595 784.4 168.957C784.911 168.31 785.521 167.813 786.232 167.467C786.943 167.111 787.732 166.934 788.598 166.934C789.327 166.934 789.983 167.034 790.566 167.234C791.159 167.435 791.669 167.758 792.098 168.205C792.526 168.643 792.85 169.217 793.068 169.928C793.296 170.63 793.41 171.486 793.41 172.498V182H790.102V172.471C790.102 171.76 789.997 171.195 789.787 170.775C789.587 170.356 789.29 170.055 788.898 169.873C788.507 169.682 788.028 169.586 787.463 169.586C786.87 169.586 786.346 169.704 785.891 169.941C785.444 170.178 785.07 170.502 784.77 170.912C784.469 171.322 784.241 171.796 784.086 172.334C783.94 172.872 783.867 173.446 783.867 174.057ZM805.646 178.514V167.207H808.955V182H805.838L805.646 178.514ZM806.111 175.438L807.219 175.41C807.219 176.404 807.109 177.32 806.891 178.158C806.672 178.988 806.335 179.712 805.879 180.332C805.423 180.943 804.84 181.421 804.129 181.768C803.418 182.105 802.566 182.273 801.572 182.273C800.852 182.273 800.191 182.169 799.59 181.959C798.988 181.749 798.469 181.426 798.031 180.988C797.603 180.551 797.27 179.981 797.033 179.279C796.796 178.577 796.678 177.739 796.678 176.764V167.207H799.973V176.791C799.973 177.329 800.036 177.78 800.164 178.145C800.292 178.5 800.465 178.787 800.684 179.006C800.902 179.225 801.158 179.38 801.449 179.471C801.741 179.562 802.051 179.607 802.379 179.607C803.318 179.607 804.056 179.425 804.594 179.061C805.141 178.687 805.528 178.186 805.756 177.557C805.993 176.928 806.111 176.221 806.111 175.438ZM812.346 161H815.641V178.842L815.326 182H812.346V161ZM825.293 174.467V174.754C825.293 175.848 825.17 176.855 824.924 177.775C824.687 178.687 824.322 179.48 823.83 180.154C823.347 180.829 822.745 181.353 822.025 181.727C821.314 182.091 820.49 182.273 819.551 182.273C818.63 182.273 817.828 182.1 817.145 181.754C816.461 181.408 815.887 180.915 815.422 180.277C814.966 179.639 814.597 178.878 814.314 177.994C814.032 177.11 813.831 176.135 813.713 175.068V174.152C813.831 173.077 814.032 172.102 814.314 171.227C814.597 170.342 814.966 169.581 815.422 168.943C815.887 168.296 816.456 167.799 817.131 167.453C817.814 167.107 818.612 166.934 819.523 166.934C820.471 166.934 821.305 167.116 822.025 167.48C822.755 167.845 823.361 168.365 823.844 169.039C824.327 169.704 824.687 170.497 824.924 171.418C825.17 172.339 825.293 173.355 825.293 174.467ZM821.998 174.754V174.467C821.998 173.801 821.943 173.177 821.834 172.594C821.725 172.001 821.542 171.482 821.287 171.035C821.041 170.589 820.704 170.238 820.275 169.982C819.856 169.718 819.332 169.586 818.703 169.586C818.12 169.586 817.618 169.686 817.199 169.887C816.78 170.087 816.429 170.361 816.146 170.707C815.864 171.053 815.641 171.454 815.477 171.91C815.322 172.366 815.217 172.858 815.162 173.387V175.861C815.244 176.545 815.417 177.174 815.682 177.748C815.955 178.313 816.338 178.769 816.83 179.115C817.322 179.452 817.956 179.621 818.73 179.621C819.341 179.621 819.856 179.498 820.275 179.252C820.695 179.006 821.027 178.664 821.273 178.227C821.529 177.78 821.711 177.26 821.82 176.668C821.939 176.076 821.998 175.438 821.998 174.754ZM836.982 178.514V167.207H840.291V182H837.174L836.982 178.514ZM837.447 175.438L838.555 175.41C838.555 176.404 838.445 177.32 838.227 178.158C838.008 178.988 837.671 179.712 837.215 180.332C836.759 180.943 836.176 181.421 835.465 181.768C834.754 182.105 833.902 182.273 832.908 182.273C832.188 182.273 831.527 182.169 830.926 181.959C830.324 181.749 829.805 181.426 829.367 180.988C828.939 180.551 828.606 179.981 828.369 179.279C828.132 178.577 828.014 177.739 828.014 176.764V167.207H831.309V176.791C831.309 177.329 831.372 177.78 831.5 178.145C831.628 178.5 831.801 178.787 832.02 179.006C832.238 179.225 832.493 179.38 832.785 179.471C833.077 179.562 833.387 179.607 833.715 179.607C834.654 179.607 835.392 179.425 835.93 179.061C836.477 178.687 836.864 178.186 837.092 177.557C837.329 176.928 837.447 176.221 837.447 175.438ZM846.936 170.365V182H843.641V167.207H846.744L846.936 170.365ZM846.348 174.057L845.281 174.043C845.29 172.995 845.436 172.033 845.719 171.158C846.01 170.283 846.411 169.531 846.922 168.902C847.441 168.273 848.061 167.79 848.781 167.453C849.501 167.107 850.303 166.934 851.188 166.934C851.898 166.934 852.541 167.034 853.115 167.234C853.699 167.426 854.195 167.74 854.605 168.178C855.025 168.615 855.344 169.185 855.562 169.887C855.781 170.579 855.891 171.432 855.891 172.443V182H852.582V172.43C852.582 171.719 852.477 171.158 852.268 170.748C852.067 170.329 851.771 170.033 851.379 169.859C850.996 169.677 850.518 169.586 849.943 169.586C849.378 169.586 848.872 169.704 848.426 169.941C847.979 170.178 847.601 170.502 847.291 170.912C846.99 171.322 846.758 171.796 846.594 172.334C846.43 172.872 846.348 173.446 846.348 174.057ZM868.729 167.207H871.723V181.59C871.723 182.921 871.44 184.051 870.875 184.98C870.31 185.91 869.521 186.617 868.51 187.1C867.498 187.592 866.327 187.838 864.996 187.838C864.431 187.838 863.802 187.756 863.109 187.592C862.426 187.428 861.76 187.163 861.113 186.799C860.475 186.443 859.942 185.974 859.514 185.391L861.059 183.449C861.587 184.078 862.171 184.538 862.809 184.83C863.447 185.122 864.117 185.268 864.818 185.268C865.575 185.268 866.217 185.126 866.746 184.844C867.284 184.57 867.699 184.165 867.99 183.627C868.282 183.089 868.428 182.433 868.428 181.658V170.557L868.729 167.207ZM858.68 174.768V174.48C858.68 173.359 858.816 172.339 859.09 171.418C859.363 170.488 859.755 169.691 860.266 169.025C860.776 168.351 861.396 167.836 862.125 167.48C862.854 167.116 863.679 166.934 864.6 166.934C865.557 166.934 866.372 167.107 867.047 167.453C867.73 167.799 868.3 168.296 868.756 168.943C869.212 169.581 869.567 170.347 869.822 171.24C870.087 172.124 870.283 173.109 870.41 174.193V175.109C870.292 176.167 870.091 177.133 869.809 178.008C869.526 178.883 869.152 179.639 868.688 180.277C868.223 180.915 867.648 181.408 866.965 181.754C866.29 182.1 865.493 182.273 864.572 182.273C863.67 182.273 862.854 182.087 862.125 181.713C861.405 181.339 860.785 180.815 860.266 180.141C859.755 179.466 859.363 178.673 859.09 177.762C858.816 176.841 858.68 175.843 858.68 174.768ZM861.975 174.48V174.768C861.975 175.442 862.038 176.071 862.166 176.654C862.303 177.238 862.508 177.753 862.781 178.199C863.064 178.637 863.419 178.983 863.848 179.238C864.285 179.484 864.8 179.607 865.393 179.607C866.167 179.607 866.801 179.443 867.293 179.115C867.794 178.787 868.177 178.345 868.441 177.789C868.715 177.224 868.906 176.595 869.016 175.902V173.428C868.961 172.89 868.847 172.389 868.674 171.924C868.51 171.459 868.286 171.053 868.004 170.707C867.721 170.352 867.366 170.078 866.938 169.887C866.509 169.686 866.003 169.586 865.42 169.586C864.827 169.586 864.312 169.714 863.875 169.969C863.438 170.224 863.077 170.575 862.795 171.021C862.521 171.468 862.316 171.988 862.18 172.58C862.043 173.173 861.975 173.806 861.975 174.48ZM878.463 161V182H875.154V161H878.463ZM887.65 167.207L881.211 174.344L877.684 177.953L876.822 175.164L879.488 171.869L883.672 167.207H887.65ZM884.383 182L879.584 175.055L881.662 172.744L888.197 182H884.383ZM898.082 179.033V171.979C898.082 171.45 897.986 170.994 897.795 170.611C897.604 170.229 897.312 169.932 896.92 169.723C896.537 169.513 896.054 169.408 895.471 169.408C894.933 169.408 894.468 169.499 894.076 169.682C893.684 169.864 893.379 170.11 893.16 170.42C892.941 170.73 892.832 171.081 892.832 171.473H889.551C889.551 170.889 889.692 170.324 889.975 169.777C890.257 169.23 890.667 168.743 891.205 168.314C891.743 167.886 892.385 167.549 893.133 167.303C893.88 167.057 894.719 166.934 895.648 166.934C896.76 166.934 897.745 167.12 898.602 167.494C899.467 167.868 900.146 168.433 900.639 169.189C901.14 169.937 901.391 170.876 901.391 172.006V178.582C901.391 179.257 901.436 179.863 901.527 180.4C901.628 180.929 901.769 181.389 901.951 181.781V182H898.574C898.419 181.645 898.296 181.193 898.205 180.646C898.123 180.09 898.082 179.553 898.082 179.033ZM898.561 173.004L898.588 175.041H896.223C895.612 175.041 895.074 175.1 894.609 175.219C894.145 175.328 893.757 175.492 893.447 175.711C893.137 175.93 892.905 176.194 892.75 176.504C892.595 176.814 892.518 177.165 892.518 177.557C892.518 177.949 892.609 178.309 892.791 178.637C892.973 178.956 893.238 179.206 893.584 179.389C893.939 179.571 894.368 179.662 894.869 179.662C895.544 179.662 896.132 179.525 896.633 179.252C897.143 178.969 897.544 178.628 897.836 178.227C898.128 177.816 898.283 177.429 898.301 177.064L899.367 178.527C899.258 178.901 899.071 179.302 898.807 179.73C898.542 180.159 898.196 180.569 897.768 180.961C897.348 181.344 896.842 181.658 896.25 181.904C895.667 182.15 894.992 182.273 894.227 182.273C893.26 182.273 892.399 182.082 891.643 181.699C890.886 181.307 890.294 180.783 889.865 180.127C889.437 179.462 889.223 178.71 889.223 177.871C889.223 177.087 889.368 176.395 889.66 175.793C889.961 175.182 890.398 174.672 890.973 174.262C891.556 173.852 892.267 173.542 893.105 173.332C893.944 173.113 894.901 173.004 895.977 173.004H898.561ZM908.104 170.365V182H904.809V167.207H907.912L908.104 170.365ZM907.516 174.057L906.449 174.043C906.458 172.995 906.604 172.033 906.887 171.158C907.178 170.283 907.579 169.531 908.09 168.902C908.609 168.273 909.229 167.79 909.949 167.453C910.669 167.107 911.471 166.934 912.355 166.934C913.066 166.934 913.709 167.034 914.283 167.234C914.867 167.426 915.363 167.74 915.773 168.178C916.193 168.615 916.512 169.185 916.73 169.887C916.949 170.579 917.059 171.432 917.059 172.443V182H913.75V172.43C913.75 171.719 913.645 171.158 913.436 170.748C913.235 170.329 912.939 170.033 912.547 169.859C912.164 169.677 911.686 169.586 911.111 169.586C910.546 169.586 910.04 169.704 909.594 169.941C909.147 170.178 908.769 170.502 908.459 170.912C908.158 171.322 907.926 171.796 907.762 172.334C907.598 172.872 907.516 173.446 907.516 174.057ZM377.99 203.215V215H374.695V200.207H377.799L377.99 203.215ZM377.457 207.057L376.336 207.043C376.336 206.022 376.464 205.079 376.719 204.213C376.974 203.347 377.348 202.595 377.84 201.957C378.332 201.31 378.943 200.813 379.672 200.467C380.41 200.111 381.262 199.934 382.229 199.934C382.903 199.934 383.518 200.034 384.074 200.234C384.639 200.426 385.127 200.731 385.537 201.15C385.956 201.57 386.275 202.107 386.494 202.764C386.722 203.42 386.836 204.213 386.836 205.143V215H383.541V205.43C383.541 204.71 383.432 204.145 383.213 203.734C383.003 203.324 382.698 203.033 382.297 202.859C381.905 202.677 381.436 202.586 380.889 202.586C380.269 202.586 379.74 202.704 379.303 202.941C378.874 203.178 378.523 203.502 378.25 203.912C377.977 204.322 377.776 204.796 377.648 205.334C377.521 205.872 377.457 206.446 377.457 207.057ZM386.631 206.182L385.086 206.523C385.086 205.63 385.209 204.787 385.455 203.994C385.71 203.192 386.079 202.49 386.562 201.889C387.055 201.278 387.661 200.799 388.381 200.453C389.101 200.107 389.926 199.934 390.855 199.934C391.612 199.934 392.286 200.038 392.879 200.248C393.48 200.449 393.991 200.768 394.41 201.205C394.829 201.643 395.148 202.212 395.367 202.914C395.586 203.607 395.695 204.445 395.695 205.43V215H392.387V205.416C392.387 204.669 392.277 204.09 392.059 203.68C391.849 203.27 391.548 202.987 391.156 202.832C390.764 202.668 390.295 202.586 389.748 202.586C389.238 202.586 388.786 202.682 388.395 202.873C388.012 203.055 387.688 203.315 387.424 203.652C387.16 203.98 386.959 204.359 386.822 204.787C386.695 205.215 386.631 205.68 386.631 206.182ZM407.426 212.033V204.979C407.426 204.45 407.33 203.994 407.139 203.611C406.947 203.229 406.656 202.932 406.264 202.723C405.881 202.513 405.398 202.408 404.814 202.408C404.277 202.408 403.812 202.499 403.42 202.682C403.028 202.864 402.723 203.11 402.504 203.42C402.285 203.73 402.176 204.081 402.176 204.473H398.895C398.895 203.889 399.036 203.324 399.318 202.777C399.601 202.23 400.011 201.743 400.549 201.314C401.087 200.886 401.729 200.549 402.477 200.303C403.224 200.057 404.062 199.934 404.992 199.934C406.104 199.934 407.089 200.12 407.945 200.494C408.811 200.868 409.49 201.433 409.982 202.189C410.484 202.937 410.734 203.876 410.734 205.006V211.582C410.734 212.257 410.78 212.863 410.871 213.4C410.971 213.929 411.113 214.389 411.295 214.781V215H407.918C407.763 214.645 407.64 214.193 407.549 213.646C407.467 213.09 407.426 212.553 407.426 212.033ZM407.904 206.004L407.932 208.041H405.566C404.956 208.041 404.418 208.1 403.953 208.219C403.488 208.328 403.101 208.492 402.791 208.711C402.481 208.93 402.249 209.194 402.094 209.504C401.939 209.814 401.861 210.165 401.861 210.557C401.861 210.949 401.952 211.309 402.135 211.637C402.317 211.956 402.581 212.206 402.928 212.389C403.283 212.571 403.712 212.662 404.213 212.662C404.887 212.662 405.475 212.525 405.977 212.252C406.487 211.969 406.888 211.628 407.18 211.227C407.471 210.816 407.626 210.429 407.645 210.064L408.711 211.527C408.602 211.901 408.415 212.302 408.15 212.73C407.886 213.159 407.54 213.569 407.111 213.961C406.692 214.344 406.186 214.658 405.594 214.904C405.01 215.15 404.336 215.273 403.57 215.273C402.604 215.273 401.743 215.082 400.986 214.699C400.23 214.307 399.637 213.783 399.209 213.127C398.781 212.462 398.566 211.71 398.566 210.871C398.566 210.087 398.712 209.395 399.004 208.793C399.305 208.182 399.742 207.672 400.316 207.262C400.9 206.852 401.611 206.542 402.449 206.332C403.288 206.113 404.245 206.004 405.32 206.004H407.904ZM422.479 210.994C422.479 210.666 422.396 210.37 422.232 210.105C422.068 209.832 421.754 209.586 421.289 209.367C420.833 209.148 420.159 208.948 419.266 208.766C418.482 208.592 417.762 208.387 417.105 208.15C416.458 207.904 415.902 207.608 415.438 207.262C414.973 206.915 414.613 206.505 414.357 206.031C414.102 205.557 413.975 205.01 413.975 204.391C413.975 203.789 414.107 203.219 414.371 202.682C414.635 202.144 415.014 201.67 415.506 201.26C415.998 200.85 416.595 200.526 417.297 200.289C418.008 200.052 418.801 199.934 419.676 199.934C420.915 199.934 421.977 200.143 422.861 200.562C423.755 200.973 424.438 201.533 424.912 202.244C425.386 202.946 425.623 203.739 425.623 204.623H422.328C422.328 204.231 422.228 203.867 422.027 203.529C421.836 203.183 421.544 202.905 421.152 202.695C420.76 202.477 420.268 202.367 419.676 202.367C419.111 202.367 418.641 202.458 418.268 202.641C417.903 202.814 417.63 203.042 417.447 203.324C417.274 203.607 417.188 203.917 417.188 204.254C417.188 204.5 417.233 204.723 417.324 204.924C417.424 205.115 417.589 205.293 417.816 205.457C418.044 205.612 418.354 205.758 418.746 205.895C419.147 206.031 419.648 206.163 420.25 206.291C421.38 206.528 422.351 206.833 423.162 207.207C423.982 207.572 424.611 208.046 425.049 208.629C425.486 209.203 425.705 209.932 425.705 210.816C425.705 211.473 425.564 212.074 425.281 212.621C425.008 213.159 424.607 213.628 424.078 214.029C423.549 214.421 422.916 214.727 422.178 214.945C421.449 215.164 420.628 215.273 419.717 215.273C418.377 215.273 417.242 215.036 416.312 214.562C415.383 214.079 414.676 213.464 414.193 212.717C413.719 211.96 413.482 211.176 413.482 210.365H416.668C416.704 210.976 416.873 211.464 417.174 211.828C417.484 212.184 417.867 212.443 418.322 212.607C418.787 212.762 419.266 212.84 419.758 212.84C420.35 212.84 420.847 212.762 421.248 212.607C421.649 212.443 421.954 212.225 422.164 211.951C422.374 211.669 422.479 211.35 422.479 210.994ZM436.93 212.033V204.979C436.93 204.45 436.834 203.994 436.643 203.611C436.451 203.229 436.16 202.932 435.768 202.723C435.385 202.513 434.902 202.408 434.318 202.408C433.781 202.408 433.316 202.499 432.924 202.682C432.532 202.864 432.227 203.11 432.008 203.42C431.789 203.73 431.68 204.081 431.68 204.473H428.398C428.398 203.889 428.54 203.324 428.822 202.777C429.105 202.23 429.515 201.743 430.053 201.314C430.59 200.886 431.233 200.549 431.98 200.303C432.728 200.057 433.566 199.934 434.496 199.934C435.608 199.934 436.592 200.12 437.449 200.494C438.315 200.868 438.994 201.433 439.486 202.189C439.988 202.937 440.238 203.876 440.238 205.006V211.582C440.238 212.257 440.284 212.863 440.375 213.4C440.475 213.929 440.617 214.389 440.799 214.781V215H437.422C437.267 214.645 437.144 214.193 437.053 213.646C436.971 213.09 436.93 212.553 436.93 212.033ZM437.408 206.004L437.436 208.041H435.07C434.46 208.041 433.922 208.1 433.457 208.219C432.992 208.328 432.605 208.492 432.295 208.711C431.985 208.93 431.753 209.194 431.598 209.504C431.443 209.814 431.365 210.165 431.365 210.557C431.365 210.949 431.456 211.309 431.639 211.637C431.821 211.956 432.085 212.206 432.432 212.389C432.787 212.571 433.215 212.662 433.717 212.662C434.391 212.662 434.979 212.525 435.48 212.252C435.991 211.969 436.392 211.628 436.684 211.227C436.975 210.816 437.13 210.429 437.148 210.064L438.215 211.527C438.105 211.901 437.919 212.302 437.654 212.73C437.39 213.159 437.044 213.569 436.615 213.961C436.196 214.344 435.69 214.658 435.098 214.904C434.514 215.15 433.84 215.273 433.074 215.273C432.108 215.273 431.247 215.082 430.49 214.699C429.734 214.307 429.141 213.783 428.713 213.127C428.285 212.462 428.07 211.71 428.07 210.871C428.07 210.087 428.216 209.395 428.508 208.793C428.809 208.182 429.246 207.672 429.82 207.262C430.404 206.852 431.115 206.542 431.953 206.332C432.792 206.113 433.749 206.004 434.824 206.004H437.408ZM459.68 211.938V194H462.988V215H459.994L459.68 211.938ZM450.055 207.768V207.48C450.055 206.359 450.187 205.339 450.451 204.418C450.715 203.488 451.098 202.691 451.6 202.025C452.101 201.351 452.712 200.836 453.432 200.48C454.152 200.116 454.963 199.934 455.865 199.934C456.758 199.934 457.542 200.107 458.217 200.453C458.891 200.799 459.465 201.296 459.939 201.943C460.413 202.581 460.792 203.347 461.074 204.24C461.357 205.124 461.557 206.109 461.676 207.193V208.109C461.557 209.167 461.357 210.133 461.074 211.008C460.792 211.883 460.413 212.639 459.939 213.277C459.465 213.915 458.887 214.408 458.203 214.754C457.529 215.1 456.74 215.273 455.838 215.273C454.945 215.273 454.138 215.087 453.418 214.713C452.707 214.339 452.101 213.815 451.6 213.141C451.098 212.466 450.715 211.673 450.451 210.762C450.187 209.841 450.055 208.843 450.055 207.768ZM453.35 207.48V207.768C453.35 208.442 453.409 209.071 453.527 209.654C453.655 210.238 453.851 210.753 454.115 211.199C454.38 211.637 454.721 211.983 455.141 212.238C455.569 212.484 456.079 212.607 456.672 212.607C457.419 212.607 458.035 212.443 458.518 212.115C459.001 211.787 459.379 211.345 459.652 210.789C459.935 210.224 460.126 209.595 460.227 208.902V206.428C460.172 205.89 460.058 205.389 459.885 204.924C459.721 204.459 459.497 204.053 459.215 203.707C458.932 203.352 458.581 203.078 458.162 202.887C457.752 202.686 457.264 202.586 456.699 202.586C456.098 202.586 455.587 202.714 455.168 202.969C454.749 203.224 454.402 203.575 454.129 204.021C453.865 204.468 453.669 204.988 453.541 205.58C453.413 206.173 453.35 206.806 453.35 207.48ZM472.955 215.273C471.861 215.273 470.872 215.096 469.988 214.74C469.113 214.376 468.366 213.87 467.746 213.223C467.135 212.576 466.666 211.814 466.338 210.939C466.01 210.064 465.846 209.121 465.846 208.109V207.562C465.846 206.405 466.014 205.357 466.352 204.418C466.689 203.479 467.158 202.677 467.76 202.012C468.361 201.337 469.072 200.822 469.893 200.467C470.713 200.111 471.602 199.934 472.559 199.934C473.616 199.934 474.541 200.111 475.334 200.467C476.127 200.822 476.783 201.324 477.303 201.971C477.831 202.609 478.223 203.37 478.479 204.254C478.743 205.138 478.875 206.113 478.875 207.18V208.588H467.445V206.223H475.621V205.963C475.603 205.37 475.484 204.814 475.266 204.295C475.056 203.775 474.732 203.356 474.295 203.037C473.857 202.718 473.274 202.559 472.545 202.559C471.998 202.559 471.51 202.677 471.082 202.914C470.663 203.142 470.312 203.475 470.029 203.912C469.747 204.35 469.528 204.878 469.373 205.498C469.227 206.109 469.154 206.797 469.154 207.562V208.109C469.154 208.757 469.241 209.358 469.414 209.914C469.596 210.461 469.861 210.939 470.207 211.35C470.553 211.76 470.973 212.083 471.465 212.32C471.957 212.548 472.518 212.662 473.146 212.662C473.939 212.662 474.646 212.503 475.266 212.184C475.885 211.865 476.423 211.413 476.879 210.83L478.615 212.512C478.296 212.977 477.882 213.423 477.371 213.852C476.861 214.271 476.236 214.613 475.498 214.877C474.769 215.141 473.921 215.273 472.955 215.273ZM484.754 203.051V220.688H481.459V200.207H484.494L484.754 203.051ZM494.393 207.467V207.754C494.393 208.829 494.265 209.827 494.01 210.748C493.764 211.66 493.395 212.457 492.902 213.141C492.419 213.815 491.822 214.339 491.111 214.713C490.4 215.087 489.58 215.273 488.65 215.273C487.73 215.273 486.923 215.105 486.23 214.768C485.547 214.421 484.968 213.934 484.494 213.305C484.02 212.676 483.637 211.938 483.346 211.09C483.063 210.233 482.863 209.294 482.744 208.273V207.166C482.863 206.081 483.063 205.097 483.346 204.213C483.637 203.329 484.02 202.568 484.494 201.93C484.968 201.292 485.547 200.799 486.23 200.453C486.914 200.107 487.712 199.934 488.623 199.934C489.553 199.934 490.378 200.116 491.098 200.48C491.818 200.836 492.424 201.346 492.916 202.012C493.408 202.668 493.777 203.461 494.023 204.391C494.27 205.311 494.393 206.337 494.393 207.467ZM491.098 207.754V207.467C491.098 206.783 491.034 206.15 490.906 205.566C490.779 204.974 490.578 204.454 490.305 204.008C490.031 203.561 489.68 203.215 489.252 202.969C488.833 202.714 488.327 202.586 487.734 202.586C487.151 202.586 486.65 202.686 486.23 202.887C485.811 203.078 485.46 203.347 485.178 203.693C484.895 204.04 484.676 204.445 484.521 204.91C484.367 205.366 484.257 205.863 484.193 206.4V209.053C484.303 209.709 484.49 210.311 484.754 210.857C485.018 211.404 485.392 211.842 485.875 212.17C486.367 212.489 486.996 212.648 487.762 212.648C488.354 212.648 488.86 212.521 489.279 212.266C489.699 212.01 490.04 211.66 490.305 211.213C490.578 210.757 490.779 210.233 490.906 209.641C491.034 209.048 491.098 208.419 491.098 207.754ZM505.535 212.033V204.979C505.535 204.45 505.439 203.994 505.248 203.611C505.057 203.229 504.765 202.932 504.373 202.723C503.99 202.513 503.507 202.408 502.924 202.408C502.386 202.408 501.921 202.499 501.529 202.682C501.137 202.864 500.832 203.11 500.613 203.42C500.395 203.73 500.285 204.081 500.285 204.473H497.004C497.004 203.889 497.145 203.324 497.428 202.777C497.71 202.23 498.12 201.743 498.658 201.314C499.196 200.886 499.839 200.549 500.586 200.303C501.333 200.057 502.172 199.934 503.102 199.934C504.214 199.934 505.198 200.12 506.055 200.494C506.921 200.868 507.6 201.433 508.092 202.189C508.593 202.937 508.844 203.876 508.844 205.006V211.582C508.844 212.257 508.889 212.863 508.98 213.4C509.081 213.929 509.222 214.389 509.404 214.781V215H506.027C505.872 214.645 505.749 214.193 505.658 213.646C505.576 213.09 505.535 212.553 505.535 212.033ZM506.014 206.004L506.041 208.041H503.676C503.065 208.041 502.527 208.1 502.062 208.219C501.598 208.328 501.21 208.492 500.9 208.711C500.59 208.93 500.358 209.194 500.203 209.504C500.048 209.814 499.971 210.165 499.971 210.557C499.971 210.949 500.062 211.309 500.244 211.637C500.426 211.956 500.691 212.206 501.037 212.389C501.393 212.571 501.821 212.662 502.322 212.662C502.997 212.662 503.585 212.525 504.086 212.252C504.596 211.969 504.997 211.628 505.289 211.227C505.581 210.816 505.736 210.429 505.754 210.064L506.82 211.527C506.711 211.901 506.524 212.302 506.26 212.73C505.995 213.159 505.649 213.569 505.221 213.961C504.801 214.344 504.296 214.658 503.703 214.904C503.12 215.15 502.445 215.273 501.68 215.273C500.714 215.273 499.852 215.082 499.096 214.699C498.339 214.307 497.747 213.783 497.318 213.127C496.89 212.462 496.676 211.71 496.676 210.871C496.676 210.087 496.822 209.395 497.113 208.793C497.414 208.182 497.852 207.672 498.426 207.262C499.009 206.852 499.72 206.542 500.559 206.332C501.397 206.113 502.354 206.004 503.43 206.004H506.014ZM515.557 203.365V215H512.262V200.207H515.365L515.557 203.365ZM514.969 207.057L513.902 207.043C513.911 205.995 514.057 205.033 514.34 204.158C514.632 203.283 515.033 202.531 515.543 201.902C516.062 201.273 516.682 200.79 517.402 200.453C518.122 200.107 518.924 199.934 519.809 199.934C520.52 199.934 521.162 200.034 521.736 200.234C522.32 200.426 522.816 200.74 523.227 201.178C523.646 201.615 523.965 202.185 524.184 202.887C524.402 203.579 524.512 204.432 524.512 205.443V215H521.203V205.43C521.203 204.719 521.098 204.158 520.889 203.748C520.688 203.329 520.392 203.033 520 202.859C519.617 202.677 519.139 202.586 518.564 202.586C517.999 202.586 517.493 202.704 517.047 202.941C516.6 203.178 516.222 203.502 515.912 203.912C515.611 204.322 515.379 204.796 515.215 205.334C515.051 205.872 514.969 206.446 514.969 207.057Z" fill="white"/>
<path d="M1041 78H1061V88H1041V78Z" fill="#0A47A1"/>
<path d="M1061 88H1071V108H1061V88Z" fill="#0A47A1"/>
<path d="M1058 64H1075V74H1058V64Z" fill="#CCE0FF"/>
<path d="M1075 73H1085V90H1075V73Z" fill="#CCE0FF"/>
<rect x="1075" y="64" width="10" height="10" fill="#CCE0FF"/>
<rect x="1061" y="78" width="10" height="10" fill="#0A47A2"/>
</g>
<defs>
<filter id="filter0_d_201_68" x="0" y="0" width="1216" height="313" filterUnits="userSpaceOnUse" color-interpolation-filters="sRGB">
<feFlood flood-opacity="0" result="BackgroundImageFix"/>
<feColorMatrix in="SourceAlpha" type="matrix" values="0 0 0 0 0 0 0 0 0 0 0 0 0 0 0 0 0 0 127 0" result="hardAlpha"/>
<feOffset dy="4"/>
<feGaussianBlur stdDeviation="2"/>
<feComposite in2="hardAlpha" operator="out"/>
<feColorMatrix type="matrix" values="0 0 0 0 0 0 0 0 0 0 0 0 0 0 0 0 0 0 0.25 0"/>
<feBlend mode="normal" in2="BackgroundImageFix" result="effect1_dropShadow_201_68"/>
<feBlend mode="normal" in="SourceGraphic" in2="effect1_dropShadow_201_68" result="shape"/>
</filter>
<clipPath id="clip0_201_68">
<rect x="102" y="53" width="200" height="200" rx="30" fill="white"/>
</clipPath>
</defs>
</svg>
