<svg width="1208" height="305" viewBox="0 0 1208 305" fill="none" xmlns="http://www.w3.org/2000/svg">
<g clip-path="url(#clip0_201_51)">
<rect x="98" y="53" width="200" height="200" rx="30" fill="#0A47A2"/>
<path d="M208.077 48.6357C207.798 51.8376 207.565 54.4391 207.378 56.4404C207.19 58.3417 207.103 60.3423 207.117 62.4422C207.126 63.7422 207.139 65.7422 207.156 68.4421C207.174 71.142 207.192 73.942 207.211 76.8419C207.23 79.7419 207.246 82.1418 207.259 84.0418L186.409 84.1785C186.395 82.0785 186.379 79.5786 186.36 76.6787C186.341 73.7787 186.323 71.0288 186.306 68.4288C186.289 65.8289 186.276 63.8789 186.267 62.579C186.254 60.479 186.141 58.4797 185.928 56.5811C185.815 54.5818 185.498 51.9838 184.977 48.7871L208.077 48.6357ZM258.833 79.9535C258.243 81.5574 257.657 83.6113 257.073 86.1152C256.589 88.5184 256.202 90.471 255.912 91.9729C255.335 95.4768 254.608 99.0316 253.732 102.637C252.955 106.243 251.979 109.849 250.803 113.457C249.726 117.064 248.449 120.622 246.972 124.132C245.595 127.641 244.018 131.102 242.24 134.513C238.288 141.84 233.232 148.523 227.072 154.563C221.011 160.603 214.095 165.749 206.322 170C198.549 174.151 190.221 177.456 181.337 179.914L165.619 162.017C169.015 161.394 172.61 160.571 176.403 159.546C180.196 158.421 183.638 157.248 186.73 156.028C190.92 154.4 195.057 152.373 199.141 149.946C203.324 147.419 207.255 144.493 210.933 141.169C214.612 137.845 217.838 134.173 220.611 130.155C223.087 126.439 225.211 122.475 226.984 118.263C228.755 113.951 230.176 109.542 231.247 105.035C232.317 100.428 233.137 95.9223 233.708 91.5185L159.31 92.0064C159.318 93.3063 159.329 94.9563 159.342 96.9563C159.355 98.8562 159.369 100.956 159.384 103.256C159.398 105.456 159.412 107.506 159.424 109.406C159.436 111.206 159.446 112.706 159.453 113.906C159.465 115.606 159.527 117.505 159.641 119.605C159.755 121.704 159.866 123.503 159.976 125.003L139.277 125.138C139.464 123.237 139.601 121.186 139.686 118.986C139.871 116.684 139.957 114.534 139.944 112.534C139.936 111.334 139.925 109.584 139.91 107.284C139.895 104.984 139.878 102.534 139.861 99.9341C139.844 97.2341 139.827 94.6842 139.811 92.2842C139.796 89.8843 139.783 87.9843 139.774 86.5844C139.763 84.8844 139.699 82.7848 139.583 80.2855C139.466 77.6862 139.251 75.4876 138.939 73.6896C141.541 73.9725 144.042 74.1561 146.443 74.2404C148.844 74.3246 151.444 74.3576 154.244 74.3392L233.292 73.8208C236.392 73.8005 238.891 73.6341 240.789 73.3217C242.786 72.9086 244.434 72.4978 245.731 72.0892L258.833 79.9535Z" fill="white"/>
<path d="M217.077 57.7413C216.798 60.9432 216.565 63.5448 216.378 65.5461C216.19 67.4473 216.103 69.4479 216.117 71.5479C216.126 72.8479 216.139 74.8478 216.156 77.5478C216.174 80.2477 216.192 83.0476 216.211 85.9476C216.23 88.8475 216.246 91.2475 216.259 93.1474L195.409 93.2842C195.395 91.1842 195.379 88.6842 195.36 85.7843C195.341 82.8844 195.323 80.1344 195.306 77.5345C195.289 74.9345 195.276 72.9846 195.267 71.6846C195.254 69.5847 195.141 67.5854 194.928 65.6867C194.815 63.6874 194.498 61.0894 193.977 57.8928L217.077 57.7413ZM267.833 89.0591C267.243 90.663 266.657 92.7169 266.073 95.2208C265.589 97.624 265.202 99.5766 264.912 101.079C264.335 104.582 263.608 108.137 262.732 111.743C261.955 115.348 260.979 118.955 259.803 122.563C258.726 126.17 257.449 129.728 255.972 133.238C254.595 136.747 253.018 140.207 251.24 143.619C247.288 150.945 242.232 157.628 236.072 163.669C230.011 169.709 223.095 174.854 215.322 179.105C207.549 183.256 199.221 186.561 190.337 189.019L174.619 171.122C178.015 170.5 181.61 169.676 185.403 168.651C189.196 167.526 192.638 166.354 195.73 165.134C199.92 163.506 204.057 161.479 208.141 159.052C212.324 156.525 216.255 153.599 219.933 150.275C223.612 146.95 226.838 143.279 229.611 139.261C232.087 135.545 234.211 131.581 235.984 127.369C237.755 123.057 239.176 118.648 240.247 114.141C241.317 109.533 242.137 105.028 242.708 100.624L168.31 101.112C168.318 102.412 168.329 104.062 168.342 106.062C168.355 107.962 168.369 110.062 168.384 112.362C168.398 114.562 168.412 116.612 168.424 118.512C168.436 120.312 168.446 121.812 168.453 123.012C168.465 124.712 168.527 126.611 168.641 128.71C168.755 130.81 168.866 132.609 168.976 134.108L148.277 134.244C148.464 132.343 148.601 130.292 148.686 128.091C148.871 125.79 148.957 123.639 148.944 121.639C148.936 120.439 148.925 118.69 148.91 116.39C148.895 114.09 148.878 111.64 148.861 109.04C148.844 106.34 148.827 103.79 148.811 101.39C148.796 98.9899 148.783 97.09 148.774 95.69C148.763 93.9901 148.699 91.8904 148.583 89.3911C148.466 86.7918 148.251 84.5932 147.939 82.7952C150.541 83.0782 153.042 83.2618 155.443 83.346C157.844 83.4303 160.444 83.4632 163.244 83.4449L242.292 82.9265C245.392 82.9062 247.891 82.7398 249.789 82.4273C251.786 82.0142 253.434 81.6034 254.731 81.1949L267.833 89.0591Z" fill="white" fill-opacity="0.19"/>
<rect x="185" y="83" width="22" height="196" fill="white"/>
<rect x="195" y="83" width="22" height="196" fill="white" fill-opacity="0.15"/>
<rect x="197" y="180.92" width="22" height="135" transform="rotate(-46.1678 197 180.92)" fill="white"/>
</g>
<path d="M373.072 89.3438H388.57C391.812 89.3438 394.596 89.832 396.92 90.8086C399.244 91.7852 401.031 93.2305 402.281 95.1445C403.531 97.0586 404.156 99.4121 404.156 102.205C404.156 104.412 403.766 106.326 402.984 107.947C402.203 109.568 401.1 110.926 399.674 112.02C398.268 113.113 396.607 113.973 394.693 114.598L392.174 115.887H378.492L378.434 109.529H388.658C390.318 109.529 391.695 109.236 392.789 108.65C393.883 108.064 394.703 107.254 395.25 106.219C395.816 105.184 396.1 104.002 396.1 102.674C396.1 101.248 395.826 100.018 395.279 98.9824C394.732 97.9277 393.902 97.1172 392.789 96.5508C391.676 95.9844 390.27 95.7012 388.57 95.7012H381.129V132H373.072V89.3438ZM397.154 132L387.281 112.898L395.807 112.869L405.797 131.59V132H397.154ZM419.918 128.484L428.414 100.301H436.705L423.99 136.805C423.697 137.586 423.316 138.436 422.848 139.354C422.398 140.271 421.793 141.141 421.031 141.961C420.27 142.801 419.312 143.484 418.16 144.012C417.027 144.539 415.65 144.803 414.029 144.803C413.326 144.803 412.701 144.754 412.154 144.656C411.607 144.559 411.031 144.432 410.426 144.275V138.475C410.621 138.494 410.846 138.504 411.1 138.504C411.373 138.523 411.607 138.533 411.803 138.533C412.936 138.533 413.873 138.396 414.615 138.123C415.357 137.869 415.953 137.449 416.402 136.863C416.871 136.297 417.262 135.555 417.574 134.637L419.918 128.484ZM415.729 100.301L422.906 123.65L424.166 131.824L418.834 132.791L407.379 100.301H415.729ZM438.609 116.473V115.857C438.609 113.533 438.941 111.395 439.605 109.441C440.27 107.469 441.236 105.76 442.506 104.314C443.775 102.869 445.328 101.746 447.164 100.945C449 100.125 451.09 99.7148 453.434 99.7148C455.816 99.7148 457.926 100.125 459.762 100.945C461.617 101.746 463.18 102.869 464.449 104.314C465.719 105.76 466.686 107.469 467.35 109.441C468.014 111.395 468.346 113.533 468.346 115.857V116.473C468.346 118.777 468.014 120.916 467.35 122.889C466.686 124.842 465.719 126.551 464.449 128.016C463.18 129.461 461.627 130.584 459.791 131.385C457.955 132.186 455.855 132.586 453.492 132.586C451.148 132.586 449.049 132.186 447.193 131.385C445.338 130.584 443.775 129.461 442.506 128.016C441.236 126.551 440.27 124.842 439.605 122.889C438.941 120.916 438.609 118.777 438.609 116.473ZM446.344 115.857V116.473C446.344 117.859 446.48 119.158 446.754 120.369C447.027 121.58 447.447 122.645 448.014 123.562C448.58 124.48 449.312 125.203 450.211 125.73C451.129 126.238 452.223 126.492 453.492 126.492C454.742 126.492 455.816 126.238 456.715 125.73C457.613 125.203 458.346 124.48 458.912 123.562C459.498 122.645 459.928 121.58 460.201 120.369C460.475 119.158 460.611 117.859 460.611 116.473V115.857C460.611 114.49 460.475 113.211 460.201 112.02C459.928 110.809 459.498 109.744 458.912 108.826C458.346 107.889 457.604 107.156 456.686 106.629C455.787 106.082 454.703 105.809 453.434 105.809C452.184 105.809 451.109 106.082 450.211 106.629C449.312 107.156 448.58 107.889 448.014 108.826C447.447 109.744 447.027 110.809 446.754 112.02C446.48 113.211 446.344 114.49 446.344 115.857ZM472.594 116.473V115.857C472.594 113.533 472.926 111.395 473.59 109.441C474.254 107.469 475.221 105.76 476.49 104.314C477.76 102.869 479.312 101.746 481.148 100.945C482.984 100.125 485.074 99.7148 487.418 99.7148C489.801 99.7148 491.91 100.125 493.746 100.945C495.602 101.746 497.164 102.869 498.434 104.314C499.703 105.76 500.67 107.469 501.334 109.441C501.998 111.395 502.33 113.533 502.33 115.857V116.473C502.33 118.777 501.998 120.916 501.334 122.889C500.67 124.842 499.703 126.551 498.434 128.016C497.164 129.461 495.611 130.584 493.775 131.385C491.939 132.186 489.84 132.586 487.477 132.586C485.133 132.586 483.033 132.186 481.178 131.385C479.322 130.584 477.76 129.461 476.49 128.016C475.221 126.551 474.254 124.842 473.59 122.889C472.926 120.916 472.594 118.777 472.594 116.473ZM480.328 115.857V116.473C480.328 117.859 480.465 119.158 480.738 120.369C481.012 121.58 481.432 122.645 481.998 123.562C482.564 124.48 483.297 125.203 484.195 125.73C485.113 126.238 486.207 126.492 487.477 126.492C488.727 126.492 489.801 126.238 490.699 125.73C491.598 125.203 492.33 124.48 492.896 123.562C493.482 122.645 493.912 121.58 494.186 120.369C494.459 119.158 494.596 117.859 494.596 116.473V115.857C494.596 114.49 494.459 113.211 494.186 112.02C493.912 110.809 493.482 109.744 492.896 108.826C492.33 107.889 491.588 107.156 490.67 106.629C489.771 106.082 488.688 105.809 487.418 105.809C486.168 105.809 485.094 106.082 484.195 106.629C483.297 107.156 482.564 107.889 481.998 108.826C481.432 109.744 481.012 110.809 480.738 112.02C480.465 113.211 480.328 114.49 480.328 115.857ZM528.111 100.301H535.143V131.033C535.143 133.904 534.518 136.336 533.268 138.328C532.037 140.34 530.309 141.863 528.082 142.898C525.855 143.953 523.268 144.48 520.318 144.48C519.049 144.48 517.672 144.305 516.188 143.953C514.723 143.602 513.307 143.045 511.939 142.283C510.592 141.541 509.469 140.574 508.57 139.383L512.057 134.812C513.111 136.043 514.303 136.971 515.631 137.596C516.959 138.24 518.395 138.562 519.938 138.562C521.5 138.562 522.828 138.27 523.922 137.684C525.035 137.117 525.885 136.277 526.471 135.164C527.076 134.07 527.379 132.723 527.379 131.121V107.537L528.111 100.301ZM506.695 116.531V115.916C506.695 113.494 506.988 111.297 507.574 109.324C508.16 107.332 509 105.623 510.094 104.197C511.207 102.771 512.545 101.668 514.107 100.887C515.689 100.105 517.467 99.7148 519.439 99.7148C521.529 99.7148 523.287 100.096 524.713 100.857C526.158 101.619 527.35 102.703 528.287 104.109C529.244 105.516 529.986 107.186 530.514 109.119C531.061 111.033 531.48 113.143 531.773 115.447V117.117C531.5 119.363 531.061 121.424 530.455 123.299C529.869 125.174 529.088 126.814 528.111 128.221C527.135 129.607 525.924 130.682 524.479 131.443C523.033 132.205 521.334 132.586 519.381 132.586C517.428 132.586 515.67 132.186 514.107 131.385C512.545 130.584 511.207 129.461 510.094 128.016C509 126.57 508.16 124.871 507.574 122.918C506.988 120.965 506.695 118.836 506.695 116.531ZM514.43 115.916V116.531C514.43 117.898 514.566 119.178 514.84 120.369C515.113 121.561 515.533 122.615 516.1 123.533C516.666 124.432 517.379 125.135 518.238 125.643C519.098 126.15 520.123 126.404 521.314 126.404C522.916 126.404 524.225 126.072 525.24 125.408C526.275 124.725 527.057 123.797 527.584 122.625C528.131 121.434 528.482 120.096 528.639 118.611V114.012C528.541 112.84 528.326 111.756 527.994 110.76C527.682 109.764 527.242 108.904 526.676 108.182C526.109 107.459 525.387 106.893 524.508 106.482C523.629 106.072 522.584 105.867 521.373 105.867C520.201 105.867 519.176 106.131 518.297 106.658C517.418 107.166 516.695 107.879 516.129 108.797C515.562 109.715 515.133 110.779 514.84 111.99C514.566 113.201 514.43 114.51 514.43 115.916ZM556.354 132.586C553.951 132.586 551.793 132.195 549.879 131.414C547.965 130.633 546.334 129.549 544.986 128.162C543.658 126.756 542.633 125.125 541.91 123.27C541.207 121.395 540.855 119.383 540.855 117.234V116.062C540.855 113.621 541.207 111.404 541.91 109.412C542.613 107.4 543.609 105.672 544.898 104.227C546.188 102.781 547.73 101.668 549.527 100.887C551.324 100.105 553.307 99.7148 555.475 99.7148C557.721 99.7148 559.703 100.096 561.422 100.857C563.141 101.6 564.576 102.654 565.729 104.021C566.881 105.389 567.75 107.029 568.336 108.943C568.922 110.838 569.215 112.938 569.215 115.242V118.494H544.371V113.162H561.598V112.576C561.559 111.346 561.324 110.223 560.895 109.207C560.465 108.172 559.801 107.352 558.902 106.746C558.004 106.121 556.842 105.809 555.416 105.809C554.264 105.809 553.258 106.062 552.398 106.57C551.559 107.059 550.855 107.762 550.289 108.68C549.742 109.578 549.332 110.652 549.059 111.902C548.785 113.152 548.648 114.539 548.648 116.062V117.234C548.648 118.562 548.824 119.793 549.176 120.926C549.547 122.059 550.084 123.045 550.787 123.885C551.51 124.705 552.369 125.35 553.365 125.818C554.381 126.268 555.533 126.492 556.822 126.492C558.443 126.492 559.908 126.18 561.217 125.555C562.545 124.91 563.697 123.963 564.674 122.713L568.57 126.756C567.906 127.732 567.008 128.67 565.875 129.568C564.762 130.467 563.414 131.199 561.832 131.766C560.25 132.312 558.424 132.586 556.354 132.586ZM581.988 107.068V132H574.254V100.301H581.52L581.988 107.068ZM580.758 115.008H578.473C578.492 112.703 578.805 110.613 579.41 108.738C580.016 106.863 580.865 105.252 581.959 103.904C583.072 102.557 584.391 101.521 585.914 100.799C587.438 100.076 589.137 99.7148 591.012 99.7148C592.535 99.7148 593.912 99.9297 595.143 100.359C596.373 100.789 597.428 101.473 598.307 102.41C599.205 103.348 599.889 104.578 600.357 106.102C600.846 107.605 601.09 109.461 601.09 111.668V132H593.297V111.609C593.297 110.164 593.082 109.021 592.652 108.182C592.242 107.342 591.637 106.746 590.836 106.395C590.055 106.043 589.088 105.867 587.936 105.867C586.744 105.867 585.699 106.111 584.801 106.6C583.922 107.068 583.18 107.723 582.574 108.562C581.988 109.402 581.539 110.369 581.227 111.463C580.914 112.557 580.758 113.738 580.758 115.008ZM639.85 116.443H628.863V110.115H639.85C641.646 110.115 643.102 109.822 644.215 109.236C645.348 108.631 646.178 107.811 646.705 106.775C647.232 105.721 647.496 104.52 647.496 103.172C647.496 101.863 647.232 100.643 646.705 99.5098C646.178 98.377 645.348 97.459 644.215 96.7559C643.102 96.0527 641.646 95.7012 639.85 95.7012H631.5V132H623.443V89.3438H639.85C643.17 89.3438 646.002 89.9395 648.346 91.1309C650.709 92.3027 652.506 93.9336 653.736 96.0234C654.986 98.0938 655.611 100.457 655.611 103.113C655.611 105.867 654.986 108.24 653.736 110.232C652.506 112.225 650.709 113.758 648.346 114.832C646.002 115.906 643.17 116.443 639.85 116.443ZM680.221 124.471V100.301H688.014V132H680.689L680.221 124.471ZM681.217 117.908L683.619 117.85C683.619 119.979 683.385 121.941 682.916 123.738C682.447 125.535 681.715 127.098 680.719 128.426C679.742 129.734 678.502 130.76 676.998 131.502C675.494 132.225 673.717 132.586 671.666 132.586C670.104 132.586 668.678 132.371 667.389 131.941C666.1 131.492 664.986 130.799 664.049 129.861C663.131 128.904 662.418 127.684 661.91 126.199C661.402 124.695 661.148 122.889 661.148 120.779V100.301H668.883V120.838C668.883 121.893 669 122.771 669.234 123.475C669.488 124.178 669.83 124.754 670.26 125.203C670.709 125.633 671.227 125.945 671.812 126.141C672.418 126.316 673.062 126.404 673.746 126.404C675.621 126.404 677.096 126.033 678.17 125.291C679.264 124.529 680.045 123.514 680.514 122.244C680.982 120.955 681.217 119.51 681.217 117.908ZM702.457 107.068V132H694.723V100.301H701.988L702.457 107.068ZM701.227 115.008H698.941C698.961 112.703 699.273 110.613 699.879 108.738C700.484 106.863 701.334 105.252 702.428 103.904C703.541 102.557 704.859 101.521 706.383 100.799C707.906 100.076 709.605 99.7148 711.48 99.7148C713.004 99.7148 714.381 99.9297 715.611 100.359C716.842 100.789 717.896 101.473 718.775 102.41C719.674 103.348 720.357 104.578 720.826 106.102C721.314 107.605 721.559 109.461 721.559 111.668V132H713.766V111.609C713.766 110.164 713.551 109.021 713.121 108.182C712.711 107.342 712.105 106.746 711.305 106.395C710.523 106.043 709.557 105.867 708.404 105.867C707.213 105.867 706.168 106.111 705.27 106.6C704.391 107.068 703.648 107.723 703.043 108.562C702.457 109.402 702.008 110.369 701.695 111.463C701.383 112.557 701.227 113.738 701.227 115.008ZM748.541 100.301H755.572V131.033C755.572 133.904 754.947 136.336 753.697 138.328C752.467 140.34 750.738 141.863 748.512 142.898C746.285 143.953 743.697 144.48 740.748 144.48C739.479 144.48 738.102 144.305 736.617 143.953C735.152 143.602 733.736 143.045 732.369 142.283C731.021 141.541 729.898 140.574 729 139.383L732.486 134.812C733.541 136.043 734.732 136.971 736.061 137.596C737.389 138.24 738.824 138.562 740.367 138.562C741.93 138.562 743.258 138.27 744.352 137.684C745.465 137.117 746.314 136.277 746.9 135.164C747.506 134.07 747.809 132.723 747.809 131.121V107.537L748.541 100.301ZM727.125 116.531V115.916C727.125 113.494 727.418 111.297 728.004 109.324C728.59 107.332 729.43 105.623 730.523 104.197C731.637 102.771 732.975 101.668 734.537 100.887C736.119 100.105 737.896 99.7148 739.869 99.7148C741.959 99.7148 743.717 100.096 745.143 100.857C746.588 101.619 747.779 102.703 748.717 104.109C749.674 105.516 750.416 107.186 750.943 109.119C751.49 111.033 751.91 113.143 752.203 115.447V117.117C751.93 119.363 751.49 121.424 750.885 123.299C750.299 125.174 749.518 126.814 748.541 128.221C747.564 129.607 746.354 130.682 744.908 131.443C743.463 132.205 741.764 132.586 739.811 132.586C737.857 132.586 736.1 132.186 734.537 131.385C732.975 130.584 731.637 129.461 730.523 128.016C729.43 126.57 728.59 124.871 728.004 122.918C727.418 120.965 727.125 118.836 727.125 116.531ZM734.859 115.916V116.531C734.859 117.898 734.996 119.178 735.27 120.369C735.543 121.561 735.963 122.615 736.529 123.533C737.096 124.432 737.809 125.135 738.668 125.643C739.527 126.15 740.553 126.404 741.744 126.404C743.346 126.404 744.654 126.072 745.67 125.408C746.705 124.725 747.486 123.797 748.014 122.625C748.561 121.434 748.912 120.096 749.068 118.611V114.012C748.971 112.84 748.756 111.756 748.424 110.76C748.111 109.764 747.672 108.904 747.105 108.182C746.539 107.459 745.816 106.893 744.938 106.482C744.059 106.072 743.014 105.867 741.803 105.867C740.631 105.867 739.605 106.131 738.727 106.658C737.848 107.166 737.125 107.879 736.559 108.797C735.992 109.715 735.562 110.779 735.27 111.99C734.996 113.201 734.859 114.51 734.859 115.916ZM780.006 125.262V110.643C780.006 109.568 779.82 108.641 779.449 107.859C779.078 107.078 778.512 106.473 777.75 106.043C776.988 105.613 776.021 105.398 774.85 105.398C773.814 105.398 772.906 105.574 772.125 105.926C771.363 106.277 770.777 106.775 770.367 107.42C769.957 108.045 769.752 108.768 769.752 109.588H761.988C761.988 108.279 762.301 107.039 762.926 105.867C763.551 104.676 764.439 103.621 765.592 102.703C766.764 101.766 768.16 101.033 769.781 100.506C771.422 99.9785 773.258 99.7148 775.289 99.7148C777.691 99.7148 779.83 100.125 781.705 100.945C783.6 101.746 785.084 102.957 786.158 104.578C787.252 106.199 787.799 108.24 787.799 110.701V124.529C787.799 126.111 787.896 127.469 788.092 128.602C788.307 129.715 788.619 130.682 789.029 131.502V132H781.148C780.777 131.199 780.494 130.184 780.299 128.953C780.104 127.703 780.006 126.473 780.006 125.262ZM781.09 112.693L781.148 117.293H776.256C775.045 117.293 773.98 117.42 773.062 117.674C772.145 117.908 771.393 118.26 770.807 118.729C770.221 119.178 769.781 119.725 769.488 120.369C769.195 120.994 769.049 121.707 769.049 122.508C769.049 123.289 769.225 123.992 769.576 124.617C769.947 125.242 770.475 125.74 771.158 126.111C771.861 126.463 772.682 126.639 773.619 126.639C774.986 126.639 776.178 126.365 777.193 125.818C778.209 125.252 779 124.568 779.566 123.768C780.133 122.967 780.436 122.205 780.475 121.482L782.701 124.822C782.428 125.623 782.018 126.473 781.471 127.371C780.924 128.27 780.221 129.109 779.361 129.891C778.502 130.672 777.467 131.316 776.256 131.824C775.045 132.332 773.639 132.586 772.037 132.586C769.986 132.586 768.15 132.176 766.529 131.355C764.908 130.535 763.629 129.412 762.691 127.986C761.754 126.561 761.285 124.939 761.285 123.123C761.285 121.443 761.598 119.959 762.223 118.67C762.848 117.381 763.775 116.297 765.006 115.418C766.236 114.52 767.76 113.846 769.576 113.396C771.412 112.928 773.512 112.693 775.875 112.693H781.09ZM803.59 124.383L810.533 100.301H815.455L813.99 108.621L806.988 132H802.74L803.59 124.383ZM799.752 100.301L804.967 124.441L805.436 132H800.543L792.223 100.301H799.752ZM821.9 124.09L826.998 100.301H834.498L826.236 132H821.344L821.9 124.09ZM816.217 100.301L823.102 124.148L824.01 132H819.762L812.701 108.621L811.266 100.301H816.217ZM856.529 125.262V110.643C856.529 109.568 856.344 108.641 855.973 107.859C855.602 107.078 855.035 106.473 854.273 106.043C853.512 105.613 852.545 105.398 851.373 105.398C850.338 105.398 849.43 105.574 848.648 105.926C847.887 106.277 847.301 106.775 846.891 107.42C846.48 108.045 846.275 108.768 846.275 109.588H838.512C838.512 108.279 838.824 107.039 839.449 105.867C840.074 104.676 840.963 103.621 842.115 102.703C843.287 101.766 844.684 101.033 846.305 100.506C847.945 99.9785 849.781 99.7148 851.812 99.7148C854.215 99.7148 856.354 100.125 858.229 100.945C860.123 101.746 861.607 102.957 862.682 104.578C863.775 106.199 864.322 108.24 864.322 110.701V124.529C864.322 126.111 864.42 127.469 864.615 128.602C864.83 129.715 865.143 130.682 865.553 131.502V132H857.672C857.301 131.199 857.018 130.184 856.822 128.953C856.627 127.703 856.529 126.473 856.529 125.262ZM857.613 112.693L857.672 117.293H852.779C851.568 117.293 850.504 117.42 849.586 117.674C848.668 117.908 847.916 118.26 847.33 118.729C846.744 119.178 846.305 119.725 846.012 120.369C845.719 120.994 845.572 121.707 845.572 122.508C845.572 123.289 845.748 123.992 846.1 124.617C846.471 125.242 846.998 125.74 847.682 126.111C848.385 126.463 849.205 126.639 850.143 126.639C851.51 126.639 852.701 126.365 853.717 125.818C854.732 125.252 855.523 124.568 856.09 123.768C856.656 122.967 856.959 122.205 856.998 121.482L859.225 124.822C858.951 125.623 858.541 126.473 857.994 127.371C857.447 128.27 856.744 129.109 855.885 129.891C855.025 130.672 853.99 131.316 852.779 131.824C851.568 132.332 850.162 132.586 848.561 132.586C846.51 132.586 844.674 132.176 843.053 131.355C841.432 130.535 840.152 129.412 839.215 127.986C838.277 126.561 837.809 124.939 837.809 123.123C837.809 121.443 838.121 119.959 838.746 118.67C839.371 117.381 840.299 116.297 841.529 115.418C842.76 114.52 844.283 113.846 846.1 113.396C847.936 112.928 850.035 112.693 852.398 112.693H857.613ZM890.338 89.3438H897.311L908.971 121.453L920.602 89.3438H927.604L911.754 132H906.158L890.338 89.3438ZM886.822 89.3438H893.648L894.879 118.846V132H886.822V89.3438ZM924.264 89.3438H931.119V132H923.062V118.846L924.264 89.3438ZM952.975 132.586C950.572 132.586 948.414 132.195 946.5 131.414C944.586 130.633 942.955 129.549 941.607 128.162C940.279 126.756 939.254 125.125 938.531 123.27C937.828 121.395 937.477 119.383 937.477 117.234V116.062C937.477 113.621 937.828 111.404 938.531 109.412C939.234 107.4 940.23 105.672 941.52 104.227C942.809 102.781 944.352 101.668 946.148 100.887C947.945 100.105 949.928 99.7148 952.096 99.7148C954.342 99.7148 956.324 100.096 958.043 100.857C959.762 101.6 961.197 102.654 962.35 104.021C963.502 105.389 964.371 107.029 964.957 108.943C965.543 110.838 965.836 112.938 965.836 115.242V118.494H940.992V113.162H958.219V112.576C958.18 111.346 957.945 110.223 957.516 109.207C957.086 108.172 956.422 107.352 955.523 106.746C954.625 106.121 953.463 105.809 952.037 105.809C950.885 105.809 949.879 106.062 949.02 106.57C948.18 107.059 947.477 107.762 946.91 108.68C946.363 109.578 945.953 110.652 945.68 111.902C945.406 113.152 945.27 114.539 945.27 116.062V117.234C945.27 118.562 945.445 119.793 945.797 120.926C946.168 122.059 946.705 123.045 947.408 123.885C948.131 124.705 948.99 125.35 949.986 125.818C951.002 126.268 952.154 126.492 953.443 126.492C955.064 126.492 956.529 126.18 957.838 125.555C959.166 124.91 960.318 123.963 961.295 122.713L965.191 126.756C964.527 127.732 963.629 128.67 962.496 129.568C961.383 130.467 960.035 131.199 958.453 131.766C956.871 132.312 955.045 132.586 952.975 132.586ZM990.035 125.262V87H997.828V132H990.797L990.035 125.262ZM969.674 116.531V115.916C969.674 113.494 969.947 111.297 970.494 109.324C971.061 107.332 971.881 105.623 972.955 104.197C974.029 102.771 975.328 101.668 976.852 100.887C978.395 100.105 980.143 99.7148 982.096 99.7148C983.99 99.7148 985.641 100.096 987.047 100.857C988.473 101.619 989.684 102.703 990.68 104.109C991.695 105.516 992.506 107.186 993.111 109.119C993.717 111.033 994.156 113.143 994.43 115.447V117.117C994.156 119.363 993.717 121.424 993.111 123.299C992.506 125.174 991.695 126.814 990.68 128.221C989.684 129.607 988.473 130.682 987.047 131.443C985.621 132.205 983.951 132.586 982.037 132.586C980.104 132.586 978.365 132.186 976.822 131.385C975.299 130.584 974 129.461 972.926 128.016C971.871 126.57 971.061 124.871 970.494 122.918C969.947 120.965 969.674 118.836 969.674 116.531ZM977.438 115.916V116.531C977.438 117.898 977.555 119.178 977.789 120.369C978.023 121.561 978.404 122.615 978.932 123.533C979.459 124.432 980.133 125.135 980.953 125.643C981.793 126.15 982.809 126.404 984 126.404C985.523 126.404 986.773 126.072 987.75 125.408C988.746 124.725 989.518 123.797 990.064 122.625C990.611 121.434 990.963 120.096 991.119 118.611V114.012C991.041 112.84 990.836 111.756 990.504 110.76C990.191 109.764 989.742 108.904 989.156 108.182C988.59 107.459 987.887 106.893 987.047 106.482C986.207 106.072 985.211 105.867 984.059 105.867C982.867 105.867 981.852 106.131 981.012 106.658C980.172 107.166 979.488 107.879 978.961 108.797C978.434 109.715 978.043 110.779 977.789 111.99C977.555 113.201 977.438 114.51 977.438 115.916ZM1013.03 100.301V132H1005.27V100.301H1013.03ZM1004.74 92.0098C1004.74 90.8574 1005.13 89.9004 1005.91 89.1387C1006.71 88.377 1007.79 87.9961 1009.14 87.9961C1010.48 87.9961 1011.55 88.377 1012.33 89.1387C1013.13 89.9004 1013.53 90.8574 1013.53 92.0098C1013.53 93.1426 1013.13 94.0898 1012.33 94.8516C1011.55 95.6133 1010.48 95.9941 1009.14 95.9941C1007.79 95.9941 1006.71 95.6133 1005.91 94.8516C1005.13 94.0898 1004.74 93.1426 1004.74 92.0098ZM1037.88 125.262V110.643C1037.88 109.568 1037.69 108.641 1037.32 107.859C1036.95 107.078 1036.38 106.473 1035.62 106.043C1034.86 105.613 1033.89 105.398 1032.72 105.398C1031.69 105.398 1030.78 105.574 1030 105.926C1029.23 106.277 1028.65 106.775 1028.24 107.42C1027.83 108.045 1027.62 108.768 1027.62 109.588H1019.86C1019.86 108.279 1020.17 107.039 1020.8 105.867C1021.42 104.676 1022.31 103.621 1023.46 102.703C1024.63 101.766 1026.03 101.033 1027.65 100.506C1029.29 99.9785 1031.13 99.7148 1033.16 99.7148C1035.56 99.7148 1037.7 100.125 1039.58 100.945C1041.47 101.746 1042.96 102.957 1044.03 104.578C1045.12 106.199 1045.67 108.24 1045.67 110.701V124.529C1045.67 126.111 1045.77 127.469 1045.96 128.602C1046.18 129.715 1046.49 130.682 1046.9 131.502V132H1039.02C1038.65 131.199 1038.37 130.184 1038.17 128.953C1037.97 127.703 1037.88 126.473 1037.88 125.262ZM1038.96 112.693L1039.02 117.293H1034.13C1032.92 117.293 1031.85 117.42 1030.93 117.674C1030.02 117.908 1029.26 118.26 1028.68 118.729C1028.09 119.178 1027.65 119.725 1027.36 120.369C1027.07 120.994 1026.92 121.707 1026.92 122.508C1026.92 123.289 1027.1 123.992 1027.45 124.617C1027.82 125.242 1028.35 125.74 1029.03 126.111C1029.73 126.463 1030.55 126.639 1031.49 126.639C1032.86 126.639 1034.05 126.365 1035.06 125.818C1036.08 125.252 1036.87 124.568 1037.44 123.768C1038 122.967 1038.31 122.205 1038.35 121.482L1040.57 124.822C1040.3 125.623 1039.89 126.473 1039.34 127.371C1038.79 128.27 1038.09 129.109 1037.23 129.891C1036.37 130.672 1035.34 131.316 1034.13 131.824C1032.92 132.332 1031.51 132.586 1029.91 132.586C1027.86 132.586 1026.02 132.176 1024.4 131.355C1022.78 130.535 1021.5 129.412 1020.56 127.986C1019.62 126.561 1019.16 124.939 1019.16 123.123C1019.16 121.443 1019.47 119.959 1020.09 118.67C1020.72 117.381 1021.65 116.297 1022.88 115.418C1024.11 114.52 1025.63 113.846 1027.45 113.396C1029.28 112.928 1031.38 112.693 1033.75 112.693H1038.96Z" fill="#0B3067"/>
<path d="M372.418 162.094H375.48L381.236 177.447L386.979 162.094H390.041L382.439 182H380.006L372.418 162.094ZM371.023 162.094H373.936L374.441 175.383V182H371.023V162.094ZM388.523 162.094H391.449V182H388.018V175.383L388.523 162.094ZM401.717 182.273C400.623 182.273 399.634 182.096 398.75 181.74C397.875 181.376 397.128 180.87 396.508 180.223C395.897 179.576 395.428 178.814 395.1 177.939C394.771 177.064 394.607 176.121 394.607 175.109V174.562C394.607 173.405 394.776 172.357 395.113 171.418C395.451 170.479 395.92 169.677 396.521 169.012C397.123 168.337 397.834 167.822 398.654 167.467C399.475 167.111 400.363 166.934 401.32 166.934C402.378 166.934 403.303 167.111 404.096 167.467C404.889 167.822 405.545 168.324 406.064 168.971C406.593 169.609 406.985 170.37 407.24 171.254C407.505 172.138 407.637 173.113 407.637 174.18V175.588H396.207V173.223H404.383V172.963C404.365 172.37 404.246 171.814 404.027 171.295C403.818 170.775 403.494 170.356 403.057 170.037C402.619 169.718 402.036 169.559 401.307 169.559C400.76 169.559 400.272 169.677 399.844 169.914C399.424 170.142 399.074 170.475 398.791 170.912C398.508 171.35 398.29 171.878 398.135 172.498C397.989 173.109 397.916 173.797 397.916 174.562V175.109C397.916 175.757 398.003 176.358 398.176 176.914C398.358 177.461 398.622 177.939 398.969 178.35C399.315 178.76 399.734 179.083 400.227 179.32C400.719 179.548 401.279 179.662 401.908 179.662C402.701 179.662 403.408 179.503 404.027 179.184C404.647 178.865 405.185 178.413 405.641 177.83L407.377 179.512C407.058 179.977 406.643 180.423 406.133 180.852C405.622 181.271 404.998 181.613 404.26 181.877C403.531 182.141 402.683 182.273 401.717 182.273ZM413.502 170.215V182H410.207V167.207H413.311L413.502 170.215ZM412.969 174.057L411.848 174.043C411.848 173.022 411.975 172.079 412.23 171.213C412.486 170.347 412.859 169.595 413.352 168.957C413.844 168.31 414.454 167.813 415.184 167.467C415.922 167.111 416.774 166.934 417.74 166.934C418.415 166.934 419.03 167.034 419.586 167.234C420.151 167.426 420.639 167.731 421.049 168.15C421.468 168.57 421.787 169.107 422.006 169.764C422.234 170.42 422.348 171.213 422.348 172.143V182H419.053V172.43C419.053 171.71 418.943 171.145 418.725 170.734C418.515 170.324 418.21 170.033 417.809 169.859C417.417 169.677 416.947 169.586 416.4 169.586C415.781 169.586 415.252 169.704 414.814 169.941C414.386 170.178 414.035 170.502 413.762 170.912C413.488 171.322 413.288 171.796 413.16 172.334C413.033 172.872 412.969 173.446 412.969 174.057ZM422.143 173.182L420.598 173.523C420.598 172.63 420.721 171.787 420.967 170.994C421.222 170.192 421.591 169.49 422.074 168.889C422.566 168.278 423.173 167.799 423.893 167.453C424.613 167.107 425.438 166.934 426.367 166.934C427.124 166.934 427.798 167.038 428.391 167.248C428.992 167.449 429.503 167.768 429.922 168.205C430.341 168.643 430.66 169.212 430.879 169.914C431.098 170.607 431.207 171.445 431.207 172.43V182H427.898V172.416C427.898 171.669 427.789 171.09 427.57 170.68C427.361 170.27 427.06 169.987 426.668 169.832C426.276 169.668 425.807 169.586 425.26 169.586C424.749 169.586 424.298 169.682 423.906 169.873C423.523 170.055 423.2 170.315 422.936 170.652C422.671 170.98 422.471 171.359 422.334 171.787C422.206 172.215 422.143 172.68 422.143 173.182ZM434.611 161H437.906V178.842L437.592 182H434.611V161ZM447.559 174.467V174.754C447.559 175.848 447.436 176.855 447.189 177.775C446.952 178.687 446.588 179.48 446.096 180.154C445.613 180.829 445.011 181.353 444.291 181.727C443.58 182.091 442.755 182.273 441.816 182.273C440.896 182.273 440.094 182.1 439.41 181.754C438.727 181.408 438.152 180.915 437.688 180.277C437.232 179.639 436.863 178.878 436.58 177.994C436.298 177.11 436.097 176.135 435.979 175.068V174.152C436.097 173.077 436.298 172.102 436.58 171.227C436.863 170.342 437.232 169.581 437.688 168.943C438.152 168.296 438.722 167.799 439.396 167.453C440.08 167.107 440.878 166.934 441.789 166.934C442.737 166.934 443.571 167.116 444.291 167.48C445.02 167.845 445.626 168.365 446.109 169.039C446.592 169.704 446.952 170.497 447.189 171.418C447.436 172.339 447.559 173.355 447.559 174.467ZM444.264 174.754V174.467C444.264 173.801 444.209 173.177 444.1 172.594C443.99 172.001 443.808 171.482 443.553 171.035C443.307 170.589 442.969 170.238 442.541 169.982C442.122 169.718 441.598 169.586 440.969 169.586C440.385 169.586 439.884 169.686 439.465 169.887C439.046 170.087 438.695 170.361 438.412 170.707C438.13 171.053 437.906 171.454 437.742 171.91C437.587 172.366 437.482 172.858 437.428 173.387V175.861C437.51 176.545 437.683 177.174 437.947 177.748C438.221 178.313 438.604 178.769 439.096 179.115C439.588 179.452 440.221 179.621 440.996 179.621C441.607 179.621 442.122 179.498 442.541 179.252C442.96 179.006 443.293 178.664 443.539 178.227C443.794 177.78 443.977 177.26 444.086 176.668C444.204 176.076 444.264 175.438 444.264 174.754ZM458.688 179.033V171.979C458.688 171.45 458.592 170.994 458.4 170.611C458.209 170.229 457.917 169.932 457.525 169.723C457.143 169.513 456.66 169.408 456.076 169.408C455.538 169.408 455.074 169.499 454.682 169.682C454.29 169.864 453.984 170.11 453.766 170.42C453.547 170.73 453.438 171.081 453.438 171.473H450.156C450.156 170.889 450.298 170.324 450.58 169.777C450.863 169.23 451.273 168.743 451.811 168.314C452.348 167.886 452.991 167.549 453.738 167.303C454.486 167.057 455.324 166.934 456.254 166.934C457.366 166.934 458.35 167.12 459.207 167.494C460.073 167.868 460.752 168.433 461.244 169.189C461.745 169.937 461.996 170.876 461.996 172.006V178.582C461.996 179.257 462.042 179.863 462.133 180.4C462.233 180.929 462.374 181.389 462.557 181.781V182H459.18C459.025 181.645 458.902 181.193 458.811 180.646C458.729 180.09 458.688 179.553 458.688 179.033ZM459.166 173.004L459.193 175.041H456.828C456.217 175.041 455.68 175.1 455.215 175.219C454.75 175.328 454.363 175.492 454.053 175.711C453.743 175.93 453.51 176.194 453.355 176.504C453.201 176.814 453.123 177.165 453.123 177.557C453.123 177.949 453.214 178.309 453.396 178.637C453.579 178.956 453.843 179.206 454.189 179.389C454.545 179.571 454.973 179.662 455.475 179.662C456.149 179.662 456.737 179.525 457.238 179.252C457.749 178.969 458.15 178.628 458.441 178.227C458.733 177.816 458.888 177.429 458.906 177.064L459.973 178.527C459.863 178.901 459.676 179.302 459.412 179.73C459.148 180.159 458.801 180.569 458.373 180.961C457.954 181.344 457.448 181.658 456.855 181.904C456.272 182.15 455.598 182.273 454.832 182.273C453.866 182.273 453.005 182.082 452.248 181.699C451.492 181.307 450.899 180.783 450.471 180.127C450.042 179.462 449.828 178.71 449.828 177.871C449.828 177.087 449.974 176.395 450.266 175.793C450.566 175.182 451.004 174.672 451.578 174.262C452.161 173.852 452.872 173.542 453.711 173.332C454.549 173.113 455.507 173.004 456.582 173.004H459.166ZM468.709 170.365V182H465.414V167.207H468.518L468.709 170.365ZM468.121 174.057L467.055 174.043C467.064 172.995 467.21 172.033 467.492 171.158C467.784 170.283 468.185 169.531 468.695 168.902C469.215 168.273 469.835 167.79 470.555 167.453C471.275 167.107 472.077 166.934 472.961 166.934C473.672 166.934 474.314 167.034 474.889 167.234C475.472 167.426 475.969 167.74 476.379 168.178C476.798 168.615 477.117 169.185 477.336 169.887C477.555 170.579 477.664 171.432 477.664 172.443V182H474.355V172.43C474.355 171.719 474.251 171.158 474.041 170.748C473.84 170.329 473.544 170.033 473.152 169.859C472.77 169.677 472.291 169.586 471.717 169.586C471.152 169.586 470.646 169.704 470.199 169.941C469.753 170.178 469.374 170.502 469.064 170.912C468.764 171.322 468.531 171.796 468.367 172.334C468.203 172.872 468.121 173.446 468.121 174.057ZM490.502 167.207H493.496V181.59C493.496 182.921 493.214 184.051 492.648 184.98C492.083 185.91 491.295 186.617 490.283 187.1C489.271 187.592 488.1 187.838 486.77 187.838C486.204 187.838 485.576 187.756 484.883 187.592C484.199 187.428 483.534 187.163 482.887 186.799C482.249 186.443 481.715 185.974 481.287 185.391L482.832 183.449C483.361 184.078 483.944 184.538 484.582 184.83C485.22 185.122 485.89 185.268 486.592 185.268C487.348 185.268 487.991 185.126 488.52 184.844C489.057 184.57 489.472 184.165 489.764 183.627C490.055 183.089 490.201 182.433 490.201 181.658V170.557L490.502 167.207ZM480.453 174.768V174.48C480.453 173.359 480.59 172.339 480.863 171.418C481.137 170.488 481.529 169.691 482.039 169.025C482.549 168.351 483.169 167.836 483.898 167.48C484.628 167.116 485.452 166.934 486.373 166.934C487.33 166.934 488.146 167.107 488.82 167.453C489.504 167.799 490.074 168.296 490.529 168.943C490.985 169.581 491.34 170.347 491.596 171.24C491.86 172.124 492.056 173.109 492.184 174.193V175.109C492.065 176.167 491.865 177.133 491.582 178.008C491.299 178.883 490.926 179.639 490.461 180.277C489.996 180.915 489.422 181.408 488.738 181.754C488.064 182.1 487.266 182.273 486.346 182.273C485.443 182.273 484.628 182.087 483.898 181.713C483.178 181.339 482.559 180.815 482.039 180.141C481.529 179.466 481.137 178.673 480.863 177.762C480.59 176.841 480.453 175.843 480.453 174.768ZM483.748 174.48V174.768C483.748 175.442 483.812 176.071 483.939 176.654C484.076 177.238 484.281 177.753 484.555 178.199C484.837 178.637 485.193 178.983 485.621 179.238C486.059 179.484 486.574 179.607 487.166 179.607C487.941 179.607 488.574 179.443 489.066 179.115C489.568 178.787 489.951 178.345 490.215 177.789C490.488 177.224 490.68 176.595 490.789 175.902V173.428C490.734 172.89 490.62 172.389 490.447 171.924C490.283 171.459 490.06 171.053 489.777 170.707C489.495 170.352 489.139 170.078 488.711 169.887C488.283 169.686 487.777 169.586 487.193 169.586C486.601 169.586 486.086 169.714 485.648 169.969C485.211 170.224 484.851 170.575 484.568 171.021C484.295 171.468 484.09 171.988 483.953 172.58C483.816 173.173 483.748 173.806 483.748 174.48ZM505.814 178.514V167.207H509.123V182H506.006L505.814 178.514ZM506.279 175.438L507.387 175.41C507.387 176.404 507.277 177.32 507.059 178.158C506.84 178.988 506.503 179.712 506.047 180.332C505.591 180.943 505.008 181.421 504.297 181.768C503.586 182.105 502.734 182.273 501.74 182.273C501.02 182.273 500.359 182.169 499.758 181.959C499.156 181.749 498.637 181.426 498.199 180.988C497.771 180.551 497.438 179.981 497.201 179.279C496.964 178.577 496.846 177.739 496.846 176.764V167.207H500.141V176.791C500.141 177.329 500.204 177.78 500.332 178.145C500.46 178.5 500.633 178.787 500.852 179.006C501.07 179.225 501.326 179.38 501.617 179.471C501.909 179.562 502.219 179.607 502.547 179.607C503.486 179.607 504.224 179.425 504.762 179.061C505.309 178.687 505.696 178.186 505.924 177.557C506.161 176.928 506.279 176.221 506.279 175.438ZM515.768 170.365V182H512.473V167.207H515.576L515.768 170.365ZM515.18 174.057L514.113 174.043C514.122 172.995 514.268 172.033 514.551 171.158C514.842 170.283 515.243 169.531 515.754 168.902C516.273 168.273 516.893 167.79 517.613 167.453C518.333 167.107 519.135 166.934 520.02 166.934C520.73 166.934 521.373 167.034 521.947 167.234C522.531 167.426 523.027 167.74 523.438 168.178C523.857 168.615 524.176 169.185 524.395 169.887C524.613 170.579 524.723 171.432 524.723 172.443V182H521.414V172.43C521.414 171.719 521.309 171.158 521.1 170.748C520.899 170.329 520.603 170.033 520.211 169.859C519.828 169.677 519.35 169.586 518.775 169.586C518.21 169.586 517.704 169.704 517.258 169.941C516.811 170.178 516.433 170.502 516.123 170.912C515.822 171.322 515.59 171.796 515.426 172.334C515.262 172.872 515.18 173.446 515.18 174.057ZM543.357 177.994C543.357 177.666 543.275 177.37 543.111 177.105C542.947 176.832 542.633 176.586 542.168 176.367C541.712 176.148 541.038 175.948 540.145 175.766C539.361 175.592 538.641 175.387 537.984 175.15C537.337 174.904 536.781 174.608 536.316 174.262C535.852 173.915 535.492 173.505 535.236 173.031C534.981 172.557 534.854 172.01 534.854 171.391C534.854 170.789 534.986 170.219 535.25 169.682C535.514 169.144 535.893 168.67 536.385 168.26C536.877 167.85 537.474 167.526 538.176 167.289C538.887 167.052 539.68 166.934 540.555 166.934C541.794 166.934 542.856 167.143 543.74 167.562C544.633 167.973 545.317 168.533 545.791 169.244C546.265 169.946 546.502 170.739 546.502 171.623H543.207C543.207 171.231 543.107 170.867 542.906 170.529C542.715 170.183 542.423 169.905 542.031 169.695C541.639 169.477 541.147 169.367 540.555 169.367C539.99 169.367 539.52 169.458 539.146 169.641C538.782 169.814 538.508 170.042 538.326 170.324C538.153 170.607 538.066 170.917 538.066 171.254C538.066 171.5 538.112 171.723 538.203 171.924C538.303 172.115 538.467 172.293 538.695 172.457C538.923 172.612 539.233 172.758 539.625 172.895C540.026 173.031 540.527 173.163 541.129 173.291C542.259 173.528 543.23 173.833 544.041 174.207C544.861 174.572 545.49 175.046 545.928 175.629C546.365 176.203 546.584 176.932 546.584 177.816C546.584 178.473 546.443 179.074 546.16 179.621C545.887 180.159 545.486 180.628 544.957 181.029C544.428 181.421 543.795 181.727 543.057 181.945C542.327 182.164 541.507 182.273 540.596 182.273C539.256 182.273 538.121 182.036 537.191 181.562C536.262 181.079 535.555 180.464 535.072 179.717C534.598 178.96 534.361 178.176 534.361 177.365H537.547C537.583 177.976 537.752 178.464 538.053 178.828C538.363 179.184 538.745 179.443 539.201 179.607C539.666 179.762 540.145 179.84 540.637 179.84C541.229 179.84 541.726 179.762 542.127 179.607C542.528 179.443 542.833 179.225 543.043 178.951C543.253 178.669 543.357 178.35 543.357 177.994ZM548.84 174.768V174.453C548.84 173.387 548.995 172.398 549.305 171.486C549.615 170.566 550.061 169.768 550.645 169.094C551.237 168.41 551.957 167.882 552.805 167.508C553.661 167.125 554.628 166.934 555.703 166.934C556.788 166.934 557.754 167.125 558.602 167.508C559.458 167.882 560.183 168.41 560.775 169.094C561.368 169.768 561.819 170.566 562.129 171.486C562.439 172.398 562.594 173.387 562.594 174.453V174.768C562.594 175.834 562.439 176.823 562.129 177.734C561.819 178.646 561.368 179.443 560.775 180.127C560.183 180.801 559.463 181.33 558.615 181.713C557.768 182.087 556.806 182.273 555.73 182.273C554.646 182.273 553.675 182.087 552.818 181.713C551.971 181.33 551.251 180.801 550.658 180.127C550.066 179.443 549.615 178.646 549.305 177.734C548.995 176.823 548.84 175.834 548.84 174.768ZM552.135 174.453V174.768C552.135 175.433 552.203 176.062 552.34 176.654C552.477 177.247 552.691 177.766 552.982 178.213C553.274 178.66 553.648 179.01 554.104 179.266C554.559 179.521 555.102 179.648 555.73 179.648C556.341 179.648 556.87 179.521 557.316 179.266C557.772 179.01 558.146 178.66 558.438 178.213C558.729 177.766 558.943 177.247 559.08 176.654C559.226 176.062 559.299 175.433 559.299 174.768V174.453C559.299 173.797 559.226 173.177 559.08 172.594C558.943 172.001 558.725 171.477 558.424 171.021C558.132 170.566 557.758 170.21 557.303 169.955C556.856 169.691 556.323 169.559 555.703 169.559C555.083 169.559 554.546 169.691 554.09 169.955C553.643 170.21 553.274 170.566 552.982 171.021C552.691 171.477 552.477 172.001 552.34 172.594C552.203 173.177 552.135 173.797 552.135 174.453ZM568.883 161V182H565.574V161H568.883ZM581.393 178.514V167.207H584.701V182H581.584L581.393 178.514ZM581.857 175.438L582.965 175.41C582.965 176.404 582.855 177.32 582.637 178.158C582.418 178.988 582.081 179.712 581.625 180.332C581.169 180.943 580.586 181.421 579.875 181.768C579.164 182.105 578.312 182.273 577.318 182.273C576.598 182.273 575.938 182.169 575.336 181.959C574.734 181.749 574.215 181.426 573.777 180.988C573.349 180.551 573.016 179.981 572.779 179.279C572.542 178.577 572.424 177.739 572.424 176.764V167.207H575.719V176.791C575.719 177.329 575.783 177.78 575.91 178.145C576.038 178.5 576.211 178.787 576.43 179.006C576.648 179.225 576.904 179.38 577.195 179.471C577.487 179.562 577.797 179.607 578.125 179.607C579.064 179.607 579.802 179.425 580.34 179.061C580.887 178.687 581.274 178.186 581.502 177.557C581.739 176.928 581.857 176.221 581.857 175.438ZM596.377 177.994C596.377 177.666 596.295 177.37 596.131 177.105C595.967 176.832 595.652 176.586 595.188 176.367C594.732 176.148 594.057 175.948 593.164 175.766C592.38 175.592 591.66 175.387 591.004 175.15C590.357 174.904 589.801 174.608 589.336 174.262C588.871 173.915 588.511 173.505 588.256 173.031C588.001 172.557 587.873 172.01 587.873 171.391C587.873 170.789 588.005 170.219 588.27 169.682C588.534 169.144 588.912 168.67 589.404 168.26C589.896 167.85 590.493 167.526 591.195 167.289C591.906 167.052 592.699 166.934 593.574 166.934C594.814 166.934 595.876 167.143 596.76 167.562C597.653 167.973 598.337 168.533 598.811 169.244C599.285 169.946 599.521 170.739 599.521 171.623H596.227C596.227 171.231 596.126 170.867 595.926 170.529C595.734 170.183 595.443 169.905 595.051 169.695C594.659 169.477 594.167 169.367 593.574 169.367C593.009 169.367 592.54 169.458 592.166 169.641C591.801 169.814 591.528 170.042 591.346 170.324C591.173 170.607 591.086 170.917 591.086 171.254C591.086 171.5 591.132 171.723 591.223 171.924C591.323 172.115 591.487 172.293 591.715 172.457C591.943 172.612 592.253 172.758 592.645 172.895C593.046 173.031 593.547 173.163 594.148 173.291C595.279 173.528 596.249 173.833 597.061 174.207C597.881 174.572 598.51 175.046 598.947 175.629C599.385 176.203 599.604 176.932 599.604 177.816C599.604 178.473 599.462 179.074 599.18 179.621C598.906 180.159 598.505 180.628 597.977 181.029C597.448 181.421 596.814 181.727 596.076 181.945C595.347 182.164 594.527 182.273 593.615 182.273C592.275 182.273 591.141 182.036 590.211 181.562C589.281 181.079 588.575 180.464 588.092 179.717C587.618 178.96 587.381 178.176 587.381 177.365H590.566C590.603 177.976 590.771 178.464 591.072 178.828C591.382 179.184 591.765 179.443 592.221 179.607C592.686 179.762 593.164 179.84 593.656 179.84C594.249 179.84 594.745 179.762 595.146 179.607C595.548 179.443 595.853 179.225 596.062 178.951C596.272 178.669 596.377 178.35 596.377 177.994ZM606.016 167.207V182H602.707V167.207H606.016ZM602.488 163.324C602.488 162.823 602.652 162.408 602.98 162.08C603.318 161.743 603.783 161.574 604.375 161.574C604.958 161.574 605.419 161.743 605.756 162.08C606.093 162.408 606.262 162.823 606.262 163.324C606.262 163.816 606.093 164.227 605.756 164.555C605.419 164.883 604.958 165.047 604.375 165.047C603.783 165.047 603.318 164.883 602.98 164.555C602.652 164.227 602.488 163.816 602.488 163.324ZM625.621 178.938V161H628.93V182H625.936L625.621 178.938ZM615.996 174.768V174.48C615.996 173.359 616.128 172.339 616.393 171.418C616.657 170.488 617.04 169.691 617.541 169.025C618.042 168.351 618.653 167.836 619.373 167.48C620.093 167.116 620.904 166.934 621.807 166.934C622.7 166.934 623.484 167.107 624.158 167.453C624.833 167.799 625.407 168.296 625.881 168.943C626.355 169.581 626.733 170.347 627.016 171.24C627.298 172.124 627.499 173.109 627.617 174.193V175.109C627.499 176.167 627.298 177.133 627.016 178.008C626.733 178.883 626.355 179.639 625.881 180.277C625.407 180.915 624.828 181.408 624.145 181.754C623.47 182.1 622.682 182.273 621.779 182.273C620.886 182.273 620.079 182.087 619.359 181.713C618.648 181.339 618.042 180.815 617.541 180.141C617.04 179.466 616.657 178.673 616.393 177.762C616.128 176.841 615.996 175.843 615.996 174.768ZM619.291 174.48V174.768C619.291 175.442 619.35 176.071 619.469 176.654C619.596 177.238 619.792 177.753 620.057 178.199C620.321 178.637 620.663 178.983 621.082 179.238C621.51 179.484 622.021 179.607 622.613 179.607C623.361 179.607 623.976 179.443 624.459 179.115C624.942 178.787 625.32 178.345 625.594 177.789C625.876 177.224 626.068 176.595 626.168 175.902V173.428C626.113 172.89 625.999 172.389 625.826 171.924C625.662 171.459 625.439 171.053 625.156 170.707C624.874 170.352 624.523 170.078 624.104 169.887C623.693 169.686 623.206 169.586 622.641 169.586C622.039 169.586 621.529 169.714 621.109 169.969C620.69 170.224 620.344 170.575 620.07 171.021C619.806 171.468 619.61 171.988 619.482 172.58C619.355 173.173 619.291 173.806 619.291 174.48ZM635.902 167.207V182H632.594V167.207H635.902ZM632.375 163.324C632.375 162.823 632.539 162.408 632.867 162.08C633.204 161.743 633.669 161.574 634.262 161.574C634.845 161.574 635.305 161.743 635.643 162.08C635.98 162.408 636.148 162.823 636.148 163.324C636.148 163.816 635.98 164.227 635.643 164.555C635.305 164.883 634.845 165.047 634.262 165.047C633.669 165.047 633.204 164.883 632.867 164.555C632.539 164.227 632.375 163.816 632.375 163.324ZM648.986 167.207H651.98V181.59C651.98 182.921 651.698 184.051 651.133 184.98C650.568 185.91 649.779 186.617 648.768 187.1C647.756 187.592 646.585 187.838 645.254 187.838C644.689 187.838 644.06 187.756 643.367 187.592C642.684 187.428 642.018 187.163 641.371 186.799C640.733 186.443 640.2 185.974 639.771 185.391L641.316 183.449C641.845 184.078 642.428 184.538 643.066 184.83C643.704 185.122 644.374 185.268 645.076 185.268C645.833 185.268 646.475 185.126 647.004 184.844C647.542 184.57 647.956 184.165 648.248 183.627C648.54 183.089 648.686 182.433 648.686 181.658V170.557L648.986 167.207ZM638.938 174.768V174.48C638.938 173.359 639.074 172.339 639.348 171.418C639.621 170.488 640.013 169.691 640.523 169.025C641.034 168.351 641.654 167.836 642.383 167.48C643.112 167.116 643.937 166.934 644.857 166.934C645.814 166.934 646.63 167.107 647.305 167.453C647.988 167.799 648.558 168.296 649.014 168.943C649.469 169.581 649.825 170.347 650.08 171.24C650.344 172.124 650.54 173.109 650.668 174.193V175.109C650.549 176.167 650.349 177.133 650.066 178.008C649.784 178.883 649.41 179.639 648.945 180.277C648.48 180.915 647.906 181.408 647.223 181.754C646.548 182.1 645.751 182.273 644.83 182.273C643.928 182.273 643.112 182.087 642.383 181.713C641.663 181.339 641.043 180.815 640.523 180.141C640.013 179.466 639.621 178.673 639.348 177.762C639.074 176.841 638.938 175.843 638.938 174.768ZM642.232 174.48V174.768C642.232 175.442 642.296 176.071 642.424 176.654C642.561 177.238 642.766 177.753 643.039 178.199C643.322 178.637 643.677 178.983 644.105 179.238C644.543 179.484 645.058 179.607 645.65 179.607C646.425 179.607 647.059 179.443 647.551 179.115C648.052 178.787 648.435 178.345 648.699 177.789C648.973 177.224 649.164 176.595 649.273 175.902V173.428C649.219 172.89 649.105 172.389 648.932 171.924C648.768 171.459 648.544 171.053 648.262 170.707C647.979 170.352 647.624 170.078 647.195 169.887C646.767 169.686 646.261 169.586 645.678 169.586C645.085 169.586 644.57 169.714 644.133 169.969C643.695 170.224 643.335 170.575 643.053 171.021C642.779 171.468 642.574 171.988 642.438 172.58C642.301 173.173 642.232 173.806 642.232 174.48ZM658.926 167.207V182H655.617V167.207H658.926ZM655.398 163.324C655.398 162.823 655.562 162.408 655.891 162.08C656.228 161.743 656.693 161.574 657.285 161.574C657.868 161.574 658.329 161.743 658.666 162.08C659.003 162.408 659.172 162.823 659.172 163.324C659.172 163.816 659.003 164.227 658.666 164.555C658.329 164.883 657.868 165.047 657.285 165.047C656.693 165.047 656.228 164.883 655.891 164.555C655.562 164.227 655.398 163.816 655.398 163.324ZM669.316 167.207V169.613H660.977V167.207H669.316ZM663.383 163.584H666.678V177.912C666.678 178.368 666.742 178.719 666.869 178.965C667.006 179.202 667.193 179.361 667.43 179.443C667.667 179.525 667.945 179.566 668.264 179.566C668.492 179.566 668.71 179.553 668.92 179.525C669.13 179.498 669.298 179.471 669.426 179.443L669.439 181.959C669.166 182.041 668.847 182.114 668.482 182.178C668.127 182.242 667.717 182.273 667.252 182.273C666.495 182.273 665.826 182.141 665.242 181.877C664.659 181.604 664.203 181.161 663.875 180.551C663.547 179.94 663.383 179.129 663.383 178.117V163.584ZM680.199 179.033V171.979C680.199 171.45 680.104 170.994 679.912 170.611C679.721 170.229 679.429 169.932 679.037 169.723C678.654 169.513 678.171 169.408 677.588 169.408C677.05 169.408 676.585 169.499 676.193 169.682C675.801 169.864 675.496 170.11 675.277 170.42C675.059 170.73 674.949 171.081 674.949 171.473H671.668C671.668 170.889 671.809 170.324 672.092 169.777C672.374 169.23 672.785 168.743 673.322 168.314C673.86 167.886 674.503 167.549 675.25 167.303C675.997 167.057 676.836 166.934 677.766 166.934C678.878 166.934 679.862 167.12 680.719 167.494C681.585 167.868 682.264 168.433 682.756 169.189C683.257 169.937 683.508 170.876 683.508 172.006V178.582C683.508 179.257 683.553 179.863 683.645 180.4C683.745 180.929 683.886 181.389 684.068 181.781V182H680.691C680.536 181.645 680.413 181.193 680.322 180.646C680.24 180.09 680.199 179.553 680.199 179.033ZM680.678 173.004L680.705 175.041H678.34C677.729 175.041 677.191 175.1 676.727 175.219C676.262 175.328 675.874 175.492 675.564 175.711C675.255 175.93 675.022 176.194 674.867 176.504C674.712 176.814 674.635 177.165 674.635 177.557C674.635 177.949 674.726 178.309 674.908 178.637C675.09 178.956 675.355 179.206 675.701 179.389C676.057 179.571 676.485 179.662 676.986 179.662C677.661 179.662 678.249 179.525 678.75 179.252C679.26 178.969 679.661 178.628 679.953 178.227C680.245 177.816 680.4 177.429 680.418 177.064L681.484 178.527C681.375 178.901 681.188 179.302 680.924 179.73C680.66 180.159 680.313 180.569 679.885 180.961C679.465 181.344 678.96 181.658 678.367 181.904C677.784 182.15 677.109 182.273 676.344 182.273C675.378 182.273 674.516 182.082 673.76 181.699C673.003 181.307 672.411 180.783 671.982 180.127C671.554 179.462 671.34 178.71 671.34 177.871C671.34 177.087 671.486 176.395 671.777 175.793C672.078 175.182 672.516 174.672 673.09 174.262C673.673 173.852 674.384 173.542 675.223 173.332C676.061 173.113 677.018 173.004 678.094 173.004H680.678ZM690.48 161V182H687.172V161H690.48ZM696.113 179.416V181.33C696.113 182.169 695.94 182.975 695.594 183.75C695.247 184.534 694.778 185.195 694.186 185.732L693.229 185.021C693.511 184.639 693.748 184.256 693.939 183.873C694.131 183.499 694.272 183.107 694.363 182.697C694.464 182.287 694.514 181.845 694.514 181.371V179.416H696.113ZM709.607 170.215V182H706.312V167.207H709.416L709.607 170.215ZM709.074 174.057L707.953 174.043C707.953 173.022 708.081 172.079 708.336 171.213C708.591 170.347 708.965 169.595 709.457 168.957C709.949 168.31 710.56 167.813 711.289 167.467C712.027 167.111 712.88 166.934 713.846 166.934C714.52 166.934 715.135 167.034 715.691 167.234C716.257 167.426 716.744 167.731 717.154 168.15C717.574 168.57 717.893 169.107 718.111 169.764C718.339 170.42 718.453 171.213 718.453 172.143V182H715.158V172.43C715.158 171.71 715.049 171.145 714.83 170.734C714.62 170.324 714.315 170.033 713.914 169.859C713.522 169.677 713.053 169.586 712.506 169.586C711.886 169.586 711.357 169.704 710.92 169.941C710.492 170.178 710.141 170.502 709.867 170.912C709.594 171.322 709.393 171.796 709.266 172.334C709.138 172.872 709.074 173.446 709.074 174.057ZM718.248 173.182L716.703 173.523C716.703 172.63 716.826 171.787 717.072 170.994C717.327 170.192 717.697 169.49 718.18 168.889C718.672 168.278 719.278 167.799 719.998 167.453C720.718 167.107 721.543 166.934 722.473 166.934C723.229 166.934 723.904 167.038 724.496 167.248C725.098 167.449 725.608 167.768 726.027 168.205C726.447 168.643 726.766 169.212 726.984 169.914C727.203 170.607 727.312 171.445 727.312 172.43V182H724.004V172.416C724.004 171.669 723.895 171.09 723.676 170.68C723.466 170.27 723.165 169.987 722.773 169.832C722.382 169.668 721.912 169.586 721.365 169.586C720.855 169.586 720.404 169.682 720.012 169.873C719.629 170.055 719.305 170.315 719.041 170.652C718.777 170.98 718.576 171.359 718.439 171.787C718.312 172.215 718.248 172.68 718.248 173.182ZM737.225 182.273C736.131 182.273 735.142 182.096 734.258 181.74C733.383 181.376 732.635 180.87 732.016 180.223C731.405 179.576 730.936 178.814 730.607 177.939C730.279 177.064 730.115 176.121 730.115 175.109V174.562C730.115 173.405 730.284 172.357 730.621 171.418C730.958 170.479 731.428 169.677 732.029 169.012C732.631 168.337 733.342 167.822 734.162 167.467C734.982 167.111 735.871 166.934 736.828 166.934C737.885 166.934 738.811 167.111 739.604 167.467C740.396 167.822 741.053 168.324 741.572 168.971C742.101 169.609 742.493 170.37 742.748 171.254C743.012 172.138 743.145 173.113 743.145 174.18V175.588H731.715V173.223H739.891V172.963C739.872 172.37 739.754 171.814 739.535 171.295C739.326 170.775 739.002 170.356 738.564 170.037C738.127 169.718 737.544 169.559 736.814 169.559C736.268 169.559 735.78 169.677 735.352 169.914C734.932 170.142 734.581 170.475 734.299 170.912C734.016 171.35 733.798 171.878 733.643 172.498C733.497 173.109 733.424 173.797 733.424 174.562V175.109C733.424 175.757 733.51 176.358 733.684 176.914C733.866 177.461 734.13 177.939 734.477 178.35C734.823 178.76 735.242 179.083 735.734 179.32C736.227 179.548 736.787 179.662 737.416 179.662C738.209 179.662 738.915 179.503 739.535 179.184C740.155 178.865 740.693 178.413 741.148 177.83L742.885 179.512C742.566 179.977 742.151 180.423 741.641 180.852C741.13 181.271 740.506 181.613 739.768 181.877C739.038 182.141 738.191 182.273 737.225 182.273ZM748.982 170.365V182H745.688V167.207H748.791L748.982 170.365ZM748.395 174.057L747.328 174.043C747.337 172.995 747.483 172.033 747.766 171.158C748.057 170.283 748.458 169.531 748.969 168.902C749.488 168.273 750.108 167.79 750.828 167.453C751.548 167.107 752.35 166.934 753.234 166.934C753.945 166.934 754.588 167.034 755.162 167.234C755.745 167.426 756.242 167.74 756.652 168.178C757.072 168.615 757.391 169.185 757.609 169.887C757.828 170.579 757.938 171.432 757.938 172.443V182H754.629V172.43C754.629 171.719 754.524 171.158 754.314 170.748C754.114 170.329 753.818 170.033 753.426 169.859C753.043 169.677 752.564 169.586 751.99 169.586C751.425 169.586 750.919 169.704 750.473 169.941C750.026 170.178 749.648 170.502 749.338 170.912C749.037 171.322 748.805 171.796 748.641 172.334C748.477 172.872 748.395 173.446 748.395 174.057ZM770.775 167.207H773.77V181.59C773.77 182.921 773.487 184.051 772.922 184.98C772.357 185.91 771.568 186.617 770.557 187.1C769.545 187.592 768.374 187.838 767.043 187.838C766.478 187.838 765.849 187.756 765.156 187.592C764.473 187.428 763.807 187.163 763.16 186.799C762.522 186.443 761.989 185.974 761.561 185.391L763.105 183.449C763.634 184.078 764.217 184.538 764.855 184.83C765.493 185.122 766.163 185.268 766.865 185.268C767.622 185.268 768.264 185.126 768.793 184.844C769.331 184.57 769.745 184.165 770.037 183.627C770.329 183.089 770.475 182.433 770.475 181.658V170.557L770.775 167.207ZM760.727 174.768V174.48C760.727 173.359 760.863 172.339 761.137 171.418C761.41 170.488 761.802 169.691 762.312 169.025C762.823 168.351 763.443 167.836 764.172 167.48C764.901 167.116 765.726 166.934 766.646 166.934C767.604 166.934 768.419 167.107 769.094 167.453C769.777 167.799 770.347 168.296 770.803 168.943C771.258 169.581 771.614 170.347 771.869 171.24C772.133 172.124 772.329 173.109 772.457 174.193V175.109C772.339 176.167 772.138 177.133 771.855 178.008C771.573 178.883 771.199 179.639 770.734 180.277C770.27 180.915 769.695 181.408 769.012 181.754C768.337 182.1 767.54 182.273 766.619 182.273C765.717 182.273 764.901 182.087 764.172 181.713C763.452 181.339 762.832 180.815 762.312 180.141C761.802 179.466 761.41 178.673 761.137 177.762C760.863 176.841 760.727 175.843 760.727 174.768ZM764.021 174.48V174.768C764.021 175.442 764.085 176.071 764.213 176.654C764.35 177.238 764.555 177.753 764.828 178.199C765.111 178.637 765.466 178.983 765.895 179.238C766.332 179.484 766.847 179.607 767.439 179.607C768.214 179.607 768.848 179.443 769.34 179.115C769.841 178.787 770.224 178.345 770.488 177.789C770.762 177.224 770.953 176.595 771.062 175.902V173.428C771.008 172.89 770.894 172.389 770.721 171.924C770.557 171.459 770.333 171.053 770.051 170.707C769.768 170.352 769.413 170.078 768.984 169.887C768.556 169.686 768.05 169.586 767.467 169.586C766.874 169.586 766.359 169.714 765.922 169.969C765.484 170.224 765.124 170.575 764.842 171.021C764.568 171.468 764.363 171.988 764.227 172.58C764.09 173.173 764.021 173.806 764.021 174.48ZM780.441 161V182H777.16V161H780.441ZM779.867 174.057L778.801 174.043C778.81 173.022 778.951 172.079 779.225 171.213C779.507 170.347 779.899 169.595 780.4 168.957C780.911 168.31 781.521 167.813 782.232 167.467C782.943 167.111 783.732 166.934 784.598 166.934C785.327 166.934 785.983 167.034 786.566 167.234C787.159 167.435 787.669 167.758 788.098 168.205C788.526 168.643 788.85 169.217 789.068 169.928C789.296 170.63 789.41 171.486 789.41 172.498V182H786.102V172.471C786.102 171.76 785.997 171.195 785.787 170.775C785.587 170.356 785.29 170.055 784.898 169.873C784.507 169.682 784.028 169.586 783.463 169.586C782.87 169.586 782.346 169.704 781.891 169.941C781.444 170.178 781.07 170.502 780.77 170.912C780.469 171.322 780.241 171.796 780.086 172.334C779.94 172.872 779.867 173.446 779.867 174.057ZM801.646 178.514V167.207H804.955V182H801.838L801.646 178.514ZM802.111 175.438L803.219 175.41C803.219 176.404 803.109 177.32 802.891 178.158C802.672 178.988 802.335 179.712 801.879 180.332C801.423 180.943 800.84 181.421 800.129 181.768C799.418 182.105 798.566 182.273 797.572 182.273C796.852 182.273 796.191 182.169 795.59 181.959C794.988 181.749 794.469 181.426 794.031 180.988C793.603 180.551 793.27 179.981 793.033 179.279C792.796 178.577 792.678 177.739 792.678 176.764V167.207H795.973V176.791C795.973 177.329 796.036 177.78 796.164 178.145C796.292 178.5 796.465 178.787 796.684 179.006C796.902 179.225 797.158 179.38 797.449 179.471C797.741 179.562 798.051 179.607 798.379 179.607C799.318 179.607 800.056 179.425 800.594 179.061C801.141 178.687 801.528 178.186 801.756 177.557C801.993 176.928 802.111 176.221 802.111 175.438ZM808.346 161H811.641V178.842L811.326 182H808.346V161ZM821.293 174.467V174.754C821.293 175.848 821.17 176.855 820.924 177.775C820.687 178.687 820.322 179.48 819.83 180.154C819.347 180.829 818.745 181.353 818.025 181.727C817.314 182.091 816.49 182.273 815.551 182.273C814.63 182.273 813.828 182.1 813.145 181.754C812.461 181.408 811.887 180.915 811.422 180.277C810.966 179.639 810.597 178.878 810.314 177.994C810.032 177.11 809.831 176.135 809.713 175.068V174.152C809.831 173.077 810.032 172.102 810.314 171.227C810.597 170.342 810.966 169.581 811.422 168.943C811.887 168.296 812.456 167.799 813.131 167.453C813.814 167.107 814.612 166.934 815.523 166.934C816.471 166.934 817.305 167.116 818.025 167.48C818.755 167.845 819.361 168.365 819.844 169.039C820.327 169.704 820.687 170.497 820.924 171.418C821.17 172.339 821.293 173.355 821.293 174.467ZM817.998 174.754V174.467C817.998 173.801 817.943 173.177 817.834 172.594C817.725 172.001 817.542 171.482 817.287 171.035C817.041 170.589 816.704 170.238 816.275 169.982C815.856 169.718 815.332 169.586 814.703 169.586C814.12 169.586 813.618 169.686 813.199 169.887C812.78 170.087 812.429 170.361 812.146 170.707C811.864 171.053 811.641 171.454 811.477 171.91C811.322 172.366 811.217 172.858 811.162 173.387V175.861C811.244 176.545 811.417 177.174 811.682 177.748C811.955 178.313 812.338 178.769 812.83 179.115C813.322 179.452 813.956 179.621 814.73 179.621C815.341 179.621 815.856 179.498 816.275 179.252C816.695 179.006 817.027 178.664 817.273 178.227C817.529 177.78 817.711 177.26 817.82 176.668C817.939 176.076 817.998 175.438 817.998 174.754ZM832.982 178.514V167.207H836.291V182H833.174L832.982 178.514ZM833.447 175.438L834.555 175.41C834.555 176.404 834.445 177.32 834.227 178.158C834.008 178.988 833.671 179.712 833.215 180.332C832.759 180.943 832.176 181.421 831.465 181.768C830.754 182.105 829.902 182.273 828.908 182.273C828.188 182.273 827.527 182.169 826.926 181.959C826.324 181.749 825.805 181.426 825.367 180.988C824.939 180.551 824.606 179.981 824.369 179.279C824.132 178.577 824.014 177.739 824.014 176.764V167.207H827.309V176.791C827.309 177.329 827.372 177.78 827.5 178.145C827.628 178.5 827.801 178.787 828.02 179.006C828.238 179.225 828.493 179.38 828.785 179.471C829.077 179.562 829.387 179.607 829.715 179.607C830.654 179.607 831.392 179.425 831.93 179.061C832.477 178.687 832.864 178.186 833.092 177.557C833.329 176.928 833.447 176.221 833.447 175.438ZM842.936 170.365V182H839.641V167.207H842.744L842.936 170.365ZM842.348 174.057L841.281 174.043C841.29 172.995 841.436 172.033 841.719 171.158C842.01 170.283 842.411 169.531 842.922 168.902C843.441 168.273 844.061 167.79 844.781 167.453C845.501 167.107 846.303 166.934 847.188 166.934C847.898 166.934 848.541 167.034 849.115 167.234C849.699 167.426 850.195 167.74 850.605 168.178C851.025 168.615 851.344 169.185 851.562 169.887C851.781 170.579 851.891 171.432 851.891 172.443V182H848.582V172.43C848.582 171.719 848.477 171.158 848.268 170.748C848.067 170.329 847.771 170.033 847.379 169.859C846.996 169.677 846.518 169.586 845.943 169.586C845.378 169.586 844.872 169.704 844.426 169.941C843.979 170.178 843.601 170.502 843.291 170.912C842.99 171.322 842.758 171.796 842.594 172.334C842.43 172.872 842.348 173.446 842.348 174.057ZM864.729 167.207H867.723V181.59C867.723 182.921 867.44 184.051 866.875 184.98C866.31 185.91 865.521 186.617 864.51 187.1C863.498 187.592 862.327 187.838 860.996 187.838C860.431 187.838 859.802 187.756 859.109 187.592C858.426 187.428 857.76 187.163 857.113 186.799C856.475 186.443 855.942 185.974 855.514 185.391L857.059 183.449C857.587 184.078 858.171 184.538 858.809 184.83C859.447 185.122 860.117 185.268 860.818 185.268C861.575 185.268 862.217 185.126 862.746 184.844C863.284 184.57 863.699 184.165 863.99 183.627C864.282 183.089 864.428 182.433 864.428 181.658V170.557L864.729 167.207ZM854.68 174.768V174.48C854.68 173.359 854.816 172.339 855.09 171.418C855.363 170.488 855.755 169.691 856.266 169.025C856.776 168.351 857.396 167.836 858.125 167.48C858.854 167.116 859.679 166.934 860.6 166.934C861.557 166.934 862.372 167.107 863.047 167.453C863.73 167.799 864.3 168.296 864.756 168.943C865.212 169.581 865.567 170.347 865.822 171.24C866.087 172.124 866.283 173.109 866.41 174.193V175.109C866.292 176.167 866.091 177.133 865.809 178.008C865.526 178.883 865.152 179.639 864.688 180.277C864.223 180.915 863.648 181.408 862.965 181.754C862.29 182.1 861.493 182.273 860.572 182.273C859.67 182.273 858.854 182.087 858.125 181.713C857.405 181.339 856.785 180.815 856.266 180.141C855.755 179.466 855.363 178.673 855.09 177.762C854.816 176.841 854.68 175.843 854.68 174.768ZM857.975 174.48V174.768C857.975 175.442 858.038 176.071 858.166 176.654C858.303 177.238 858.508 177.753 858.781 178.199C859.064 178.637 859.419 178.983 859.848 179.238C860.285 179.484 860.8 179.607 861.393 179.607C862.167 179.607 862.801 179.443 863.293 179.115C863.794 178.787 864.177 178.345 864.441 177.789C864.715 177.224 864.906 176.595 865.016 175.902V173.428C864.961 172.89 864.847 172.389 864.674 171.924C864.51 171.459 864.286 171.053 864.004 170.707C863.721 170.352 863.366 170.078 862.938 169.887C862.509 169.686 862.003 169.586 861.42 169.586C860.827 169.586 860.312 169.714 859.875 169.969C859.438 170.224 859.077 170.575 858.795 171.021C858.521 171.468 858.316 171.988 858.18 172.58C858.043 173.173 857.975 173.806 857.975 174.48ZM874.463 161V182H871.154V161H874.463ZM883.65 167.207L877.211 174.344L873.684 177.953L872.822 175.164L875.488 171.869L879.672 167.207H883.65ZM880.383 182L875.584 175.055L877.662 172.744L884.197 182H880.383ZM894.082 179.033V171.979C894.082 171.45 893.986 170.994 893.795 170.611C893.604 170.229 893.312 169.932 892.92 169.723C892.537 169.513 892.054 169.408 891.471 169.408C890.933 169.408 890.468 169.499 890.076 169.682C889.684 169.864 889.379 170.11 889.16 170.42C888.941 170.73 888.832 171.081 888.832 171.473H885.551C885.551 170.889 885.692 170.324 885.975 169.777C886.257 169.23 886.667 168.743 887.205 168.314C887.743 167.886 888.385 167.549 889.133 167.303C889.88 167.057 890.719 166.934 891.648 166.934C892.76 166.934 893.745 167.12 894.602 167.494C895.467 167.868 896.146 168.433 896.639 169.189C897.14 169.937 897.391 170.876 897.391 172.006V178.582C897.391 179.257 897.436 179.863 897.527 180.4C897.628 180.929 897.769 181.389 897.951 181.781V182H894.574C894.419 181.645 894.296 181.193 894.205 180.646C894.123 180.09 894.082 179.553 894.082 179.033ZM894.561 173.004L894.588 175.041H892.223C891.612 175.041 891.074 175.1 890.609 175.219C890.145 175.328 889.757 175.492 889.447 175.711C889.137 175.93 888.905 176.194 888.75 176.504C888.595 176.814 888.518 177.165 888.518 177.557C888.518 177.949 888.609 178.309 888.791 178.637C888.973 178.956 889.238 179.206 889.584 179.389C889.939 179.571 890.368 179.662 890.869 179.662C891.544 179.662 892.132 179.525 892.633 179.252C893.143 178.969 893.544 178.628 893.836 178.227C894.128 177.816 894.283 177.429 894.301 177.064L895.367 178.527C895.258 178.901 895.071 179.302 894.807 179.73C894.542 180.159 894.196 180.569 893.768 180.961C893.348 181.344 892.842 181.658 892.25 181.904C891.667 182.15 890.992 182.273 890.227 182.273C889.26 182.273 888.399 182.082 887.643 181.699C886.886 181.307 886.294 180.783 885.865 180.127C885.437 179.462 885.223 178.71 885.223 177.871C885.223 177.087 885.368 176.395 885.66 175.793C885.961 175.182 886.398 174.672 886.973 174.262C887.556 173.852 888.267 173.542 889.105 173.332C889.944 173.113 890.901 173.004 891.977 173.004H894.561ZM904.104 170.365V182H900.809V167.207H903.912L904.104 170.365ZM903.516 174.057L902.449 174.043C902.458 172.995 902.604 172.033 902.887 171.158C903.178 170.283 903.579 169.531 904.09 168.902C904.609 168.273 905.229 167.79 905.949 167.453C906.669 167.107 907.471 166.934 908.355 166.934C909.066 166.934 909.709 167.034 910.283 167.234C910.867 167.426 911.363 167.74 911.773 168.178C912.193 168.615 912.512 169.185 912.73 169.887C912.949 170.579 913.059 171.432 913.059 172.443V182H909.75V172.43C909.75 171.719 909.645 171.158 909.436 170.748C909.235 170.329 908.939 170.033 908.547 169.859C908.164 169.677 907.686 169.586 907.111 169.586C906.546 169.586 906.04 169.704 905.594 169.941C905.147 170.178 904.769 170.502 904.459 170.912C904.158 171.322 903.926 171.796 903.762 172.334C903.598 172.872 903.516 173.446 903.516 174.057ZM373.99 203.215V215H370.695V200.207H373.799L373.99 203.215ZM373.457 207.057L372.336 207.043C372.336 206.022 372.464 205.079 372.719 204.213C372.974 203.347 373.348 202.595 373.84 201.957C374.332 201.31 374.943 200.813 375.672 200.467C376.41 200.111 377.262 199.934 378.229 199.934C378.903 199.934 379.518 200.034 380.074 200.234C380.639 200.426 381.127 200.731 381.537 201.15C381.956 201.57 382.275 202.107 382.494 202.764C382.722 203.42 382.836 204.213 382.836 205.143V215H379.541V205.43C379.541 204.71 379.432 204.145 379.213 203.734C379.003 203.324 378.698 203.033 378.297 202.859C377.905 202.677 377.436 202.586 376.889 202.586C376.269 202.586 375.74 202.704 375.303 202.941C374.874 203.178 374.523 203.502 374.25 203.912C373.977 204.322 373.776 204.796 373.648 205.334C373.521 205.872 373.457 206.446 373.457 207.057ZM382.631 206.182L381.086 206.523C381.086 205.63 381.209 204.787 381.455 203.994C381.71 203.192 382.079 202.49 382.562 201.889C383.055 201.278 383.661 200.799 384.381 200.453C385.101 200.107 385.926 199.934 386.855 199.934C387.612 199.934 388.286 200.038 388.879 200.248C389.48 200.449 389.991 200.768 390.41 201.205C390.829 201.643 391.148 202.212 391.367 202.914C391.586 203.607 391.695 204.445 391.695 205.43V215H388.387V205.416C388.387 204.669 388.277 204.09 388.059 203.68C387.849 203.27 387.548 202.987 387.156 202.832C386.764 202.668 386.295 202.586 385.748 202.586C385.238 202.586 384.786 202.682 384.395 202.873C384.012 203.055 383.688 203.315 383.424 203.652C383.16 203.98 382.959 204.359 382.822 204.787C382.695 205.215 382.631 205.68 382.631 206.182ZM403.426 212.033V204.979C403.426 204.45 403.33 203.994 403.139 203.611C402.947 203.229 402.656 202.932 402.264 202.723C401.881 202.513 401.398 202.408 400.814 202.408C400.277 202.408 399.812 202.499 399.42 202.682C399.028 202.864 398.723 203.11 398.504 203.42C398.285 203.73 398.176 204.081 398.176 204.473H394.895C394.895 203.889 395.036 203.324 395.318 202.777C395.601 202.23 396.011 201.743 396.549 201.314C397.087 200.886 397.729 200.549 398.477 200.303C399.224 200.057 400.062 199.934 400.992 199.934C402.104 199.934 403.089 200.12 403.945 200.494C404.811 200.868 405.49 201.433 405.982 202.189C406.484 202.937 406.734 203.876 406.734 205.006V211.582C406.734 212.257 406.78 212.863 406.871 213.4C406.971 213.929 407.113 214.389 407.295 214.781V215H403.918C403.763 214.645 403.64 214.193 403.549 213.646C403.467 213.09 403.426 212.553 403.426 212.033ZM403.904 206.004L403.932 208.041H401.566C400.956 208.041 400.418 208.1 399.953 208.219C399.488 208.328 399.101 208.492 398.791 208.711C398.481 208.93 398.249 209.194 398.094 209.504C397.939 209.814 397.861 210.165 397.861 210.557C397.861 210.949 397.952 211.309 398.135 211.637C398.317 211.956 398.581 212.206 398.928 212.389C399.283 212.571 399.712 212.662 400.213 212.662C400.887 212.662 401.475 212.525 401.977 212.252C402.487 211.969 402.888 211.628 403.18 211.227C403.471 210.816 403.626 210.429 403.645 210.064L404.711 211.527C404.602 211.901 404.415 212.302 404.15 212.73C403.886 213.159 403.54 213.569 403.111 213.961C402.692 214.344 402.186 214.658 401.594 214.904C401.01 215.15 400.336 215.273 399.57 215.273C398.604 215.273 397.743 215.082 396.986 214.699C396.23 214.307 395.637 213.783 395.209 213.127C394.781 212.462 394.566 211.71 394.566 210.871C394.566 210.087 394.712 209.395 395.004 208.793C395.305 208.182 395.742 207.672 396.316 207.262C396.9 206.852 397.611 206.542 398.449 206.332C399.288 206.113 400.245 206.004 401.32 206.004H403.904ZM418.479 210.994C418.479 210.666 418.396 210.37 418.232 210.105C418.068 209.832 417.754 209.586 417.289 209.367C416.833 209.148 416.159 208.948 415.266 208.766C414.482 208.592 413.762 208.387 413.105 208.15C412.458 207.904 411.902 207.608 411.438 207.262C410.973 206.915 410.613 206.505 410.357 206.031C410.102 205.557 409.975 205.01 409.975 204.391C409.975 203.789 410.107 203.219 410.371 202.682C410.635 202.144 411.014 201.67 411.506 201.26C411.998 200.85 412.595 200.526 413.297 200.289C414.008 200.052 414.801 199.934 415.676 199.934C416.915 199.934 417.977 200.143 418.861 200.562C419.755 200.973 420.438 201.533 420.912 202.244C421.386 202.946 421.623 203.739 421.623 204.623H418.328C418.328 204.231 418.228 203.867 418.027 203.529C417.836 203.183 417.544 202.905 417.152 202.695C416.76 202.477 416.268 202.367 415.676 202.367C415.111 202.367 414.641 202.458 414.268 202.641C413.903 202.814 413.63 203.042 413.447 203.324C413.274 203.607 413.188 203.917 413.188 204.254C413.188 204.5 413.233 204.723 413.324 204.924C413.424 205.115 413.589 205.293 413.816 205.457C414.044 205.612 414.354 205.758 414.746 205.895C415.147 206.031 415.648 206.163 416.25 206.291C417.38 206.528 418.351 206.833 419.162 207.207C419.982 207.572 420.611 208.046 421.049 208.629C421.486 209.203 421.705 209.932 421.705 210.816C421.705 211.473 421.564 212.074 421.281 212.621C421.008 213.159 420.607 213.628 420.078 214.029C419.549 214.421 418.916 214.727 418.178 214.945C417.449 215.164 416.628 215.273 415.717 215.273C414.377 215.273 413.242 215.036 412.312 214.562C411.383 214.079 410.676 213.464 410.193 212.717C409.719 211.96 409.482 211.176 409.482 210.365H412.668C412.704 210.976 412.873 211.464 413.174 211.828C413.484 212.184 413.867 212.443 414.322 212.607C414.787 212.762 415.266 212.84 415.758 212.84C416.35 212.84 416.847 212.762 417.248 212.607C417.649 212.443 417.954 212.225 418.164 211.951C418.374 211.669 418.479 211.35 418.479 210.994ZM432.93 212.033V204.979C432.93 204.45 432.834 203.994 432.643 203.611C432.451 203.229 432.16 202.932 431.768 202.723C431.385 202.513 430.902 202.408 430.318 202.408C429.781 202.408 429.316 202.499 428.924 202.682C428.532 202.864 428.227 203.11 428.008 203.42C427.789 203.73 427.68 204.081 427.68 204.473H424.398C424.398 203.889 424.54 203.324 424.822 202.777C425.105 202.23 425.515 201.743 426.053 201.314C426.59 200.886 427.233 200.549 427.98 200.303C428.728 200.057 429.566 199.934 430.496 199.934C431.608 199.934 432.592 200.12 433.449 200.494C434.315 200.868 434.994 201.433 435.486 202.189C435.988 202.937 436.238 203.876 436.238 205.006V211.582C436.238 212.257 436.284 212.863 436.375 213.4C436.475 213.929 436.617 214.389 436.799 214.781V215H433.422C433.267 214.645 433.144 214.193 433.053 213.646C432.971 213.09 432.93 212.553 432.93 212.033ZM433.408 206.004L433.436 208.041H431.07C430.46 208.041 429.922 208.1 429.457 208.219C428.992 208.328 428.605 208.492 428.295 208.711C427.985 208.93 427.753 209.194 427.598 209.504C427.443 209.814 427.365 210.165 427.365 210.557C427.365 210.949 427.456 211.309 427.639 211.637C427.821 211.956 428.085 212.206 428.432 212.389C428.787 212.571 429.215 212.662 429.717 212.662C430.391 212.662 430.979 212.525 431.48 212.252C431.991 211.969 432.392 211.628 432.684 211.227C432.975 210.816 433.13 210.429 433.148 210.064L434.215 211.527C434.105 211.901 433.919 212.302 433.654 212.73C433.39 213.159 433.044 213.569 432.615 213.961C432.196 214.344 431.69 214.658 431.098 214.904C430.514 215.15 429.84 215.273 429.074 215.273C428.108 215.273 427.247 215.082 426.49 214.699C425.734 214.307 425.141 213.783 424.713 213.127C424.285 212.462 424.07 211.71 424.07 210.871C424.07 210.087 424.216 209.395 424.508 208.793C424.809 208.182 425.246 207.672 425.82 207.262C426.404 206.852 427.115 206.542 427.953 206.332C428.792 206.113 429.749 206.004 430.824 206.004H433.408ZM455.68 211.938V194H458.988V215H455.994L455.68 211.938ZM446.055 207.768V207.48C446.055 206.359 446.187 205.339 446.451 204.418C446.715 203.488 447.098 202.691 447.6 202.025C448.101 201.351 448.712 200.836 449.432 200.48C450.152 200.116 450.963 199.934 451.865 199.934C452.758 199.934 453.542 200.107 454.217 200.453C454.891 200.799 455.465 201.296 455.939 201.943C456.413 202.581 456.792 203.347 457.074 204.24C457.357 205.124 457.557 206.109 457.676 207.193V208.109C457.557 209.167 457.357 210.133 457.074 211.008C456.792 211.883 456.413 212.639 455.939 213.277C455.465 213.915 454.887 214.408 454.203 214.754C453.529 215.1 452.74 215.273 451.838 215.273C450.945 215.273 450.138 215.087 449.418 214.713C448.707 214.339 448.101 213.815 447.6 213.141C447.098 212.466 446.715 211.673 446.451 210.762C446.187 209.841 446.055 208.843 446.055 207.768ZM449.35 207.48V207.768C449.35 208.442 449.409 209.071 449.527 209.654C449.655 210.238 449.851 210.753 450.115 211.199C450.38 211.637 450.721 211.983 451.141 212.238C451.569 212.484 452.079 212.607 452.672 212.607C453.419 212.607 454.035 212.443 454.518 212.115C455.001 211.787 455.379 211.345 455.652 210.789C455.935 210.224 456.126 209.595 456.227 208.902V206.428C456.172 205.89 456.058 205.389 455.885 204.924C455.721 204.459 455.497 204.053 455.215 203.707C454.932 203.352 454.581 203.078 454.162 202.887C453.752 202.686 453.264 202.586 452.699 202.586C452.098 202.586 451.587 202.714 451.168 202.969C450.749 203.224 450.402 203.575 450.129 204.021C449.865 204.468 449.669 204.988 449.541 205.58C449.413 206.173 449.35 206.806 449.35 207.48ZM468.955 215.273C467.861 215.273 466.872 215.096 465.988 214.74C465.113 214.376 464.366 213.87 463.746 213.223C463.135 212.576 462.666 211.814 462.338 210.939C462.01 210.064 461.846 209.121 461.846 208.109V207.562C461.846 206.405 462.014 205.357 462.352 204.418C462.689 203.479 463.158 202.677 463.76 202.012C464.361 201.337 465.072 200.822 465.893 200.467C466.713 200.111 467.602 199.934 468.559 199.934C469.616 199.934 470.541 200.111 471.334 200.467C472.127 200.822 472.783 201.324 473.303 201.971C473.831 202.609 474.223 203.37 474.479 204.254C474.743 205.138 474.875 206.113 474.875 207.18V208.588H463.445V206.223H471.621V205.963C471.603 205.37 471.484 204.814 471.266 204.295C471.056 203.775 470.732 203.356 470.295 203.037C469.857 202.718 469.274 202.559 468.545 202.559C467.998 202.559 467.51 202.677 467.082 202.914C466.663 203.142 466.312 203.475 466.029 203.912C465.747 204.35 465.528 204.878 465.373 205.498C465.227 206.109 465.154 206.797 465.154 207.562V208.109C465.154 208.757 465.241 209.358 465.414 209.914C465.596 210.461 465.861 210.939 466.207 211.35C466.553 211.76 466.973 212.083 467.465 212.32C467.957 212.548 468.518 212.662 469.146 212.662C469.939 212.662 470.646 212.503 471.266 212.184C471.885 211.865 472.423 211.413 472.879 210.83L474.615 212.512C474.296 212.977 473.882 213.423 473.371 213.852C472.861 214.271 472.236 214.613 471.498 214.877C470.769 215.141 469.921 215.273 468.955 215.273ZM480.754 203.051V220.688H477.459V200.207H480.494L480.754 203.051ZM490.393 207.467V207.754C490.393 208.829 490.265 209.827 490.01 210.748C489.764 211.66 489.395 212.457 488.902 213.141C488.419 213.815 487.822 214.339 487.111 214.713C486.4 215.087 485.58 215.273 484.65 215.273C483.73 215.273 482.923 215.105 482.23 214.768C481.547 214.421 480.968 213.934 480.494 213.305C480.02 212.676 479.637 211.938 479.346 211.09C479.063 210.233 478.863 209.294 478.744 208.273V207.166C478.863 206.081 479.063 205.097 479.346 204.213C479.637 203.329 480.02 202.568 480.494 201.93C480.968 201.292 481.547 200.799 482.23 200.453C482.914 200.107 483.712 199.934 484.623 199.934C485.553 199.934 486.378 200.116 487.098 200.48C487.818 200.836 488.424 201.346 488.916 202.012C489.408 202.668 489.777 203.461 490.023 204.391C490.27 205.311 490.393 206.337 490.393 207.467ZM487.098 207.754V207.467C487.098 206.783 487.034 206.15 486.906 205.566C486.779 204.974 486.578 204.454 486.305 204.008C486.031 203.561 485.68 203.215 485.252 202.969C484.833 202.714 484.327 202.586 483.734 202.586C483.151 202.586 482.65 202.686 482.23 202.887C481.811 203.078 481.46 203.347 481.178 203.693C480.895 204.04 480.676 204.445 480.521 204.91C480.367 205.366 480.257 205.863 480.193 206.4V209.053C480.303 209.709 480.49 210.311 480.754 210.857C481.018 211.404 481.392 211.842 481.875 212.17C482.367 212.489 482.996 212.648 483.762 212.648C484.354 212.648 484.86 212.521 485.279 212.266C485.699 212.01 486.04 211.66 486.305 211.213C486.578 210.757 486.779 210.233 486.906 209.641C487.034 209.048 487.098 208.419 487.098 207.754ZM501.535 212.033V204.979C501.535 204.45 501.439 203.994 501.248 203.611C501.057 203.229 500.765 202.932 500.373 202.723C499.99 202.513 499.507 202.408 498.924 202.408C498.386 202.408 497.921 202.499 497.529 202.682C497.137 202.864 496.832 203.11 496.613 203.42C496.395 203.73 496.285 204.081 496.285 204.473H493.004C493.004 203.889 493.145 203.324 493.428 202.777C493.71 202.23 494.12 201.743 494.658 201.314C495.196 200.886 495.839 200.549 496.586 200.303C497.333 200.057 498.172 199.934 499.102 199.934C500.214 199.934 501.198 200.12 502.055 200.494C502.921 200.868 503.6 201.433 504.092 202.189C504.593 202.937 504.844 203.876 504.844 205.006V211.582C504.844 212.257 504.889 212.863 504.98 213.4C505.081 213.929 505.222 214.389 505.404 214.781V215H502.027C501.872 214.645 501.749 214.193 501.658 213.646C501.576 213.09 501.535 212.553 501.535 212.033ZM502.014 206.004L502.041 208.041H499.676C499.065 208.041 498.527 208.1 498.062 208.219C497.598 208.328 497.21 208.492 496.9 208.711C496.59 208.93 496.358 209.194 496.203 209.504C496.048 209.814 495.971 210.165 495.971 210.557C495.971 210.949 496.062 211.309 496.244 211.637C496.426 211.956 496.691 212.206 497.037 212.389C497.393 212.571 497.821 212.662 498.322 212.662C498.997 212.662 499.585 212.525 500.086 212.252C500.596 211.969 500.997 211.628 501.289 211.227C501.581 210.816 501.736 210.429 501.754 210.064L502.82 211.527C502.711 211.901 502.524 212.302 502.26 212.73C501.995 213.159 501.649 213.569 501.221 213.961C500.801 214.344 500.296 214.658 499.703 214.904C499.12 215.15 498.445 215.273 497.68 215.273C496.714 215.273 495.852 215.082 495.096 214.699C494.339 214.307 493.747 213.783 493.318 213.127C492.89 212.462 492.676 211.71 492.676 210.871C492.676 210.087 492.822 209.395 493.113 208.793C493.414 208.182 493.852 207.672 494.426 207.262C495.009 206.852 495.72 206.542 496.559 206.332C497.397 206.113 498.354 206.004 499.43 206.004H502.014ZM511.557 203.365V215H508.262V200.207H511.365L511.557 203.365ZM510.969 207.057L509.902 207.043C509.911 205.995 510.057 205.033 510.34 204.158C510.632 203.283 511.033 202.531 511.543 201.902C512.062 201.273 512.682 200.79 513.402 200.453C514.122 200.107 514.924 199.934 515.809 199.934C516.52 199.934 517.162 200.034 517.736 200.234C518.32 200.426 518.816 200.74 519.227 201.178C519.646 201.615 519.965 202.185 520.184 202.887C520.402 203.579 520.512 204.432 520.512 205.443V215H517.203V205.43C517.203 204.719 517.098 204.158 516.889 203.748C516.688 203.329 516.392 203.033 516 202.859C515.617 202.677 515.139 202.586 514.564 202.586C513.999 202.586 513.493 202.704 513.047 202.941C512.6 203.178 512.222 203.502 511.912 203.912C511.611 204.322 511.379 204.796 511.215 205.334C511.051 205.872 510.969 206.446 510.969 207.057Z" fill="#0B3067"/>
<path d="M1037 78H1057V88H1037V78Z" fill="#0A47A1"/>
<path d="M1057 88H1067V108H1057V88Z" fill="#0A47A1"/>
<path d="M1054 64H1071V74H1054V64Z" fill="#CCE0FF"/>
<path d="M1071 73H1081V90H1071V73Z" fill="#CCE0FF"/>
<rect x="1071" y="64" width="10" height="10" fill="#CCE0FF"/>
<rect x="1057" y="78" width="10" height="10" fill="#0A47A2"/>
<defs>
<clipPath id="clip0_201_51">
<rect x="98" y="53" width="200" height="200" rx="30" fill="white"/>
</clipPath>
</defs>
</svg>
